solid OpenSCAD_Model
  facet normal -1 0 0
    outer loop
      vertex -9.25 3.65 0
      vertex -9.25 6.45 5.3
      vertex -9.25 6.45 0
    endloop
  endfacet
  facet normal -1 -0 0
    outer loop
      vertex -9.25 6.45 5.3
      vertex -9.25 3.65 0
      vertex -9.25 3.65 5.3
    endloop
  endfacet
  facet normal -0 0 1
    outer loop
      vertex -9.25 6.45 5.3
      vertex 9.25 3.65 5.3
      vertex 9.25 6.45 5.3
    endloop
  endfacet
  facet normal 0 0 1
    outer loop
      vertex 9.25 3.65 5.3
      vertex -9.25 6.45 5.3
      vertex -9.25 3.65 5.3
    endloop
  endfacet
  facet normal 1 -0 0
    outer loop
      vertex 9.25 3.65 5.3
      vertex 9.25 6.45 0
      vertex 9.25 6.45 5.3
    endloop
  endfacet
  facet normal 1 0 0
    outer loop
      vertex 9.25 6.45 0
      vertex 9.25 3.65 5.3
      vertex 9.25 3.65 0
    endloop
  endfacet
  facet normal 0 1 -0
    outer loop
      vertex 9.25 6.45 0
      vertex -9.25 6.45 5.3
      vertex 9.25 6.45 5.3
    endloop
  endfacet
  facet normal 0 1 0
    outer loop
      vertex -9.25 6.45 5.3
      vertex 9.25 6.45 0
      vertex -9.25 6.45 0
    endloop
  endfacet
  facet normal -0 0 1
    outer loop
      vertex -9.25 3.65 0
      vertex 9.25 -3.65 0
      vertex 9.25 3.65 0
    endloop
  endfacet
  facet normal 0 0 1
    outer loop
      vertex 9.25 -3.65 0
      vertex -9.25 3.65 0
      vertex -9.25 -3.65 0
    endloop
  endfacet
  facet normal 0 0 1
    outer loop
      vertex 9.25 3.65 0
      vertex 19.5 8 0
      vertex 9.25 6.45 0
    endloop
  endfacet
  facet normal 0 0 1
    outer loop
      vertex 19.5 8 0
      vertex -9.25 6.45 0
      vertex 9.25 6.45 0
    endloop
  endfacet
  facet normal 0 0 1
    outer loop
      vertex -19.5 8 0
      vertex -9.25 3.65 0
      vertex -9.25 6.45 0
    endloop
  endfacet
  facet normal 0 0 1
    outer loop
      vertex -9.25 3.65 0
      vertex -19.5 8 0
      vertex -9.25 -3.65 0
    endloop
  endfacet
  facet normal 0 0 1
    outer loop
      vertex -19.5 -8 0
      vertex -9.25 -3.65 0
      vertex -19.5 8 0
    endloop
  endfacet
  facet normal -0 0 1
    outer loop
      vertex -19.5 8 0
      vertex -9.25 6.45 0
      vertex 19.5 8 0
    endloop
  endfacet
  facet normal 0 0 1
    outer loop
      vertex 19.5 8 0
      vertex 9.25 3.65 0
      vertex 19.5 -8 0
    endloop
  endfacet
  facet normal -0 0 1
    outer loop
      vertex 9.25 -3.65 0
      vertex 19.5 -8 0
      vertex 9.25 3.65 0
    endloop
  endfacet
  facet normal -0 0 1
    outer loop
      vertex 9.25 -6.45 0
      vertex 19.5 -8 0
      vertex 9.25 -3.65 0
    endloop
  endfacet
  facet normal -0 0 1
    outer loop
      vertex -9.25 -6.45 0
      vertex 19.5 -8 0
      vertex 9.25 -6.45 0
    endloop
  endfacet
  facet normal 0 0 1
    outer loop
      vertex -9.25 -6.45 0
      vertex -19.5 -8 0
      vertex 19.5 -8 0
    endloop
  endfacet
  facet normal 0 0 1
    outer loop
      vertex -9.25 -3.65 0
      vertex -19.5 -8 0
      vertex -9.25 -6.45 0
    endloop
  endfacet
  facet normal 0 -1 0
    outer loop
      vertex -9.25 3.65 0
      vertex 9.25 3.65 5.3
      vertex -9.25 3.65 5.3
    endloop
  endfacet
  facet normal 0 -1 -0
    outer loop
      vertex 9.25 3.65 5.3
      vertex -9.25 3.65 0
      vertex 9.25 3.65 0
    endloop
  endfacet
  facet normal -1 0 0
    outer loop
      vertex -9.25 -6.45 0
      vertex -9.25 -3.65 5.3
      vertex -9.25 -3.65 0
    endloop
  endfacet
  facet normal -1 -0 0
    outer loop
      vertex -9.25 -3.65 5.3
      vertex -9.25 -6.45 0
      vertex -9.25 -6.45 5.3
    endloop
  endfacet
  facet normal -0 0 1
    outer loop
      vertex -9.25 -3.65 5.3
      vertex 9.25 -6.45 5.3
      vertex 9.25 -3.65 5.3
    endloop
  endfacet
  facet normal 0 0 1
    outer loop
      vertex 9.25 -6.45 5.3
      vertex -9.25 -3.65 5.3
      vertex -9.25 -6.45 5.3
    endloop
  endfacet
  facet normal 1 -0 0
    outer loop
      vertex 9.25 -6.45 5.3
      vertex 9.25 -3.65 0
      vertex 9.25 -3.65 5.3
    endloop
  endfacet
  facet normal 1 0 0
    outer loop
      vertex 9.25 -3.65 0
      vertex 9.25 -6.45 5.3
      vertex 9.25 -6.45 0
    endloop
  endfacet
  facet normal 0 -1 0
    outer loop
      vertex -9.25 -6.45 0
      vertex 9.25 -6.45 5.3
      vertex -9.25 -6.45 5.3
    endloop
  endfacet
  facet normal 0 -1 -0
    outer loop
      vertex 9.25 -6.45 5.3
      vertex -9.25 -6.45 0
      vertex 9.25 -6.45 0
    endloop
  endfacet
  facet normal 0 1 -0
    outer loop
      vertex 9.25 -3.65 0
      vertex -9.25 -3.65 5.3
      vertex 9.25 -3.65 5.3
    endloop
  endfacet
  facet normal 0 1 0
    outer loop
      vertex -9.25 -3.65 5.3
      vertex 9.25 -3.65 0
      vertex -9.25 -3.65 0
    endloop
  endfacet
  facet normal -1 0 0
    outer loop
      vertex -19.5 -8 -12.5
      vertex -19.5 8 0
      vertex -19.5 8 -12.5
    endloop
  endfacet
  facet normal -1 -0 0
    outer loop
      vertex -19.5 8 0
      vertex -19.5 -8 -12.5
      vertex -19.5 -8 0
    endloop
  endfacet
  facet normal 0 0 -1
    outer loop
      vertex 19.5 -8 -12.5
      vertex 2.8 0 -12.5
      vertex 19.5 8 -12.5
    endloop
  endfacet
  facet normal 0 0 -1
    outer loop
      vertex 19.5 -8 -12.5
      vertex 2.78466 -0.292679 -12.5
      vertex 2.8 0 -12.5
    endloop
  endfacet
  facet normal 0 0 -1
    outer loop
      vertex 19.5 -8 -12.5
      vertex 2.73881 -0.582152 -12.5
      vertex 2.78466 -0.292679 -12.5
    endloop
  endfacet
  facet normal 0 0 -1
    outer loop
      vertex 19.5 -8 -12.5
      vertex 2.66296 -0.865247 -12.5
      vertex 2.73881 -0.582152 -12.5
    endloop
  endfacet
  facet normal 0 0 -1
    outer loop
      vertex 19.5 -8 -12.5
      vertex 2.55793 -1.13886 -12.5
      vertex 2.66296 -0.865247 -12.5
    endloop
  endfacet
  facet normal 0 0 -1
    outer loop
      vertex 19.5 -8 -12.5
      vertex 2.42487 -1.4 -12.5
      vertex 2.55793 -1.13886 -12.5
    endloop
  endfacet
  facet normal 0 0 -1
    outer loop
      vertex 19.5 -8 -12.5
      vertex 2.26525 -1.6458 -12.5
      vertex 2.42487 -1.4 -12.5
    endloop
  endfacet
  facet normal 0 0 -1
    outer loop
      vertex 19.5 -8 -12.5
      vertex 2.0808 -1.87357 -12.5
      vertex 2.26525 -1.6458 -12.5
    endloop
  endfacet
  facet normal 0 0 -1
    outer loop
      vertex 19.5 -8 -12.5
      vertex 1.87357 -2.0808 -12.5
      vertex 2.0808 -1.87357 -12.5
    endloop
  endfacet
  facet normal 0 0 -1
    outer loop
      vertex 19.5 -8 -12.5
      vertex 1.6458 -2.26525 -12.5
      vertex 1.87357 -2.0808 -12.5
    endloop
  endfacet
  facet normal 0 0 -1
    outer loop
      vertex 19.5 -8 -12.5
      vertex 1.4 -2.42487 -12.5
      vertex 1.6458 -2.26525 -12.5
    endloop
  endfacet
  facet normal 0 0 -1
    outer loop
      vertex 19.5 -8 -12.5
      vertex 1.13886 -2.55793 -12.5
      vertex 1.4 -2.42487 -12.5
    endloop
  endfacet
  facet normal 0 0 -1
    outer loop
      vertex 19.5 -8 -12.5
      vertex 0.865247 -2.66296 -12.5
      vertex 1.13886 -2.55793 -12.5
    endloop
  endfacet
  facet normal 0 0 -1
    outer loop
      vertex 19.5 -8 -12.5
      vertex 0.582152 -2.73881 -12.5
      vertex 0.865247 -2.66296 -12.5
    endloop
  endfacet
  facet normal 0 0 -1
    outer loop
      vertex 19.5 -8 -12.5
      vertex 0.292679 -2.78466 -12.5
      vertex 0.582152 -2.73881 -12.5
    endloop
  endfacet
  facet normal 0 0 -1
    outer loop
      vertex 19.5 -8 -12.5
      vertex 0 -2.8 -12.5
      vertex 0.292679 -2.78466 -12.5
    endloop
  endfacet
  facet normal 0 0 -1
    outer loop
      vertex -19.5 -8 -12.5
      vertex 0 -2.8 -12.5
      vertex 19.5 -8 -12.5
    endloop
  endfacet
  facet normal -0 0 -1
    outer loop
      vertex 0 -2.8 -12.5
      vertex -19.5 -8 -12.5
      vertex -0.292679 -2.78466 -12.5
    endloop
  endfacet
  facet normal -0 0 -1
    outer loop
      vertex -2.78466 -0.292679 -12.5
      vertex -19.5 -8 -12.5
      vertex -2.8 0 -12.5
    endloop
  endfacet
  facet normal -0 0 -1
    outer loop
      vertex -2.73881 -0.582152 -12.5
      vertex -19.5 -8 -12.5
      vertex -2.78466 -0.292679 -12.5
    endloop
  endfacet
  facet normal -0 0 -1
    outer loop
      vertex -2.66296 -0.865247 -12.5
      vertex -19.5 -8 -12.5
      vertex -2.73881 -0.582152 -12.5
    endloop
  endfacet
  facet normal -0 0 -1
    outer loop
      vertex -2.55793 -1.13886 -12.5
      vertex -19.5 -8 -12.5
      vertex -2.66296 -0.865247 -12.5
    endloop
  endfacet
  facet normal -0 0 -1
    outer loop
      vertex -2.42487 -1.4 -12.5
      vertex -19.5 -8 -12.5
      vertex -2.55793 -1.13886 -12.5
    endloop
  endfacet
  facet normal -0 0 -1
    outer loop
      vertex -2.26525 -1.6458 -12.5
      vertex -19.5 -8 -12.5
      vertex -2.42487 -1.4 -12.5
    endloop
  endfacet
  facet normal -0 0 -1
    outer loop
      vertex -2.0808 -1.87357 -12.5
      vertex -19.5 -8 -12.5
      vertex -2.26525 -1.6458 -12.5
    endloop
  endfacet
  facet normal -0 0 -1
    outer loop
      vertex -1.87357 -2.0808 -12.5
      vertex -19.5 -8 -12.5
      vertex -2.0808 -1.87357 -12.5
    endloop
  endfacet
  facet normal -0 0 -1
    outer loop
      vertex -1.6458 -2.26525 -12.5
      vertex -19.5 -8 -12.5
      vertex -1.87357 -2.0808 -12.5
    endloop
  endfacet
  facet normal -0 0 -1
    outer loop
      vertex -1.4 -2.42487 -12.5
      vertex -19.5 -8 -12.5
      vertex -1.6458 -2.26525 -12.5
    endloop
  endfacet
  facet normal -0 0 -1
    outer loop
      vertex -1.13886 -2.55793 -12.5
      vertex -19.5 -8 -12.5
      vertex -1.4 -2.42487 -12.5
    endloop
  endfacet
  facet normal -0 0 -1
    outer loop
      vertex -0.865247 -2.66296 -12.5
      vertex -19.5 -8 -12.5
      vertex -1.13886 -2.55793 -12.5
    endloop
  endfacet
  facet normal -0 0 -1
    outer loop
      vertex -0.582152 -2.73881 -12.5
      vertex -19.5 -8 -12.5
      vertex -0.865247 -2.66296 -12.5
    endloop
  endfacet
  facet normal -0 0 -1
    outer loop
      vertex -0.292679 -2.78466 -12.5
      vertex -19.5 -8 -12.5
      vertex -0.582152 -2.73881 -12.5
    endloop
  endfacet
  facet normal 0 0 -1
    outer loop
      vertex 2.78466 0.292679 -12.5
      vertex 19.5 8 -12.5
      vertex 2.8 0 -12.5
    endloop
  endfacet
  facet normal 0 0 -1
    outer loop
      vertex 2.73881 0.582152 -12.5
      vertex 19.5 8 -12.5
      vertex 2.78466 0.292679 -12.5
    endloop
  endfacet
  facet normal 0 0 -1
    outer loop
      vertex 2.66296 0.865247 -12.5
      vertex 19.5 8 -12.5
      vertex 2.73881 0.582152 -12.5
    endloop
  endfacet
  facet normal 0 0 -1
    outer loop
      vertex 2.55793 1.13886 -12.5
      vertex 19.5 8 -12.5
      vertex 2.66296 0.865247 -12.5
    endloop
  endfacet
  facet normal 0 0 -1
    outer loop
      vertex 2.42487 1.4 -12.5
      vertex 19.5 8 -12.5
      vertex 2.55793 1.13886 -12.5
    endloop
  endfacet
  facet normal 0 0 -1
    outer loop
      vertex 2.26525 1.6458 -12.5
      vertex 19.5 8 -12.5
      vertex 2.42487 1.4 -12.5
    endloop
  endfacet
  facet normal 0 0 -1
    outer loop
      vertex 2.0808 1.87357 -12.5
      vertex 19.5 8 -12.5
      vertex 2.26525 1.6458 -12.5
    endloop
  endfacet
  facet normal 0 0 -1
    outer loop
      vertex 1.87357 2.0808 -12.5
      vertex 19.5 8 -12.5
      vertex 2.0808 1.87357 -12.5
    endloop
  endfacet
  facet normal 0 0 -1
    outer loop
      vertex 1.6458 2.26525 -12.5
      vertex 19.5 8 -12.5
      vertex 1.87357 2.0808 -12.5
    endloop
  endfacet
  facet normal 0 0 -1
    outer loop
      vertex 1.4 2.42487 -12.5
      vertex 19.5 8 -12.5
      vertex 1.6458 2.26525 -12.5
    endloop
  endfacet
  facet normal 0 0 -1
    outer loop
      vertex 1.13886 2.55793 -12.5
      vertex 19.5 8 -12.5
      vertex 1.4 2.42487 -12.5
    endloop
  endfacet
  facet normal 0 0 -1
    outer loop
      vertex 0.865247 2.66296 -12.5
      vertex 19.5 8 -12.5
      vertex 1.13886 2.55793 -12.5
    endloop
  endfacet
  facet normal 0 0 -1
    outer loop
      vertex 0.582152 2.73881 -12.5
      vertex 19.5 8 -12.5
      vertex 0.865247 2.66296 -12.5
    endloop
  endfacet
  facet normal 0 0 -1
    outer loop
      vertex 0.292679 2.78466 -12.5
      vertex 19.5 8 -12.5
      vertex 0.582152 2.73881 -12.5
    endloop
  endfacet
  facet normal 0 0 -1
    outer loop
      vertex 0 2.8 -12.5
      vertex 19.5 8 -12.5
      vertex 0.292679 2.78466 -12.5
    endloop
  endfacet
  facet normal 0 0 -1
    outer loop
      vertex -19.5 8 -12.5
      vertex 0 2.8 -12.5
      vertex -0.292679 2.78466 -12.5
    endloop
  endfacet
  facet normal 0 0 -1
    outer loop
      vertex -19.5 8 -12.5
      vertex -0.292679 2.78466 -12.5
      vertex -0.582152 2.73881 -12.5
    endloop
  endfacet
  facet normal 0 0 -1
    outer loop
      vertex -19.5 8 -12.5
      vertex -2.8 0 -12.5
      vertex -19.5 -8 -12.5
    endloop
  endfacet
  facet normal 0 0 -1
    outer loop
      vertex -2.8 0 -12.5
      vertex -19.5 8 -12.5
      vertex -2.78466 0.292679 -12.5
    endloop
  endfacet
  facet normal 0 0 -1
    outer loop
      vertex -2.78466 0.292679 -12.5
      vertex -19.5 8 -12.5
      vertex -2.73881 0.582152 -12.5
    endloop
  endfacet
  facet normal 0 0 -1
    outer loop
      vertex -2.73881 0.582152 -12.5
      vertex -19.5 8 -12.5
      vertex -2.66296 0.865247 -12.5
    endloop
  endfacet
  facet normal 0 0 -1
    outer loop
      vertex -2.66296 0.865247 -12.5
      vertex -19.5 8 -12.5
      vertex -2.55793 1.13886 -12.5
    endloop
  endfacet
  facet normal 0 0 -1
    outer loop
      vertex -2.55793 1.13886 -12.5
      vertex -19.5 8 -12.5
      vertex -2.42487 1.4 -12.5
    endloop
  endfacet
  facet normal 0 0 -1
    outer loop
      vertex -2.42487 1.4 -12.5
      vertex -19.5 8 -12.5
      vertex -2.26525 1.6458 -12.5
    endloop
  endfacet
  facet normal 0 0 -1
    outer loop
      vertex -2.26525 1.6458 -12.5
      vertex -19.5 8 -12.5
      vertex -2.0808 1.87357 -12.5
    endloop
  endfacet
  facet normal 0 0 -1
    outer loop
      vertex -2.0808 1.87357 -12.5
      vertex -19.5 8 -12.5
      vertex -1.87357 2.0808 -12.5
    endloop
  endfacet
  facet normal 0 0 -1
    outer loop
      vertex -1.87357 2.0808 -12.5
      vertex -19.5 8 -12.5
      vertex -1.6458 2.26525 -12.5
    endloop
  endfacet
  facet normal 0 0 -1
    outer loop
      vertex 0 2.8 -12.5
      vertex -19.5 8 -12.5
      vertex 19.5 8 -12.5
    endloop
  endfacet
  facet normal 0 0 -1
    outer loop
      vertex -0.865247 2.66296 -12.5
      vertex -19.5 8 -12.5
      vertex -0.582152 2.73881 -12.5
    endloop
  endfacet
  facet normal 0 0 -1
    outer loop
      vertex -1.13886 2.55793 -12.5
      vertex -19.5 8 -12.5
      vertex -0.865247 2.66296 -12.5
    endloop
  endfacet
  facet normal 0 0 -1
    outer loop
      vertex -1.4 2.42487 -12.5
      vertex -19.5 8 -12.5
      vertex -1.13886 2.55793 -12.5
    endloop
  endfacet
  facet normal 0 0 -1
    outer loop
      vertex -1.6458 2.26525 -12.5
      vertex -19.5 8 -12.5
      vertex -1.4 2.42487 -12.5
    endloop
  endfacet
  facet normal 1 -0 0
    outer loop
      vertex 19.5 -8 0
      vertex 19.5 8 -12.5
      vertex 19.5 8 0
    endloop
  endfacet
  facet normal 1 0 0
    outer loop
      vertex 19.5 8 -12.5
      vertex 19.5 -8 0
      vertex 19.5 -8 -12.5
    endloop
  endfacet
  facet normal 0 1 -0
    outer loop
      vertex 19.5 8 -12.5
      vertex -19.5 8 0
      vertex 19.5 8 0
    endloop
  endfacet
  facet normal 0 1 0
    outer loop
      vertex -19.5 8 0
      vertex 19.5 8 -12.5
      vertex -19.5 8 -12.5
    endloop
  endfacet
  facet normal 0 -1 0
    outer loop
      vertex -19.5 -8 -12.5
      vertex 19.5 -8 0
      vertex -19.5 -8 0
    endloop
  endfacet
  facet normal 0 -1 -0
    outer loop
      vertex 19.5 -8 0
      vertex -19.5 -8 -12.5
      vertex 19.5 -8 -12.5
    endloop
  endfacet
  facet normal -0.99863 -0.0523336 0
    outer loop
      vertex 2.8 0 -12.5
      vertex 2.78466 0.292679 -11.25
      vertex 2.78466 0.292679 -12.5
    endloop
  endfacet
  facet normal -0.99863 -0.0523336 0
    outer loop
      vertex 2.78466 0.292679 -11.25
      vertex 2.8 0 -12.5
      vertex 2.8 0 -11.25
    endloop
  endfacet
  facet normal 0.99863 -0.0523336 0
    outer loop
      vertex -2.8 0 -11.25
      vertex -2.78466 0.292679 -12.5
      vertex -2.78466 0.292679 -11.25
    endloop
  endfacet
  facet normal 0.99863 -0.0523336 0
    outer loop
      vertex -2.78466 0.292679 -12.5
      vertex -2.8 0 -11.25
      vertex -2.8 0 -12.5
    endloop
  endfacet
  facet normal 0.0523336 -0.99863 0
    outer loop
      vertex -0.292679 2.78466 -12.5
      vertex 0 2.8 -11.25
      vertex -0.292679 2.78466 -11.25
    endloop
  endfacet
  facet normal 0.0523336 -0.99863 0
    outer loop
      vertex 0 2.8 -11.25
      vertex -0.292679 2.78466 -12.5
      vertex 0 2.8 -12.5
    endloop
  endfacet
  facet normal -0.0523336 0.99863 0
    outer loop
      vertex 0.292679 -2.78466 -12.5
      vertex 0 -2.8 -11.25
      vertex 0.292679 -2.78466 -11.25
    endloop
  endfacet
  facet normal -0.0523336 0.99863 0
    outer loop
      vertex 0 -2.8 -11.25
      vertex 0.292679 -2.78466 -12.5
      vertex 0 -2.8 -12.5
    endloop
  endfacet
  facet normal -0.629321 -0.777145 0
    outer loop
      vertex 1.6458 2.26525 -12.5
      vertex 1.87357 2.0808 -11.25
      vertex 1.6458 2.26525 -11.25
    endloop
  endfacet
  facet normal -0.629321 -0.777145 -0
    outer loop
      vertex 1.87357 2.0808 -11.25
      vertex 1.6458 2.26525 -12.5
      vertex 1.87357 2.0808 -12.5
    endloop
  endfacet
  facet normal 0.707107 -0.707107 0
    outer loop
      vertex -2.0808 1.87357 -11.25
      vertex -1.87357 2.0808 -12.5
      vertex -1.87357 2.0808 -11.25
    endloop
  endfacet
  facet normal 0.707107 -0.707107 0
    outer loop
      vertex -1.87357 2.0808 -12.5
      vertex -2.0808 1.87357 -11.25
      vertex -2.0808 1.87357 -12.5
    endloop
  endfacet
  facet normal 0.358368 -0.93358 0
    outer loop
      vertex -1.13886 2.55793 -12.5
      vertex -0.865247 2.66296 -11.25
      vertex -1.13886 2.55793 -11.25
    endloop
  endfacet
  facet normal 0.358368 -0.93358 0
    outer loop
      vertex -0.865247 2.66296 -11.25
      vertex -1.13886 2.55793 -12.5
      vertex -0.865247 2.66296 -12.5
    endloop
  endfacet
  facet normal -0.891006 -0.453991 0
    outer loop
      vertex 2.55793 1.13886 -12.5
      vertex 2.42487 1.4 -11.25
      vertex 2.42487 1.4 -12.5
    endloop
  endfacet
  facet normal -0.891006 -0.453991 0
    outer loop
      vertex 2.42487 1.4 -11.25
      vertex 2.55793 1.13886 -12.5
      vertex 2.55793 1.13886 -11.25
    endloop
  endfacet
  facet normal -0.358368 -0.93358 0
    outer loop
      vertex 0.865247 2.66296 -12.5
      vertex 1.13886 2.55793 -11.25
      vertex 0.865247 2.66296 -11.25
    endloop
  endfacet
  facet normal -0.358368 -0.93358 -0
    outer loop
      vertex 1.13886 2.55793 -11.25
      vertex 0.865247 2.66296 -12.5
      vertex 1.13886 2.55793 -12.5
    endloop
  endfacet
  facet normal -0.453991 -0.891006 0
    outer loop
      vertex 1.13886 2.55793 -12.5
      vertex 1.4 2.42487 -11.25
      vertex 1.13886 2.55793 -11.25
    endloop
  endfacet
  facet normal -0.453991 -0.891006 -0
    outer loop
      vertex 1.4 2.42487 -11.25
      vertex 1.13886 2.55793 -12.5
      vertex 1.4 2.42487 -12.5
    endloop
  endfacet
  facet normal 0.93358 -0.358368 0
    outer loop
      vertex -2.66296 0.865247 -11.25
      vertex -2.55793 1.13886 -12.5
      vertex -2.55793 1.13886 -11.25
    endloop
  endfacet
  facet normal 0.93358 -0.358368 0
    outer loop
      vertex -2.55793 1.13886 -12.5
      vertex -2.66296 0.865247 -11.25
      vertex -2.66296 0.865247 -12.5
    endloop
  endfacet
  facet normal 0.258817 -0.965926 0
    outer loop
      vertex -0.865247 2.66296 -12.5
      vertex -0.582152 2.73881 -11.25
      vertex -0.865247 2.66296 -11.25
    endloop
  endfacet
  facet normal 0.258817 -0.965926 0
    outer loop
      vertex -0.582152 2.73881 -11.25
      vertex -0.865247 2.66296 -12.5
      vertex -0.582152 2.73881 -12.5
    endloop
  endfacet
  facet normal -0.891006 0.453991 0
    outer loop
      vertex 2.42487 -1.4 -12.5
      vertex 2.55793 -1.13886 -11.25
      vertex 2.55793 -1.13886 -12.5
    endloop
  endfacet
  facet normal -0.891006 0.453991 0
    outer loop
      vertex 2.55793 -1.13886 -11.25
      vertex 2.42487 -1.4 -12.5
      vertex 2.42487 -1.4 -11.25
    endloop
  endfacet
  facet normal 0.777145 0.629321 0
    outer loop
      vertex -2.0808 -1.87357 -11.25
      vertex -2.26525 -1.6458 -12.5
      vertex -2.26525 -1.6458 -11.25
    endloop
  endfacet
  facet normal 0.777145 0.629321 0
    outer loop
      vertex -2.26525 -1.6458 -12.5
      vertex -2.0808 -1.87357 -11.25
      vertex -2.0808 -1.87357 -12.5
    endloop
  endfacet
  facet normal -0.453991 0.891006 0
    outer loop
      vertex 1.4 -2.42487 -12.5
      vertex 1.13886 -2.55793 -11.25
      vertex 1.4 -2.42487 -11.25
    endloop
  endfacet
  facet normal -0.453991 0.891006 0
    outer loop
      vertex 1.13886 -2.55793 -11.25
      vertex 1.4 -2.42487 -12.5
      vertex 1.13886 -2.55793 -12.5
    endloop
  endfacet
  facet normal -0.965926 -0.258817 0
    outer loop
      vertex 2.73881 0.582152 -12.5
      vertex 2.66296 0.865247 -11.25
      vertex 2.66296 0.865247 -12.5
    endloop
  endfacet
  facet normal -0.965926 -0.258817 0
    outer loop
      vertex 2.66296 0.865247 -11.25
      vertex 2.73881 0.582152 -12.5
      vertex 2.73881 0.582152 -11.25
    endloop
  endfacet
  facet normal -0.987688 -0.156437 0
    outer loop
      vertex 2.78466 0.292679 -12.5
      vertex 2.73881 0.582152 -11.25
      vertex 2.73881 0.582152 -12.5
    endloop
  endfacet
  facet normal -0.987688 -0.156437 0
    outer loop
      vertex 2.73881 0.582152 -11.25
      vertex 2.78466 0.292679 -12.5
      vertex 2.78466 0.292679 -11.25
    endloop
  endfacet
  facet normal -0.93358 -0.358368 0
    outer loop
      vertex 2.66296 0.865247 -12.5
      vertex 2.55793 1.13886 -11.25
      vertex 2.55793 1.13886 -12.5
    endloop
  endfacet
  facet normal -0.93358 -0.358368 0
    outer loop
      vertex 2.55793 1.13886 -11.25
      vertex 2.66296 0.865247 -12.5
      vertex 2.66296 0.865247 -11.25
    endloop
  endfacet
  facet normal -0.777145 -0.629321 0
    outer loop
      vertex 2.26525 1.6458 -12.5
      vertex 2.0808 1.87357 -11.25
      vertex 2.0808 1.87357 -12.5
    endloop
  endfacet
  facet normal -0.777145 -0.629321 0
    outer loop
      vertex 2.0808 1.87357 -11.25
      vertex 2.26525 1.6458 -12.5
      vertex 2.26525 1.6458 -11.25
    endloop
  endfacet
  facet normal -0.707107 -0.707107 0
    outer loop
      vertex 2.0808 1.87357 -12.5
      vertex 1.87357 2.0808 -11.25
      vertex 1.87357 2.0808 -12.5
    endloop
  endfacet
  facet normal -0.707107 -0.707107 0
    outer loop
      vertex 1.87357 2.0808 -11.25
      vertex 2.0808 1.87357 -12.5
      vertex 2.0808 1.87357 -11.25
    endloop
  endfacet
  facet normal -0.838672 -0.544638 0
    outer loop
      vertex 2.42487 1.4 -12.5
      vertex 2.26525 1.6458 -11.25
      vertex 2.26525 1.6458 -12.5
    endloop
  endfacet
  facet normal -0.838672 -0.544638 0
    outer loop
      vertex 2.26525 1.6458 -11.25
      vertex 2.42487 1.4 -12.5
      vertex 2.42487 1.4 -11.25
    endloop
  endfacet
  facet normal -0.156437 -0.987688 0
    outer loop
      vertex 0.292679 2.78466 -12.5
      vertex 0.582152 2.73881 -11.25
      vertex 0.292679 2.78466 -11.25
    endloop
  endfacet
  facet normal -0.156437 -0.987688 -0
    outer loop
      vertex 0.582152 2.73881 -11.25
      vertex 0.292679 2.78466 -12.5
      vertex 0.582152 2.73881 -12.5
    endloop
  endfacet
  facet normal -0.258817 -0.965926 0
    outer loop
      vertex 0.582152 2.73881 -12.5
      vertex 0.865247 2.66296 -11.25
      vertex 0.582152 2.73881 -11.25
    endloop
  endfacet
  facet normal -0.258817 -0.965926 -0
    outer loop
      vertex 0.865247 2.66296 -11.25
      vertex 0.582152 2.73881 -12.5
      vertex 0.865247 2.66296 -12.5
    endloop
  endfacet
  facet normal -0.0523336 -0.99863 0
    outer loop
      vertex 0 2.8 -12.5
      vertex 0.292679 2.78466 -11.25
      vertex 0 2.8 -11.25
    endloop
  endfacet
  facet normal -0.0523336 -0.99863 -0
    outer loop
      vertex 0.292679 2.78466 -11.25
      vertex 0 2.8 -12.5
      vertex 0.292679 2.78466 -12.5
    endloop
  endfacet
  facet normal -0.544638 -0.838672 0
    outer loop
      vertex 1.4 2.42487 -12.5
      vertex 1.6458 2.26525 -11.25
      vertex 1.4 2.42487 -11.25
    endloop
  endfacet
  facet normal -0.544638 -0.838672 -0
    outer loop
      vertex 1.6458 2.26525 -11.25
      vertex 1.4 2.42487 -12.5
      vertex 1.6458 2.26525 -12.5
    endloop
  endfacet
  facet normal 0.838672 -0.544638 0
    outer loop
      vertex -2.42487 1.4 -11.25
      vertex -2.26525 1.6458 -12.5
      vertex -2.26525 1.6458 -11.25
    endloop
  endfacet
  facet normal 0.838672 -0.544638 0
    outer loop
      vertex -2.26525 1.6458 -12.5
      vertex -2.42487 1.4 -11.25
      vertex -2.42487 1.4 -12.5
    endloop
  endfacet
  facet normal 0.777145 -0.629321 0
    outer loop
      vertex -2.26525 1.6458 -11.25
      vertex -2.0808 1.87357 -12.5
      vertex -2.0808 1.87357 -11.25
    endloop
  endfacet
  facet normal 0.777145 -0.629321 0
    outer loop
      vertex -2.0808 1.87357 -12.5
      vertex -2.26525 1.6458 -11.25
      vertex -2.26525 1.6458 -12.5
    endloop
  endfacet
  facet normal 0.891006 -0.453991 0
    outer loop
      vertex -2.55793 1.13886 -11.25
      vertex -2.42487 1.4 -12.5
      vertex -2.42487 1.4 -11.25
    endloop
  endfacet
  facet normal 0.891006 -0.453991 0
    outer loop
      vertex -2.42487 1.4 -12.5
      vertex -2.55793 1.13886 -11.25
      vertex -2.55793 1.13886 -12.5
    endloop
  endfacet
  facet normal 0.965926 -0.258817 0
    outer loop
      vertex -2.73881 0.582152 -11.25
      vertex -2.66296 0.865247 -12.5
      vertex -2.66296 0.865247 -11.25
    endloop
  endfacet
  facet normal 0.965926 -0.258817 0
    outer loop
      vertex -2.66296 0.865247 -12.5
      vertex -2.73881 0.582152 -11.25
      vertex -2.73881 0.582152 -12.5
    endloop
  endfacet
  facet normal 0.987688 -0.156437 0
    outer loop
      vertex -2.78466 0.292679 -11.25
      vertex -2.73881 0.582152 -12.5
      vertex -2.73881 0.582152 -11.25
    endloop
  endfacet
  facet normal 0.987688 -0.156437 0
    outer loop
      vertex -2.73881 0.582152 -12.5
      vertex -2.78466 0.292679 -11.25
      vertex -2.78466 0.292679 -12.5
    endloop
  endfacet
  facet normal 0.544638 -0.838672 0
    outer loop
      vertex -1.6458 2.26525 -12.5
      vertex -1.4 2.42487 -11.25
      vertex -1.6458 2.26525 -11.25
    endloop
  endfacet
  facet normal 0.544638 -0.838672 0
    outer loop
      vertex -1.4 2.42487 -11.25
      vertex -1.6458 2.26525 -12.5
      vertex -1.4 2.42487 -12.5
    endloop
  endfacet
  facet normal 0.453991 -0.891006 0
    outer loop
      vertex -1.4 2.42487 -12.5
      vertex -1.13886 2.55793 -11.25
      vertex -1.4 2.42487 -11.25
    endloop
  endfacet
  facet normal 0.453991 -0.891006 0
    outer loop
      vertex -1.13886 2.55793 -11.25
      vertex -1.4 2.42487 -12.5
      vertex -1.13886 2.55793 -12.5
    endloop
  endfacet
  facet normal 0.629321 -0.777145 0
    outer loop
      vertex -1.87357 2.0808 -12.5
      vertex -1.6458 2.26525 -11.25
      vertex -1.87357 2.0808 -11.25
    endloop
  endfacet
  facet normal 0.629321 -0.777145 0
    outer loop
      vertex -1.6458 2.26525 -11.25
      vertex -1.87357 2.0808 -12.5
      vertex -1.6458 2.26525 -12.5
    endloop
  endfacet
  facet normal 0.156437 -0.987688 0
    outer loop
      vertex -0.582152 2.73881 -12.5
      vertex -0.292679 2.78466 -11.25
      vertex -0.582152 2.73881 -11.25
    endloop
  endfacet
  facet normal 0.156437 -0.987688 0
    outer loop
      vertex -0.292679 2.78466 -11.25
      vertex -0.582152 2.73881 -12.5
      vertex -0.292679 2.78466 -12.5
    endloop
  endfacet
  facet normal -0.99863 0.0523336 0
    outer loop
      vertex 2.78466 -0.292679 -12.5
      vertex 2.8 0 -11.25
      vertex 2.8 0 -12.5
    endloop
  endfacet
  facet normal -0.99863 0.0523336 0
    outer loop
      vertex 2.8 0 -11.25
      vertex 2.78466 -0.292679 -12.5
      vertex 2.78466 -0.292679 -11.25
    endloop
  endfacet
  facet normal -0.93358 0.358368 0
    outer loop
      vertex 2.55793 -1.13886 -12.5
      vertex 2.66296 -0.865247 -11.25
      vertex 2.66296 -0.865247 -12.5
    endloop
  endfacet
  facet normal -0.93358 0.358368 0
    outer loop
      vertex 2.66296 -0.865247 -11.25
      vertex 2.55793 -1.13886 -12.5
      vertex 2.55793 -1.13886 -11.25
    endloop
  endfacet
  facet normal 0.99863 0.0523336 0
    outer loop
      vertex -2.78466 -0.292679 -11.25
      vertex -2.8 0 -12.5
      vertex -2.8 0 -11.25
    endloop
  endfacet
  facet normal 0.99863 0.0523336 0
    outer loop
      vertex -2.8 0 -12.5
      vertex -2.78466 -0.292679 -11.25
      vertex -2.78466 -0.292679 -12.5
    endloop
  endfacet
  facet normal -0.544638 0.838672 0
    outer loop
      vertex 1.6458 -2.26525 -12.5
      vertex 1.4 -2.42487 -11.25
      vertex 1.6458 -2.26525 -11.25
    endloop
  endfacet
  facet normal -0.544638 0.838672 0
    outer loop
      vertex 1.4 -2.42487 -11.25
      vertex 1.6458 -2.26525 -12.5
      vertex 1.4 -2.42487 -12.5
    endloop
  endfacet
  facet normal -0.707107 0.707107 0
    outer loop
      vertex 1.87357 -2.0808 -12.5
      vertex 2.0808 -1.87357 -11.25
      vertex 2.0808 -1.87357 -12.5
    endloop
  endfacet
  facet normal -0.707107 0.707107 0
    outer loop
      vertex 2.0808 -1.87357 -11.25
      vertex 1.87357 -2.0808 -12.5
      vertex 1.87357 -2.0808 -11.25
    endloop
  endfacet
  facet normal -0.838672 0.544638 0
    outer loop
      vertex 2.26525 -1.6458 -12.5
      vertex 2.42487 -1.4 -11.25
      vertex 2.42487 -1.4 -12.5
    endloop
  endfacet
  facet normal -0.838672 0.544638 0
    outer loop
      vertex 2.42487 -1.4 -11.25
      vertex 2.26525 -1.6458 -12.5
      vertex 2.26525 -1.6458 -11.25
    endloop
  endfacet
  facet normal -0.987688 0.156437 0
    outer loop
      vertex 2.73881 -0.582152 -12.5
      vertex 2.78466 -0.292679 -11.25
      vertex 2.78466 -0.292679 -12.5
    endloop
  endfacet
  facet normal -0.987688 0.156437 0
    outer loop
      vertex 2.78466 -0.292679 -11.25
      vertex 2.73881 -0.582152 -12.5
      vertex 2.73881 -0.582152 -11.25
    endloop
  endfacet
  facet normal -0.965926 0.258817 0
    outer loop
      vertex 2.66296 -0.865247 -12.5
      vertex 2.73881 -0.582152 -11.25
      vertex 2.73881 -0.582152 -12.5
    endloop
  endfacet
  facet normal -0.965926 0.258817 0
    outer loop
      vertex 2.73881 -0.582152 -11.25
      vertex 2.66296 -0.865247 -12.5
      vertex 2.66296 -0.865247 -11.25
    endloop
  endfacet
  facet normal 0.965926 0.258817 0
    outer loop
      vertex -2.66296 -0.865247 -11.25
      vertex -2.73881 -0.582152 -12.5
      vertex -2.73881 -0.582152 -11.25
    endloop
  endfacet
  facet normal 0.965926 0.258817 0
    outer loop
      vertex -2.73881 -0.582152 -12.5
      vertex -2.66296 -0.865247 -11.25
      vertex -2.66296 -0.865247 -12.5
    endloop
  endfacet
  facet normal 0.987688 0.156437 0
    outer loop
      vertex -2.73881 -0.582152 -11.25
      vertex -2.78466 -0.292679 -12.5
      vertex -2.78466 -0.292679 -11.25
    endloop
  endfacet
  facet normal 0.987688 0.156437 0
    outer loop
      vertex -2.78466 -0.292679 -12.5
      vertex -2.73881 -0.582152 -11.25
      vertex -2.73881 -0.582152 -12.5
    endloop
  endfacet
  facet normal -0.156437 0.987688 0
    outer loop
      vertex 0.582152 -2.73881 -12.5
      vertex 0.292679 -2.78466 -11.25
      vertex 0.582152 -2.73881 -11.25
    endloop
  endfacet
  facet normal -0.156437 0.987688 0
    outer loop
      vertex 0.292679 -2.78466 -11.25
      vertex 0.582152 -2.73881 -12.5
      vertex 0.292679 -2.78466 -12.5
    endloop
  endfacet
  facet normal -0.358368 0.93358 0
    outer loop
      vertex 1.13886 -2.55793 -12.5
      vertex 0.865247 -2.66296 -11.25
      vertex 1.13886 -2.55793 -11.25
    endloop
  endfacet
  facet normal -0.358368 0.93358 0
    outer loop
      vertex 0.865247 -2.66296 -11.25
      vertex 1.13886 -2.55793 -12.5
      vertex 0.865247 -2.66296 -12.5
    endloop
  endfacet
  facet normal -0.629321 0.777145 0
    outer loop
      vertex 1.87357 -2.0808 -12.5
      vertex 1.6458 -2.26525 -11.25
      vertex 1.87357 -2.0808 -11.25
    endloop
  endfacet
  facet normal -0.629321 0.777145 0
    outer loop
      vertex 1.6458 -2.26525 -11.25
      vertex 1.87357 -2.0808 -12.5
      vertex 1.6458 -2.26525 -12.5
    endloop
  endfacet
  facet normal 0.838672 0.544638 0
    outer loop
      vertex -2.26525 -1.6458 -11.25
      vertex -2.42487 -1.4 -12.5
      vertex -2.42487 -1.4 -11.25
    endloop
  endfacet
  facet normal 0.838672 0.544638 0
    outer loop
      vertex -2.42487 -1.4 -12.5
      vertex -2.26525 -1.6458 -11.25
      vertex -2.26525 -1.6458 -12.5
    endloop
  endfacet
  facet normal 0.707107 0.707107 0
    outer loop
      vertex -1.87357 -2.0808 -11.25
      vertex -2.0808 -1.87357 -12.5
      vertex -2.0808 -1.87357 -11.25
    endloop
  endfacet
  facet normal 0.707107 0.707107 0
    outer loop
      vertex -2.0808 -1.87357 -12.5
      vertex -1.87357 -2.0808 -11.25
      vertex -1.87357 -2.0808 -12.5
    endloop
  endfacet
  facet normal 0.93358 0.358368 0
    outer loop
      vertex -2.55793 -1.13886 -11.25
      vertex -2.66296 -0.865247 -12.5
      vertex -2.66296 -0.865247 -11.25
    endloop
  endfacet
  facet normal 0.93358 0.358368 0
    outer loop
      vertex -2.66296 -0.865247 -12.5
      vertex -2.55793 -1.13886 -11.25
      vertex -2.55793 -1.13886 -12.5
    endloop
  endfacet
  facet normal 0 0 -1
    outer loop
      vertex 2.78466 -0.292679 -11.25
      vertex 2.78466 0.292679 -11.25
      vertex 2.8 0 -11.25
    endloop
  endfacet
  facet normal 0 0 -1
    outer loop
      vertex 2.73881 -0.582152 -11.25
      vertex 2.78466 0.292679 -11.25
      vertex 2.78466 -0.292679 -11.25
    endloop
  endfacet
  facet normal 0 0 -1
    outer loop
      vertex 2.73881 -0.582152 -11.25
      vertex 2.73881 0.582152 -11.25
      vertex 2.78466 0.292679 -11.25
    endloop
  endfacet
  facet normal 0 0 -1
    outer loop
      vertex 2.66296 -0.865247 -11.25
      vertex 2.73881 0.582152 -11.25
      vertex 2.73881 -0.582152 -11.25
    endloop
  endfacet
  facet normal 0 0 -1
    outer loop
      vertex 2.66296 -0.865247 -11.25
      vertex 2.66296 0.865247 -11.25
      vertex 2.73881 0.582152 -11.25
    endloop
  endfacet
  facet normal 0 0 -1
    outer loop
      vertex 2.55793 -1.13886 -11.25
      vertex 2.66296 0.865247 -11.25
      vertex 2.66296 -0.865247 -11.25
    endloop
  endfacet
  facet normal 0 0 -1
    outer loop
      vertex 2.55793 -1.13886 -11.25
      vertex 2.55793 1.13886 -11.25
      vertex 2.66296 0.865247 -11.25
    endloop
  endfacet
  facet normal 0 0 -1
    outer loop
      vertex 2.42487 -1.4 -11.25
      vertex 2.55793 1.13886 -11.25
      vertex 2.55793 -1.13886 -11.25
    endloop
  endfacet
  facet normal 0 0 -1
    outer loop
      vertex 2.42487 -1.4 -11.25
      vertex 2.42487 1.4 -11.25
      vertex 2.55793 1.13886 -11.25
    endloop
  endfacet
  facet normal 0 0 -1
    outer loop
      vertex 2.26525 -1.6458 -11.25
      vertex 2.42487 1.4 -11.25
      vertex 2.42487 -1.4 -11.25
    endloop
  endfacet
  facet normal 0 0 -1
    outer loop
      vertex 2.26525 -1.6458 -11.25
      vertex 2.26525 1.6458 -11.25
      vertex 2.42487 1.4 -11.25
    endloop
  endfacet
  facet normal 0 0 -1
    outer loop
      vertex 2.0808 -1.87357 -11.25
      vertex 2.26525 1.6458 -11.25
      vertex 2.26525 -1.6458 -11.25
    endloop
  endfacet
  facet normal 0 0 -1
    outer loop
      vertex 2.0808 -1.87357 -11.25
      vertex 2.0808 1.87357 -11.25
      vertex 2.26525 1.6458 -11.25
    endloop
  endfacet
  facet normal 0 0 -1
    outer loop
      vertex 1.87357 -2.0808 -11.25
      vertex 2.0808 1.87357 -11.25
      vertex 2.0808 -1.87357 -11.25
    endloop
  endfacet
  facet normal 0 0 -1
    outer loop
      vertex 1.87357 -2.0808 -11.25
      vertex 1.87357 2.0808 -11.25
      vertex 2.0808 1.87357 -11.25
    endloop
  endfacet
  facet normal 0 0 -1
    outer loop
      vertex 1.6458 -2.26525 -11.25
      vertex 1.87357 2.0808 -11.25
      vertex 1.87357 -2.0808 -11.25
    endloop
  endfacet
  facet normal 0 0 -1
    outer loop
      vertex 1.6458 -2.26525 -11.25
      vertex 1.6458 2.26525 -11.25
      vertex 1.87357 2.0808 -11.25
    endloop
  endfacet
  facet normal 0 0 -1
    outer loop
      vertex 1.4 -2.42487 -11.25
      vertex 1.6458 2.26525 -11.25
      vertex 1.6458 -2.26525 -11.25
    endloop
  endfacet
  facet normal 0 0 -1
    outer loop
      vertex 1.4 -2.42487 -11.25
      vertex 1.4 2.42487 -11.25
      vertex 1.6458 2.26525 -11.25
    endloop
  endfacet
  facet normal 0 0 -1
    outer loop
      vertex 1.13886 -2.55793 -11.25
      vertex 1.4 2.42487 -11.25
      vertex 1.4 -2.42487 -11.25
    endloop
  endfacet
  facet normal 0 0 -1
    outer loop
      vertex 1.13886 -2.55793 -11.25
      vertex 1.13886 2.55793 -11.25
      vertex 1.4 2.42487 -11.25
    endloop
  endfacet
  facet normal 0 0 -1
    outer loop
      vertex 0.865247 -2.66296 -11.25
      vertex 1.13886 2.55793 -11.25
      vertex 1.13886 -2.55793 -11.25
    endloop
  endfacet
  facet normal 0 0 -1
    outer loop
      vertex 0.865247 -2.66296 -11.25
      vertex 0.865247 2.66296 -11.25
      vertex 1.13886 2.55793 -11.25
    endloop
  endfacet
  facet normal 0 0 -1
    outer loop
      vertex 0.582152 -2.73881 -11.25
      vertex 0.865247 2.66296 -11.25
      vertex 0.865247 -2.66296 -11.25
    endloop
  endfacet
  facet normal 0 0 -1
    outer loop
      vertex 0.582152 -2.73881 -11.25
      vertex 0.582152 2.73881 -11.25
      vertex 0.865247 2.66296 -11.25
    endloop
  endfacet
  facet normal 0 0 -1
    outer loop
      vertex 0.292679 -2.78466 -11.25
      vertex 0.582152 2.73881 -11.25
      vertex 0.582152 -2.73881 -11.25
    endloop
  endfacet
  facet normal 0 0 -1
    outer loop
      vertex 0.292679 -2.78466 -11.25
      vertex 0.292679 2.78466 -11.25
      vertex 0.582152 2.73881 -11.25
    endloop
  endfacet
  facet normal 0 0 -1
    outer loop
      vertex 0 -2.8 -11.25
      vertex 0.292679 2.78466 -11.25
      vertex 0.292679 -2.78466 -11.25
    endloop
  endfacet
  facet normal 0 0 -1
    outer loop
      vertex 0 -2.8 -11.25
      vertex 0 2.8 -11.25
      vertex 0.292679 2.78466 -11.25
    endloop
  endfacet
  facet normal 0 0 -1
    outer loop
      vertex -0.292679 -2.78466 -11.25
      vertex 0 2.8 -11.25
      vertex 0 -2.8 -11.25
    endloop
  endfacet
  facet normal 0 0 -1
    outer loop
      vertex -0.292679 -2.78466 -11.25
      vertex -0.292679 2.78466 -11.25
      vertex 0 2.8 -11.25
    endloop
  endfacet
  facet normal 0 0 -1
    outer loop
      vertex -0.582152 -2.73881 -11.25
      vertex -0.292679 2.78466 -11.25
      vertex -0.292679 -2.78466 -11.25
    endloop
  endfacet
  facet normal 0 0 -1
    outer loop
      vertex -0.582152 -2.73881 -11.25
      vertex -0.582152 2.73881 -11.25
      vertex -0.292679 2.78466 -11.25
    endloop
  endfacet
  facet normal 0 0 -1
    outer loop
      vertex -0.865247 -2.66296 -11.25
      vertex -0.582152 2.73881 -11.25
      vertex -0.582152 -2.73881 -11.25
    endloop
  endfacet
  facet normal 0 0 -1
    outer loop
      vertex -0.865247 -2.66296 -11.25
      vertex -0.865247 2.66296 -11.25
      vertex -0.582152 2.73881 -11.25
    endloop
  endfacet
  facet normal 0 0 -1
    outer loop
      vertex -1.13886 -2.55793 -11.25
      vertex -0.865247 2.66296 -11.25
      vertex -0.865247 -2.66296 -11.25
    endloop
  endfacet
  facet normal 0 0 -1
    outer loop
      vertex -1.13886 -2.55793 -11.25
      vertex -1.13886 2.55793 -11.25
      vertex -0.865247 2.66296 -11.25
    endloop
  endfacet
  facet normal 0 0 -1
    outer loop
      vertex -1.4 -2.42487 -11.25
      vertex -1.13886 2.55793 -11.25
      vertex -1.13886 -2.55793 -11.25
    endloop
  endfacet
  facet normal 0 0 -1
    outer loop
      vertex -1.4 -2.42487 -11.25
      vertex -1.4 2.42487 -11.25
      vertex -1.13886 2.55793 -11.25
    endloop
  endfacet
  facet normal 0 0 -1
    outer loop
      vertex -1.6458 -2.26525 -11.25
      vertex -1.4 2.42487 -11.25
      vertex -1.4 -2.42487 -11.25
    endloop
  endfacet
  facet normal 0 0 -1
    outer loop
      vertex -1.6458 -2.26525 -11.25
      vertex -1.6458 2.26525 -11.25
      vertex -1.4 2.42487 -11.25
    endloop
  endfacet
  facet normal 0 0 -1
    outer loop
      vertex -1.87357 -2.0808 -11.25
      vertex -1.6458 2.26525 -11.25
      vertex -1.6458 -2.26525 -11.25
    endloop
  endfacet
  facet normal 0 0 -1
    outer loop
      vertex -1.87357 -2.0808 -11.25
      vertex -1.87357 2.0808 -11.25
      vertex -1.6458 2.26525 -11.25
    endloop
  endfacet
  facet normal 0 0 -1
    outer loop
      vertex -2.0808 -1.87357 -11.25
      vertex -1.87357 2.0808 -11.25
      vertex -1.87357 -2.0808 -11.25
    endloop
  endfacet
  facet normal 0 0 -1
    outer loop
      vertex -2.0808 -1.87357 -11.25
      vertex -2.0808 1.87357 -11.25
      vertex -1.87357 2.0808 -11.25
    endloop
  endfacet
  facet normal 0 0 -1
    outer loop
      vertex -2.26525 -1.6458 -11.25
      vertex -2.0808 1.87357 -11.25
      vertex -2.0808 -1.87357 -11.25
    endloop
  endfacet
  facet normal 0 0 -1
    outer loop
      vertex -2.26525 -1.6458 -11.25
      vertex -2.26525 1.6458 -11.25
      vertex -2.0808 1.87357 -11.25
    endloop
  endfacet
  facet normal 0 0 -1
    outer loop
      vertex -2.42487 -1.4 -11.25
      vertex -2.26525 1.6458 -11.25
      vertex -2.26525 -1.6458 -11.25
    endloop
  endfacet
  facet normal 0 0 -1
    outer loop
      vertex -2.42487 -1.4 -11.25
      vertex -2.42487 1.4 -11.25
      vertex -2.26525 1.6458 -11.25
    endloop
  endfacet
  facet normal 0 0 -1
    outer loop
      vertex -2.55793 -1.13886 -11.25
      vertex -2.42487 1.4 -11.25
      vertex -2.42487 -1.4 -11.25
    endloop
  endfacet
  facet normal 0 0 -1
    outer loop
      vertex -2.55793 -1.13886 -11.25
      vertex -2.55793 1.13886 -11.25
      vertex -2.42487 1.4 -11.25
    endloop
  endfacet
  facet normal 0 0 -1
    outer loop
      vertex -2.66296 -0.865247 -11.25
      vertex -2.55793 1.13886 -11.25
      vertex -2.55793 -1.13886 -11.25
    endloop
  endfacet
  facet normal 0 0 -1
    outer loop
      vertex -2.66296 -0.865247 -11.25
      vertex -2.66296 0.865247 -11.25
      vertex -2.55793 1.13886 -11.25
    endloop
  endfacet
  facet normal 0 0 -1
    outer loop
      vertex -2.73881 -0.582152 -11.25
      vertex -2.66296 0.865247 -11.25
      vertex -2.66296 -0.865247 -11.25
    endloop
  endfacet
  facet normal 0 0 -1
    outer loop
      vertex -2.73881 -0.582152 -11.25
      vertex -2.73881 0.582152 -11.25
      vertex -2.66296 0.865247 -11.25
    endloop
  endfacet
  facet normal 0 0 -1
    outer loop
      vertex -2.78466 -0.292679 -11.25
      vertex -2.73881 0.582152 -11.25
      vertex -2.73881 -0.582152 -11.25
    endloop
  endfacet
  facet normal 0 0 -1
    outer loop
      vertex -2.78466 -0.292679 -11.25
      vertex -2.78466 0.292679 -11.25
      vertex -2.73881 0.582152 -11.25
    endloop
  endfacet
  facet normal 0 -0 -1
    outer loop
      vertex -2.78466 0.292679 -11.25
      vertex -2.78466 -0.292679 -11.25
      vertex -2.8 0 -11.25
    endloop
  endfacet
  facet normal -0.258817 0.965926 0
    outer loop
      vertex 0.865247 -2.66296 -12.5
      vertex 0.582152 -2.73881 -11.25
      vertex 0.865247 -2.66296 -11.25
    endloop
  endfacet
  facet normal -0.258817 0.965926 0
    outer loop
      vertex 0.582152 -2.73881 -11.25
      vertex 0.865247 -2.66296 -12.5
      vertex 0.582152 -2.73881 -12.5
    endloop
  endfacet
  facet normal -0.777145 0.629321 0
    outer loop
      vertex 2.0808 -1.87357 -12.5
      vertex 2.26525 -1.6458 -11.25
      vertex 2.26525 -1.6458 -12.5
    endloop
  endfacet
  facet normal -0.777145 0.629321 0
    outer loop
      vertex 2.26525 -1.6458 -11.25
      vertex 2.0808 -1.87357 -12.5
      vertex 2.0808 -1.87357 -11.25
    endloop
  endfacet
  facet normal 0.629321 0.777145 -0
    outer loop
      vertex -1.6458 -2.26525 -12.5
      vertex -1.87357 -2.0808 -11.25
      vertex -1.6458 -2.26525 -11.25
    endloop
  endfacet
  facet normal 0.629321 0.777145 0
    outer loop
      vertex -1.87357 -2.0808 -11.25
      vertex -1.6458 -2.26525 -12.5
      vertex -1.87357 -2.0808 -12.5
    endloop
  endfacet
  facet normal 0.258817 0.965926 -0
    outer loop
      vertex -0.582152 -2.73881 -12.5
      vertex -0.865247 -2.66296 -11.25
      vertex -0.582152 -2.73881 -11.25
    endloop
  endfacet
  facet normal 0.258817 0.965926 0
    outer loop
      vertex -0.865247 -2.66296 -11.25
      vertex -0.582152 -2.73881 -12.5
      vertex -0.865247 -2.66296 -12.5
    endloop
  endfacet
  facet normal 0.156437 0.987688 -0
    outer loop
      vertex -0.292679 -2.78466 -12.5
      vertex -0.582152 -2.73881 -11.25
      vertex -0.292679 -2.78466 -11.25
    endloop
  endfacet
  facet normal 0.156437 0.987688 0
    outer loop
      vertex -0.582152 -2.73881 -11.25
      vertex -0.292679 -2.78466 -12.5
      vertex -0.582152 -2.73881 -12.5
    endloop
  endfacet
  facet normal 0.0523336 0.99863 -0
    outer loop
      vertex 0 -2.8 -12.5
      vertex -0.292679 -2.78466 -11.25
      vertex 0 -2.8 -11.25
    endloop
  endfacet
  facet normal 0.0523336 0.99863 0
    outer loop
      vertex -0.292679 -2.78466 -11.25
      vertex 0 -2.8 -12.5
      vertex -0.292679 -2.78466 -12.5
    endloop
  endfacet
  facet normal 0.891006 0.453991 0
    outer loop
      vertex -2.42487 -1.4 -11.25
      vertex -2.55793 -1.13886 -12.5
      vertex -2.55793 -1.13886 -11.25
    endloop
  endfacet
  facet normal 0.891006 0.453991 0
    outer loop
      vertex -2.55793 -1.13886 -12.5
      vertex -2.42487 -1.4 -11.25
      vertex -2.42487 -1.4 -12.5
    endloop
  endfacet
  facet normal 0.544638 0.838672 -0
    outer loop
      vertex -1.4 -2.42487 -12.5
      vertex -1.6458 -2.26525 -11.25
      vertex -1.4 -2.42487 -11.25
    endloop
  endfacet
  facet normal 0.544638 0.838672 0
    outer loop
      vertex -1.6458 -2.26525 -11.25
      vertex -1.4 -2.42487 -12.5
      vertex -1.6458 -2.26525 -12.5
    endloop
  endfacet
  facet normal 0.358368 0.93358 -0
    outer loop
      vertex -0.865247 -2.66296 -12.5
      vertex -1.13886 -2.55793 -11.25
      vertex -0.865247 -2.66296 -11.25
    endloop
  endfacet
  facet normal 0.358368 0.93358 0
    outer loop
      vertex -1.13886 -2.55793 -11.25
      vertex -0.865247 -2.66296 -12.5
      vertex -1.13886 -2.55793 -12.5
    endloop
  endfacet
  facet normal 0.453991 0.891006 -0
    outer loop
      vertex -1.13886 -2.55793 -12.5
      vertex -1.4 -2.42487 -11.25
      vertex -1.13886 -2.55793 -11.25
    endloop
  endfacet
  facet normal 0.453991 0.891006 0
    outer loop
      vertex -1.4 -2.42487 -11.25
      vertex -1.13886 -2.55793 -12.5
      vertex -1.4 -2.42487 -12.5
    endloop
  endfacet
endsolid OpenSCAD_Model
