solid OpenSCAD_Model
  facet normal -0.900969 -0.433884 0
    outer loop
      vertex -6 10 -0.0499992
      vertex -6.75302 11.5637 5
      vertex -6.75302 11.5637 -0.0499992
    endloop
  endfacet
  facet normal -0.900969 -0.433884 0
    outer loop
      vertex -6.75302 11.5637 5
      vertex -6 10 -0.0499992
      vertex -6 10 5
    endloop
  endfacet
  facet normal 1 -0 0
    outer loop
      vertex -9.80194 9.13223 5
      vertex -9.80194 10.8678 -0.0499992
      vertex -9.80194 10.8678 5
    endloop
  endfacet
  facet normal 1 0 0
    outer loop
      vertex -9.80194 10.8678 -0.0499992
      vertex -9.80194 9.13223 5
      vertex -9.80194 9.13223 -0.0499992
    endloop
  endfacet
  facet normal -0.222521 -0.974928 0
    outer loop
      vertex -8.44504 11.9499 -0.0499992
      vertex -6.75302 11.5637 5
      vertex -8.44504 11.9499 5
    endloop
  endfacet
  facet normal -0.222521 -0.974928 -0
    outer loop
      vertex -6.75302 11.5637 5
      vertex -8.44504 11.9499 -0.0499992
      vertex -6.75302 11.5637 -0.0499992
    endloop
  endfacet
  facet normal 0.62349 -0.781831 0
    outer loop
      vertex -9.80194 10.8678 -0.0499992
      vertex -8.44504 11.9499 5
      vertex -9.80194 10.8678 5
    endloop
  endfacet
  facet normal 0.62349 -0.781831 0
    outer loop
      vertex -8.44504 11.9499 5
      vertex -9.80194 10.8678 -0.0499992
      vertex -8.44504 11.9499 -0.0499992
    endloop
  endfacet
  facet normal -0.900969 0.433884 0
    outer loop
      vertex -6.75302 8.43634 -0.0499992
      vertex -6 10 5
      vertex -6 10 -0.0499992
    endloop
  endfacet
  facet normal -0.900969 0.433884 0
    outer loop
      vertex -6 10 5
      vertex -6.75302 8.43634 -0.0499992
      vertex -6.75302 8.43634 5
    endloop
  endfacet
  facet normal -0.222521 0.974928 0
    outer loop
      vertex -6.75302 8.43634 -0.0499992
      vertex -8.44504 8.05014 5
      vertex -6.75302 8.43634 5
    endloop
  endfacet
  facet normal -0.222521 0.974928 0
    outer loop
      vertex -8.44504 8.05014 5
      vertex -6.75302 8.43634 -0.0499992
      vertex -8.44504 8.05014 -0.0499992
    endloop
  endfacet
  facet normal 0.62349 0.781831 -0
    outer loop
      vertex -8.44504 8.05014 -0.0499992
      vertex -9.80194 9.13223 5
      vertex -8.44504 8.05014 5
    endloop
  endfacet
  facet normal 0.62349 0.781831 0
    outer loop
      vertex -9.80194 9.13223 5
      vertex -8.44504 8.05014 -0.0499992
      vertex -9.80194 9.13223 -0.0499992
    endloop
  endfacet
  facet normal -0.900969 -0.433884 0
    outer loop
      vertex 10 10 -0.0499992
      vertex 9.24698 11.5637 5
      vertex 9.24698 11.5637 -0.0499992
    endloop
  endfacet
  facet normal -0.900969 -0.433884 0
    outer loop
      vertex 9.24698 11.5637 5
      vertex 10 10 -0.0499992
      vertex 10 10 5
    endloop
  endfacet
  facet normal 1 -0 0
    outer loop
      vertex 6.19806 9.13223 5
      vertex 6.19806 10.8678 -0.0499992
      vertex 6.19806 10.8678 5
    endloop
  endfacet
  facet normal 1 0 0
    outer loop
      vertex 6.19806 10.8678 -0.0499992
      vertex 6.19806 9.13223 5
      vertex 6.19806 9.13223 -0.0499992
    endloop
  endfacet
  facet normal -0.222521 -0.974928 0
    outer loop
      vertex 7.55496 11.9499 -0.0499992
      vertex 9.24698 11.5637 5
      vertex 7.55496 11.9499 5
    endloop
  endfacet
  facet normal -0.222521 -0.974928 -0
    outer loop
      vertex 9.24698 11.5637 5
      vertex 7.55496 11.9499 -0.0499992
      vertex 9.24698 11.5637 -0.0499992
    endloop
  endfacet
  facet normal 0.62349 0.781831 -0
    outer loop
      vertex 7.55496 8.05014 -0.0499992
      vertex 6.19806 9.13223 5
      vertex 7.55496 8.05014 5
    endloop
  endfacet
  facet normal 0.62349 0.781831 0
    outer loop
      vertex 6.19806 9.13223 5
      vertex 7.55496 8.05014 -0.0499992
      vertex 6.19806 9.13223 -0.0499992
    endloop
  endfacet
  facet normal 0.62349 -0.781831 0
    outer loop
      vertex 6.19806 10.8678 -0.0499992
      vertex 7.55496 11.9499 5
      vertex 6.19806 10.8678 5
    endloop
  endfacet
  facet normal 0.62349 -0.781831 0
    outer loop
      vertex 7.55496 11.9499 5
      vertex 6.19806 10.8678 -0.0499992
      vertex 7.55496 11.9499 -0.0499992
    endloop
  endfacet
  facet normal -0.222521 0.974928 0
    outer loop
      vertex 9.24698 8.43634 -0.0499992
      vertex 7.55496 8.05014 5
      vertex 9.24698 8.43634 5
    endloop
  endfacet
  facet normal -0.222521 0.974928 0
    outer loop
      vertex 7.55496 8.05014 5
      vertex 9.24698 8.43634 -0.0499992
      vertex 7.55496 8.05014 -0.0499992
    endloop
  endfacet
  facet normal -0.900969 0.433884 0
    outer loop
      vertex 9.24698 8.43634 -0.0499992
      vertex 10 10 5
      vertex 10 10 -0.0499992
    endloop
  endfacet
  facet normal -0.900969 0.433884 0
    outer loop
      vertex 10 10 5
      vertex 9.24698 8.43634 -0.0499992
      vertex 9.24698 8.43634 5
    endloop
  endfacet
  facet normal -4.51476e-08 -1 6.21404e-08
    outer loop
      vertex -14.4271 -7.5 18.5634
      vertex -15 -7.5 2.8
      vertex -12.9271 -7.5 19.6532
    endloop
  endfacet
  facet normal -1 0 0
    outer loop
      vertex -15 7.5 2.8
      vertex -15 0.5 5
      vertex -15 7.5 5
    endloop
  endfacet
  facet normal -1 0 0
    outer loop
      vertex -15 -2.35317 7.07295
      vertex -15 -7.5 16.8
      vertex -15 -2.35317 16.8
    endloop
  endfacet
  facet normal -1 -0 0
    outer loop
      vertex -15 -2.35317 7.07295
      vertex -15 -7.5 2.8
      vertex -15 -7.5 16.8
    endloop
  endfacet
  facet normal -1 -0 0
    outer loop
      vertex -15 -1.26336 5.57295
      vertex -15 -7.5 2.8
      vertex -15 -2.35317 7.07295
    endloop
  endfacet
  facet normal -1 -0 0
    outer loop
      vertex -15 0.5 5
      vertex -15 -7.5 2.8
      vertex -15 -1.26336 5.57295
    endloop
  endfacet
  facet normal -1 0 0
    outer loop
      vertex -15 -7.5 2.8
      vertex -15 0.5 5
      vertex -15 7.5 2.8
    endloop
  endfacet
  facet normal 0 0 -1
    outer loop
      vertex -12.9271 -7.5 -0.0531693
      vertex 12.9271 7.5 -0.0531693
      vertex 12.9271 -7.5 -0.0531693
    endloop
  endfacet
  facet normal -0 0 -1
    outer loop
      vertex 12.9271 7.5 -0.0531693
      vertex -12.9271 -7.5 -0.0531693
      vertex -12.9271 7.5 -0.0531693
    endloop
  endfacet
  facet normal 0 -1 0
    outer loop
      vertex -12.9271 -7.5 -0.0531693
      vertex 14.4271 -7.5 4.56336
      vertex -15 -7.5 2.8
    endloop
  endfacet
  facet normal 0 -1 0
    outer loop
      vertex -12.9271 -7.5 -0.0531693
      vertex -15 -7.5 2.8
      vertex -14.4271 -7.5 1.03664
    endloop
  endfacet
  facet normal 0 -1 0
    outer loop
      vertex 12.9271 -7.5 -0.0531693
      vertex 14.4271 -7.5 4.56336
      vertex -12.9271 -7.5 -0.0531693
    endloop
  endfacet
  facet normal 0 -1 -0
    outer loop
      vertex 14.4271 -7.5 4.56336
      vertex 12.9271 -7.5 -0.0531693
      vertex 15 -7.5 2.8
    endloop
  endfacet
  facet normal 0 -1 0
    outer loop
      vertex 15 -7.5 2.8
      vertex 12.9271 -7.5 -0.0531693
      vertex 14.4271 -7.5 1.03664
    endloop
  endfacet
  facet normal 0 1 -0
    outer loop
      vertex 12.9271 7.5 -0.0531693
      vertex -12.9274 7.5 -0.0499992
      vertex 12.9274 7.5 -0.0499992
    endloop
  endfacet
  facet normal 0 1 0
    outer loop
      vertex -12.9274 7.5 -0.0499992
      vertex 12.9271 7.5 -0.0531693
      vertex -12.9271 7.5 -0.0531693
    endloop
  endfacet
  facet normal 0 1 0
    outer loop
      vertex -12.9271 7.5 -0.0531693
      vertex -12.9314 7.5 -0.0499992
      vertex -12.9274 7.5 -0.0499992
    endloop
  endfacet
  facet normal -0.951056 0 0.309017
    outer loop
      vertex -15 -7.5 16.8
      vertex -14.4271 -2.35317 18.5634
      vertex -15 -2.35317 16.8
    endloop
  endfacet
  facet normal -0.951056 0 0.309017
    outer loop
      vertex -14.4271 -2.35317 18.5634
      vertex -15 -7.5 16.8
      vertex -14.4271 -7.5 18.5634
    endloop
  endfacet
  facet normal -0.587785 0 0.809017
    outer loop
      vertex -14.4271 -2.35317 18.5634
      vertex -12.9271 -7.5 19.6532
      vertex -12.9271 -2.35317 19.6532
    endloop
  endfacet
  facet normal -0.587785 0 0.809017
    outer loop
      vertex -12.9271 -7.5 19.6532
      vertex -14.4271 -2.35317 18.5634
      vertex -14.4271 -7.5 18.5634
    endloop
  endfacet
  facet normal 0.587785 0 -0.809017
    outer loop
      vertex 14.4271 -7.5 1.03664
      vertex 13.72 -6.36335 0.522949
      vertex 14.4271 -6.73658 1.03664
    endloop
  endfacet
  facet normal 0.587785 1.23599e-07 -0.809017
    outer loop
      vertex 12.9271 -7.5 -0.0531693
      vertex 13.72 -6.36335 0.522949
      vertex 14.4271 -7.5 1.03664
    endloop
  endfacet
  facet normal 0.587785 1.83008e-08 -0.809017
    outer loop
      vertex 12.9271 -7.5 -0.0531693
      vertex 12.9314 -4.6 -0.0499992
      vertex 13.72 -6.36335 0.522949
    endloop
  endfacet
  facet normal 0.587793 0 -0.809011
    outer loop
      vertex 12.9271 7.5 -0.0531693
      vertex 12.9314 -4.6 -0.0499992
      vertex 12.9271 -7.5 -0.0531693
    endloop
  endfacet
  facet normal 0.587793 0 -0.809011
    outer loop
      vertex 12.9314 -4.6 -0.0499992
      vertex 12.9271 7.5 -0.0531693
      vertex 12.9314 7.5 -0.0499992
    endloop
  endfacet
  facet normal 1 0 0
    outer loop
      vertex 15 7.5 2.8
      vertex 15 -7.38462 2.8
      vertex 15 -7.28166 2.8
    endloop
  endfacet
  facet normal 1 0 0
    outer loop
      vertex 15 7.5 2.8
      vertex 15 -7.45317 2.8
      vertex 15 -7.38462 2.8
    endloop
  endfacet
  facet normal 0.951056 -1.57322e-06 -0.309018
    outer loop
      vertex 15 -7.45317 2.8
      vertex 15 -7.5 2.8
      vertex 14.7475 -7.45317 2.02295
    endloop
  endfacet
  facet normal 1 -0 0
    outer loop
      vertex 15 -7.5 2.8
      vertex 15 -7.45317 2.8
      vertex 15 7.5 2.8
    endloop
  endfacet
  facet normal 0.951057 0 -0.309017
    outer loop
      vertex 14.7475 -7.45317 2.02295
      vertex 14.4271 -7.5 1.03664
      vertex 14.4271 -6.73658 1.03664
    endloop
  endfacet
  facet normal 0.951056 9.18875e-06 -0.309017
    outer loop
      vertex 14.4271 -7.5 1.03664
      vertex 14.7475 -7.45317 2.02295
      vertex 15 -7.5 2.8
    endloop
  endfacet
  facet normal -0.587793 0 -0.809011
    outer loop
      vertex -12.9271 -7.5 -0.0531693
      vertex -12.9314 -4.6 -0.0499992
      vertex -12.9271 7.5 -0.0531693
    endloop
  endfacet
  facet normal -0.587785 1.83008e-08 -0.809017
    outer loop
      vertex -12.9271 -7.5 -0.0531693
      vertex -13.72 -6.36335 0.522949
      vertex -12.9314 -4.6 -0.0499992
    endloop
  endfacet
  facet normal -0.587785 1.23599e-07 -0.809017
    outer loop
      vertex -14.4271 -7.5 1.03664
      vertex -13.72 -6.36335 0.522949
      vertex -12.9271 -7.5 -0.0531693
    endloop
  endfacet
  facet normal -0.587785 0 -0.809017
    outer loop
      vertex -13.72 -6.36335 0.522949
      vertex -14.4271 -7.5 1.03664
      vertex -14.4271 -6.73658 1.03664
    endloop
  endfacet
  facet normal -0.587793 0 -0.809011
    outer loop
      vertex -12.9271 7.5 -0.0531693
      vertex -12.9314 -4.6 -0.0499992
      vertex -12.9314 7.5 -0.0499992
    endloop
  endfacet
  facet normal -0.951056 9.18875e-06 -0.309017
    outer loop
      vertex -15 -7.5 2.8
      vertex -14.7475 -7.45317 2.02295
      vertex -14.4271 -7.5 1.03664
    endloop
  endfacet
  facet normal -0.951057 0 -0.309017
    outer loop
      vertex -14.4271 -7.5 1.03664
      vertex -14.7475 -7.45317 2.02295
      vertex -14.4271 -6.73658 1.03664
    endloop
  endfacet
  facet normal -0.928477 0 -0.371391
    outer loop
      vertex -15 -6.56422 2.8
      vertex -15 7.5 2.8
      vertex -15 -5.22903 2.8
    endloop
  endfacet
  facet normal -0.928477 0 -0.371391
    outer loop
      vertex -15 -6.56422 2.8
      vertex -15 -7.5 2.8
      vertex -15 7.5 2.8
    endloop
  endfacet
  facet normal -0.940316 9.12707e-08 -0.340303
    outer loop
      vertex -15 -7.45317 2.8
      vertex -15 -7.5 2.8
      vertex -15 -6.56422 2.8
    endloop
  endfacet
  facet normal -0.951056 2.06202e-06 -0.309018
    outer loop
      vertex -14.7475 -7.45317 2.02295
      vertex -15 -7.5 2.8
      vertex -15 -7.45317 2.8
    endloop
  endfacet
  facet normal 0.587785 0 0.809017
    outer loop
      vertex 12.9271 -2.35317 19.6532
      vertex 14.4271 -7.5 18.5634
      vertex 14.4271 -2.35317 18.5634
    endloop
  endfacet
  facet normal 0.587785 0 0.809017
    outer loop
      vertex 14.4271 -7.5 18.5634
      vertex 12.9271 -2.35317 19.6532
      vertex 12.9271 -7.5 19.6532
    endloop
  endfacet
  facet normal -0 0 1
    outer loop
      vertex -12.9271 -2.35317 19.6532
      vertex 12.9271 -7.5 19.6532
      vertex 12.9271 -2.35317 19.6532
    endloop
  endfacet
  facet normal 0 0 1
    outer loop
      vertex 12.9271 -7.5 19.6532
      vertex -12.9271 -2.35317 19.6532
      vertex -12.9271 -7.5 19.6532
    endloop
  endfacet
  facet normal 0 -1 8.58072e-08
    outer loop
      vertex -12.9271 -7.5 19.6532
      vertex -0.478419 -7.5 14.0961
      vertex 12.9271 -7.5 19.6532
    endloop
  endfacet
  facet normal -2.45577e-08 -1 3.07944e-08
    outer loop
      vertex -0.478419 -7.5 14.0961
      vertex -12.9271 -7.5 19.6532
      vertex -1.44955 -7.5 13.3216
    endloop
  endfacet
  facet normal 1.26306e-08 -1 5.53382e-08
    outer loop
      vertex 1.3405 -7.5 13.6809
      vertex 12.9271 -7.5 19.6532
      vertex -0.478419 -7.5 14.0961
    endloop
  endfacet
  facet normal 3.29703e-08 -1 1.58777e-08
    outer loop
      vertex 2.15 -7.5 12
      vertex 12.9271 -7.5 19.6532
      vertex 1.3405 -7.5 13.6809
    endloop
  endfacet
  facet normal -3.00685e-08 -1 1.44802e-08
    outer loop
      vertex 14.4271 -7.5 4.56336
      vertex 2.15 -7.5 12
      vertex 1.89734 -7.5 11.4753
    endloop
  endfacet
  facet normal -5.93017e-10 -1 6.31409e-08
    outer loop
      vertex 2.15 -7.5 12
      vertex 14.4271 -7.5 4.56336
      vertex 12.9271 -7.5 19.6532
    endloop
  endfacet
  facet normal -2.45577e-08 -1 3.07944e-08
    outer loop
      vertex -12.9271 -7.5 19.6532
      vertex -1.93708 -7.5 12.9328
      vertex -1.44955 -7.5 13.3216
    endloop
  endfacet
  facet normal -4.33884e-08 -1 0
    outer loop
      vertex -12.9271 -7.5 19.6532
      vertex -1.93708 -7.5 11.0671
      vertex -1.93708 -7.5 12.9328
    endloop
  endfacet
  facet normal 7.48955e-10 -1 5.64951e-08
    outer loop
      vertex -15 -7.5 2.8
      vertex -1.93708 -7.5 11.0671
      vertex -12.9271 -7.5 19.6532
    endloop
  endfacet
  facet normal -4.58369e-09 -1 7.64931e-08
    outer loop
      vertex -0.478419 -7.5 9.9039
      vertex -15 -7.5 2.8
      vertex 14.4271 -7.5 4.56336
    endloop
  endfacet
  facet normal 2.03519e-08 -1 2.55205e-08
    outer loop
      vertex -1.93708 -7.5 11.0671
      vertex -15 -7.5 2.8
      vertex -0.478419 -7.5 9.9039
    endloop
  endfacet
  facet normal -3.00685e-08 -1 1.44802e-08
    outer loop
      vertex 1.3405 -7.5 10.3191
      vertex 14.4271 -7.5 4.56336
      vertex 1.89734 -7.5 11.4753
    endloop
  endfacet
  facet normal -1.24488e-08 -1 5.45416e-08
    outer loop
      vertex 14.4271 -7.5 4.56336
      vertex 1.3405 -7.5 10.3191
      vertex -0.478419 -7.5 9.9039
    endloop
  endfacet
  facet normal 2.0965e-07 -1 6.81196e-08
    outer loop
      vertex 15 -7.5 16.8
      vertex 14.4271 -7.5 4.56336
      vertex 15 -7.5 2.8
    endloop
  endfacet
  facet normal 1 0 0
    outer loop
      vertex 15 -2.35317 16.8
      vertex 15 -7.5 16.8
      vertex 15 -2.35317 7.07295
    endloop
  endfacet
  facet normal 1 -0 0
    outer loop
      vertex 15 0.5 5
      vertex 15 7.5 2.8
      vertex 15 7.5 5
    endloop
  endfacet
  facet normal 1 0 0
    outer loop
      vertex 15 0.5 5
      vertex 15 -7.5 2.8
      vertex 15 7.5 2.8
    endloop
  endfacet
  facet normal 1 0 0
    outer loop
      vertex 15 -1.26336 5.57295
      vertex 15 -7.5 2.8
      vertex 15 0.5 5
    endloop
  endfacet
  facet normal 1 0 0
    outer loop
      vertex 15 -2.35317 7.07295
      vertex 15 -7.5 2.8
      vertex 15 -1.26336 5.57295
    endloop
  endfacet
  facet normal 1 0 0
    outer loop
      vertex 15 -7.5 2.8
      vertex 15 -2.35317 7.07295
      vertex 15 -7.5 16.8
    endloop
  endfacet
  facet normal 4.94918e-08 -1 6.81196e-08
    outer loop
      vertex 14.4271 -7.5 18.5634
      vertex 12.9271 -7.5 19.6532
      vertex 14.4271 -7.5 4.56336
    endloop
  endfacet
  facet normal 0 1 0
    outer loop
      vertex 12.9314 7.5 -0.0499992
      vertex 12.9271 7.5 -0.0531693
      vertex 12.9274 7.5 -0.0499992
    endloop
  endfacet
  facet normal -2.0965e-07 -1 6.81196e-08
    outer loop
      vertex -15 -7.5 16.8
      vertex -15 -7.5 2.8
      vertex -14.4271 -7.5 18.5634
    endloop
  endfacet
  facet normal 2.0965e-07 -1 6.81196e-08
    outer loop
      vertex 14.4271 -7.5 18.5634
      vertex 14.4271 -7.5 4.56336
      vertex 15 -7.5 16.8
    endloop
  endfacet
  facet normal 0.951056 -0 0.309017
    outer loop
      vertex 14.4271 -7.5 18.5634
      vertex 15 -2.35317 16.8
      vertex 14.4271 -2.35317 18.5634
    endloop
  endfacet
  facet normal 0.951056 0 0.309017
    outer loop
      vertex 15 -2.35317 16.8
      vertex 14.4271 -7.5 18.5634
      vertex 15 -7.5 16.8
    endloop
  endfacet
  facet normal 0 0 -1
    outer loop
      vertex -12.9314 -4.6 -0.0499992
      vertex -15 -4.6 -0.0499992
      vertex -12.9314 7.5 -0.0499992
    endloop
  endfacet
  facet normal 0 0 -1
    outer loop
      vertex 12.9274 7.5 -0.0499992
      vertex 9.24698 8.43634 -0.0499992
      vertex 10 10 -0.0499992
    endloop
  endfacet
  facet normal 0 0 -1
    outer loop
      vertex 12.9274 7.5 -0.0499992
      vertex 7.55496 8.05014 -0.0499992
      vertex 9.24698 8.43634 -0.0499992
    endloop
  endfacet
  facet normal 0 0 -1
    outer loop
      vertex 6.19806 9.13223 -0.0499992
      vertex -6 10 -0.0499992
      vertex 6.19806 10.8678 -0.0499992
    endloop
  endfacet
  facet normal 0 0 -1
    outer loop
      vertex -6.75302 8.43634 -0.0499992
      vertex 6.19806 9.13223 -0.0499992
      vertex 7.55496 8.05014 -0.0499992
    endloop
  endfacet
  facet normal -0 0 -1
    outer loop
      vertex 6.19806 9.13223 -0.0499992
      vertex -6.75302 8.43634 -0.0499992
      vertex -6 10 -0.0499992
    endloop
  endfacet
  facet normal 0 0 -1
    outer loop
      vertex -12.9274 7.5 -0.0499992
      vertex 7.55496 8.05014 -0.0499992
      vertex 12.9274 7.5 -0.0499992
    endloop
  endfacet
  facet normal 0 0 -1
    outer loop
      vertex 7.55496 8.05014 -0.0499992
      vertex -8.44504 8.05014 -0.0499992
      vertex -6.75302 8.43634 -0.0499992
    endloop
  endfacet
  facet normal -0 0 -1
    outer loop
      vertex -9.80194 9.13223 -0.0499992
      vertex -12.9274 7.5 -0.0499992
      vertex -9.80194 10.8678 -0.0499992
    endloop
  endfacet
  facet normal -0 0 -1
    outer loop
      vertex -8.44504 8.05014 -0.0499992
      vertex -12.9274 7.5 -0.0499992
      vertex -9.80194 9.13223 -0.0499992
    endloop
  endfacet
  facet normal -0 0 -1
    outer loop
      vertex 7.55496 8.05014 -0.0499992
      vertex -12.9274 7.5 -0.0499992
      vertex -8.44504 8.05014 -0.0499992
    endloop
  endfacet
  facet normal 0 0 -1
    outer loop
      vertex 12.9314 7.5 -0.0499992
      vertex 15 -4.6 -0.0499992
      vertex 12.9314 -4.6 -0.0499992
    endloop
  endfacet
  facet normal 0 0 -1
    outer loop
      vertex 15 -4.6 -0.0499992
      vertex 12.9314 7.5 -0.0499992
      vertex 15 16.4 -0.0499992
    endloop
  endfacet
  facet normal 0 0 -1
    outer loop
      vertex 10 10 -0.0499992
      vertex 12.9314 7.5 -0.0499992
      vertex 12.9274 7.5 -0.0499992
    endloop
  endfacet
  facet normal 0 0 -1
    outer loop
      vertex 12.9314 7.5 -0.0499992
      vertex 10 10 -0.0499992
      vertex 15 16.4 -0.0499992
    endloop
  endfacet
  facet normal 0 0 -1
    outer loop
      vertex 9.24698 11.5637 -0.0499992
      vertex 15 16.4 -0.0499992
      vertex 10 10 -0.0499992
    endloop
  endfacet
  facet normal 0 0 -1
    outer loop
      vertex 9.24698 11.5637 -0.0499992
      vertex 9.23898 16.4 -0.0499992
      vertex 15 16.4 -0.0499992
    endloop
  endfacet
  facet normal 0 0 -1
    outer loop
      vertex 7.55496 11.9499 -0.0499992
      vertex 9.23898 16.4 -0.0499992
      vertex 9.24698 11.5637 -0.0499992
    endloop
  endfacet
  facet normal -0 0 -1
    outer loop
      vertex 9.23898 16.4 -0.0499992
      vertex 7.55496 11.9499 -0.0499992
      vertex 7.92705 17.3532 -0.0499992
    endloop
  endfacet
  facet normal 0 0 -1
    outer loop
      vertex 6.19806 10.8678 -0.0499992
      vertex 7.92705 17.3532 -0.0499992
      vertex 7.55496 11.9499 -0.0499992
    endloop
  endfacet
  facet normal 0 0 -1
    outer loop
      vertex -6.75302 11.5637 -0.0499992
      vertex 6.19806 10.8678 -0.0499992
      vertex -6 10 -0.0499992
    endloop
  endfacet
  facet normal 0 0 -1
    outer loop
      vertex 6.19806 10.8678 -0.0499992
      vertex -6.75302 11.5637 -0.0499992
      vertex 7.92705 17.3532 -0.0499992
    endloop
  endfacet
  facet normal 0 0 -1
    outer loop
      vertex -6.75302 11.5637 -0.0499992
      vertex -7.92705 17.3532 -0.0499992
      vertex 7.92705 17.3532 -0.0499992
    endloop
  endfacet
  facet normal 0 0 -1
    outer loop
      vertex -9.23898 16.4 -0.0499992
      vertex -6.75302 11.5637 -0.0499992
      vertex -8.44504 11.9499 -0.0499992
    endloop
  endfacet
  facet normal 0 0 -1
    outer loop
      vertex -6.75302 11.5637 -0.0499992
      vertex -9.23898 16.4 -0.0499992
      vertex -7.92705 17.3532 -0.0499992
    endloop
  endfacet
  facet normal 0 0 -1
    outer loop
      vertex -9.80194 10.8678 -0.0499992
      vertex -9.23898 16.4 -0.0499992
      vertex -8.44504 11.9499 -0.0499992
    endloop
  endfacet
  facet normal 0 0 -1
    outer loop
      vertex -12.9314 7.5 -0.0499992
      vertex -9.80194 10.8678 -0.0499992
      vertex -12.9274 7.5 -0.0499992
    endloop
  endfacet
  facet normal -0 0 -1
    outer loop
      vertex -9.80194 10.8678 -0.0499992
      vertex -12.9314 7.5 -0.0499992
      vertex -15 16.4 -0.0499992
    endloop
  endfacet
  facet normal 0 0 -1
    outer loop
      vertex -9.80194 10.8678 -0.0499992
      vertex -15 16.4 -0.0499992
      vertex -9.23898 16.4 -0.0499992
    endloop
  endfacet
  facet normal 0 0 -1
    outer loop
      vertex -15 16.4 -0.0499992
      vertex -12.9314 7.5 -0.0499992
      vertex -15 -4.6 -0.0499992
    endloop
  endfacet
  facet normal 0 1 -0
    outer loop
      vertex 7.92705 17.3532 -0.0499992
      vertex -7.92705 17.3532 0.259704
      vertex 7.92705 17.3532 0.259704
    endloop
  endfacet
  facet normal 0 1 0
    outer loop
      vertex -7.92705 17.3532 0.259704
      vertex 7.92705 17.3532 -0.0499992
      vertex -7.92705 17.3532 -0.0499992
    endloop
  endfacet
  facet normal -0.587785 0.809017 0
    outer loop
      vertex -7.92705 17.3532 -0.0499992
      vertex -9.23898 16.4 -0.0499992
      vertex -7.92705 17.3532 0.259704
    endloop
  endfacet
  facet normal 0.587785 0.809017 0
    outer loop
      vertex 9.23898 16.4 -0.0499992
      vertex 7.92705 17.3532 -0.0499992
      vertex 7.92705 17.3532 0.259704
    endloop
  endfacet
  facet normal 0 -1 -0
    outer loop
      vertex 15 -7.45317 2.8
      vertex 14.7475 -7.45317 2.02295
      vertex 15 -7.45317 2.02295
    endloop
  endfacet
  facet normal 0 -1 0
    outer loop
      vertex -14.7475 -7.45317 2.02295
      vertex -15 -7.45317 2.8
      vertex -15 -7.45317 2.02295
    endloop
  endfacet
  facet normal -1 0 0
    outer loop
      vertex -15 -4.6 -0.0499992
      vertex -15 7.5 2.8
      vertex -15 16.4 -0.0499992
    endloop
  endfacet
  facet normal -1 -0 0
    outer loop
      vertex -15 7.5 2.8
      vertex -15 -4.6 -0.0499992
      vertex -15 -5.22903 2.8
    endloop
  endfacet
  facet normal -1 0 0
    outer loop
      vertex -15 7.5 2.8
      vertex -15 17.5146 5
      vertex -15 16.4 -0.0499992
    endloop
  endfacet
  facet normal -1 -0 0
    outer loop
      vertex -15 17.5146 5
      vertex -15 7.5 2.8
      vertex -15 7.5 5
    endloop
  endfacet
  facet normal -1 0 0
    outer loop
      vertex -15 18.1634 0.522949
      vertex -15 17.5146 5
      vertex -15 18.5583 5
    endloop
  endfacet
  facet normal -1 0 -0
    outer loop
      vertex -15 17.5146 5
      vertex -15 18.1634 0.522949
      vertex -15 16.4 -0.0499992
    endloop
  endfacet
  facet normal 1 0 0
    outer loop
      vertex 15 19.2532 2.02295
      vertex 15 18.9905 5
      vertex 15 18.5961 5
    endloop
  endfacet
  facet normal 0 1 -0
    outer loop
      vertex 15 19.2532 2.02295
      vertex -15 19.2532 5
      vertex 15 19.2532 5
    endloop
  endfacet
  facet normal 0 1 0
    outer loop
      vertex -15 19.2532 5
      vertex 15 19.2532 2.02295
      vertex -15 19.2532 2.02295
    endloop
  endfacet
  facet normal 0 -0.809017 -0.587785
    outer loop
      vertex 14.4271 -6.73658 1.03664
      vertex 15 -7.45317 2.02295
      vertex 14.7475 -7.45317 2.02295
    endloop
  endfacet
  facet normal 2.40852e-07 -0.809017 -0.587785
    outer loop
      vertex 14.4271 -6.73658 1.03664
      vertex 15 -6.36335 0.522949
      vertex 15 -7.45317 2.02295
    endloop
  endfacet
  facet normal -0 -0.809017 -0.587786
    outer loop
      vertex 15 -6.36335 0.522949
      vertex 14.4271 -6.73658 1.03664
      vertex 13.72 -6.36335 0.522949
    endloop
  endfacet
  facet normal 0 -0.809017 -0.587785
    outer loop
      vertex -15 -7.45317 2.02295
      vertex -14.4271 -6.73658 1.03664
      vertex -14.7475 -7.45317 2.02295
    endloop
  endfacet
  facet normal -2.40853e-07 -0.809017 -0.587785
    outer loop
      vertex -15 -6.36335 0.522949
      vertex -14.4271 -6.73658 1.03664
      vertex -15 -7.45317 2.02295
    endloop
  endfacet
  facet normal 0 -0.809017 -0.587786
    outer loop
      vertex -14.4271 -6.73658 1.03664
      vertex -15 -6.36335 0.522949
      vertex -13.72 -6.36335 0.522949
    endloop
  endfacet
  facet normal 1 0 -0
    outer loop
      vertex 15 19.2532 2.02295
      vertex 15 19.2532 5
      vertex 15 18.9905 5
    endloop
  endfacet
  facet normal 0 0.309017 -0.951057
    outer loop
      vertex 9.23898 16.4 -0.0499992
      vertex 15 18.1634 0.522949
      vertex 15 16.4 -0.0499992
    endloop
  endfacet
  facet normal -6.77405e-08 0.309017 -0.951057
    outer loop
      vertex 7.92705 17.3532 0.259704
      vertex 15 18.1634 0.522949
      vertex 9.23898 16.4 -0.0499992
    endloop
  endfacet
  facet normal 0 0.309016 -0.951057
    outer loop
      vertex -7.92705 17.3532 0.259704
      vertex 15 18.1634 0.522949
      vertex 7.92705 17.3532 0.259704
    endloop
  endfacet
  facet normal 0 0.309017 -0.951057
    outer loop
      vertex -15 18.1634 0.522949
      vertex -9.23898 16.4 -0.0499992
      vertex -15 16.4 -0.0499992
    endloop
  endfacet
  facet normal 0 0.309016 -0.951057
    outer loop
      vertex -7.92705 17.3532 0.259704
      vertex -15 18.1634 0.522949
      vertex 15 18.1634 0.522949
    endloop
  endfacet
  facet normal 6.77406e-08 0.309017 -0.951057
    outer loop
      vertex -9.23898 16.4 -0.0499992
      vertex -15 18.1634 0.522949
      vertex -7.92705 17.3532 0.259704
    endloop
  endfacet
  facet normal 0 0.809017 -0.587786
    outer loop
      vertex 15 18.1634 0.522949
      vertex -15 19.2532 2.02295
      vertex 15 19.2532 2.02295
    endloop
  endfacet
  facet normal 0 0.809017 -0.587786
    outer loop
      vertex -15 19.2532 2.02295
      vertex 15 18.1634 0.522949
      vertex -15 18.1634 0.522949
    endloop
  endfacet
  facet normal -1 0 0
    outer loop
      vertex -15 19.2532 2.02295
      vertex -15 18.5583 5
      vertex -15 19.2532 5
    endloop
  endfacet
  facet normal -1 0 -0
    outer loop
      vertex -15 18.5583 5
      vertex -15 19.2532 2.02295
      vertex -15 18.1634 0.522949
    endloop
  endfacet
  facet normal 1 0 0
    outer loop
      vertex 15 19.2532 2.02295
      vertex 15 16.4 -0.0499992
      vertex 15 18.1634 0.522949
    endloop
  endfacet
  facet normal 1 0 0
    outer loop
      vertex 15 19.2532 2.02295
      vertex 15 -4.6 -0.0499992
      vertex 15 16.4 -0.0499992
    endloop
  endfacet
  facet normal 1 -0 0
    outer loop
      vertex 15 -7.45317 2.02295
      vertex 15 -4.6 -0.0499992
      vertex 15 19.2532 2.02295
    endloop
  endfacet
  facet normal 1 0 0
    outer loop
      vertex 15 -4.6 -0.0499992
      vertex 15 -7.45317 2.02295
      vertex 15 -6.36335 0.522949
    endloop
  endfacet
  facet normal 1 0 0
    outer loop
      vertex 15 -7.28166 2.8
      vertex 15 -7.38462 2.8
      vertex 15 -7.45317 2.02295
    endloop
  endfacet
  facet normal 1 0 0
    outer loop
      vertex 15 7.5 2.8
      vertex 15 18.5961 5
      vertex 15 7.5 5
    endloop
  endfacet
  facet normal 1 0 0
    outer loop
      vertex 15 18.5961 5
      vertex 15 7.5 2.8
      vertex 15 19.2532 2.02295
    endloop
  endfacet
  facet normal 1 0 0
    outer loop
      vertex 15 -7.45317 2.02295
      vertex 15 7.5 2.8
      vertex 15 -7.28166 2.8
    endloop
  endfacet
  facet normal 1 0 0
    outer loop
      vertex 15 7.5 2.8
      vertex 15 -7.45317 2.02295
      vertex 15 19.2532 2.02295
    endloop
  endfacet
  facet normal -1 0 0
    outer loop
      vertex -15 -7.45317 2.02295
      vertex -15 -6.56422 2.8
      vertex -15 -6.36335 0.522949
    endloop
  endfacet
  facet normal -1 0 0
    outer loop
      vertex -15 -6.56422 2.8
      vertex -15 -7.45317 2.02295
      vertex -15 -7.45317 2.8
    endloop
  endfacet
  facet normal -1 0 0
    outer loop
      vertex -15 -6.36335 0.522949
      vertex -15 -5.22903 2.8
      vertex -15 -4.6 -0.0499992
    endloop
  endfacet
  facet normal -1 -0 0
    outer loop
      vertex -15 -5.22903 2.8
      vertex -15 -6.36335 0.522949
      vertex -15 -6.56422 2.8
    endloop
  endfacet
  facet normal 1 0 0
    outer loop
      vertex 15 -7.38462 2.8
      vertex 15 -7.45317 2.8
      vertex 15 -7.45317 2.02295
    endloop
  endfacet
  facet normal 0 -0.309017 -0.951057
    outer loop
      vertex -15 -4.6 -0.0499992
      vertex -13.72 -6.36335 0.522949
      vertex -15 -6.36335 0.522949
    endloop
  endfacet
  facet normal 0 -0.309017 -0.951057
    outer loop
      vertex -13.72 -6.36335 0.522949
      vertex -15 -4.6 -0.0499992
      vertex -12.9314 -4.6 -0.0499992
    endloop
  endfacet
  facet normal 0 -0.309017 -0.951057
    outer loop
      vertex 13.72 -6.36335 0.522949
      vertex 15 -4.6 -0.0499992
      vertex 15 -6.36335 0.522949
    endloop
  endfacet
  facet normal -0 -0.309017 -0.951057
    outer loop
      vertex 15 -4.6 -0.0499992
      vertex 13.72 -6.36335 0.522949
      vertex 12.9314 -4.6 -0.0499992
    endloop
  endfacet
  facet normal -0.900969 0 -0.433884
    outer loop
      vertex 2.15 -7.5 12
      vertex 1.3405 -2.35317 13.6809
      vertex 2.15 -2.35317 12
    endloop
  endfacet
  facet normal -0.900969 -0 -0.433884
    outer loop
      vertex 1.3405 -2.35317 13.6809
      vertex 2.15 -7.5 12
      vertex 1.3405 -7.5 13.6809
    endloop
  endfacet
  facet normal -0.222521 0 -0.974928
    outer loop
      vertex -0.478419 -7.5 14.0961
      vertex 1.3405 -2.35317 13.6809
      vertex 1.3405 -7.5 13.6809
    endloop
  endfacet
  facet normal -0.222521 0 -0.974928
    outer loop
      vertex 1.3405 -2.35317 13.6809
      vertex -0.478419 -7.5 14.0961
      vertex -0.478419 -2.35317 14.0961
    endloop
  endfacet
  facet normal 1 -0 0
    outer loop
      vertex -1.93708 -7.5 12.9328
      vertex -1.93708 -2.35317 11.0671
      vertex -1.93708 -2.35317 12.9328
    endloop
  endfacet
  facet normal 1 0 0
    outer loop
      vertex -1.93708 -2.35317 11.0671
      vertex -1.93708 -7.5 12.9328
      vertex -1.93708 -7.5 11.0671
    endloop
  endfacet
  facet normal 0.62349 0 -0.781832
    outer loop
      vertex -1.44955 -7.5 13.3216
      vertex -0.478419 -2.35317 14.0961
      vertex -0.478419 -7.5 14.0961
    endloop
  endfacet
  facet normal 0.623489 0 -0.781832
    outer loop
      vertex -1.93708 -2.35317 12.9328
      vertex -1.44955 -7.5 13.3216
      vertex -1.93708 -7.5 12.9328
    endloop
  endfacet
  facet normal 0.62349 1.98576e-08 -0.781832
    outer loop
      vertex -1.44955 -7.5 13.3216
      vertex -1.93708 -2.35317 12.9328
      vertex -0.478419 -2.35317 14.0961
    endloop
  endfacet
  facet normal -0.900969 0 0.433884
    outer loop
      vertex 1.89734 -7.5 11.4753
      vertex 1.3405 -2.35317 10.3191
      vertex 1.3405 -7.5 10.3191
    endloop
  endfacet
  facet normal -0.900969 3.57881e-08 0.433884
    outer loop
      vertex 1.3405 -2.35317 10.3191
      vertex 1.89734 -7.5 11.4753
      vertex 2.15 -2.35317 12
    endloop
  endfacet
  facet normal -0.900969 0 0.433884
    outer loop
      vertex 2.15 -2.35317 12
      vertex 1.89734 -7.5 11.4753
      vertex 2.15 -7.5 12
    endloop
  endfacet
  facet normal 0.62349 0 0.781832
    outer loop
      vertex -1.93708 -2.35317 11.0671
      vertex -0.478419 -7.5 9.9039
      vertex -0.478419 -2.35317 9.9039
    endloop
  endfacet
  facet normal 0.62349 0 0.781832
    outer loop
      vertex -0.478419 -7.5 9.9039
      vertex -1.93708 -2.35317 11.0671
      vertex -1.93708 -7.5 11.0671
    endloop
  endfacet
  facet normal -0.222521 0 0.974928
    outer loop
      vertex -0.478419 -2.35317 9.9039
      vertex 1.3405 -7.5 10.3191
      vertex 1.3405 -2.35317 10.3191
    endloop
  endfacet
  facet normal -0.222521 0 0.974928
    outer loop
      vertex 1.3405 -7.5 10.3191
      vertex -0.478419 -2.35317 9.9039
      vertex -0.478419 -7.5 9.9039
    endloop
  endfacet
  facet normal -1.86852e-08 0.809017 0.587785
    outer loop
      vertex 15 -1.26336 5.57295
      vertex -15 -2.35317 7.07295
      vertex 15 -2.35317 7.07295
    endloop
  endfacet
  facet normal -1.86852e-08 0.809017 0.587785
    outer loop
      vertex -15 -2.35317 7.07295
      vertex 15 -1.26336 5.57295
      vertex -15 -1.26336 5.57295
    endloop
  endfacet
  facet normal -3.02333e-08 0.309017 0.951056
    outer loop
      vertex -15 0.5 5
      vertex 15 -1.26336 5.57295
      vertex 15 0.5 5
    endloop
  endfacet
  facet normal -3.02333e-08 0.309017 0.951056
    outer loop
      vertex 15 -1.26336 5.57295
      vertex -15 0.5 5
      vertex -15 -1.26336 5.57295
    endloop
  endfacet
  facet normal 0 1 0
    outer loop
      vertex 15 -2.35317 16.8
      vertex 12.9271 -2.35317 19.6532
      vertex 14.4271 -2.35317 18.5634
    endloop
  endfacet
  facet normal 0 1 0
    outer loop
      vertex 12.9271 -2.35317 19.6532
      vertex -0.478419 -2.35317 14.0961
      vertex -12.9271 -2.35317 19.6532
    endloop
  endfacet
  facet normal 0 1 0
    outer loop
      vertex 12.9271 -2.35317 19.6532
      vertex 15 -2.35317 16.8
      vertex 2.15 -2.35317 12
    endloop
  endfacet
  facet normal 0 1 -0
    outer loop
      vertex -1.93708 -2.35317 12.9328
      vertex -12.9271 -2.35317 19.6532
      vertex -0.478419 -2.35317 14.0961
    endloop
  endfacet
  facet normal -0 1 0
    outer loop
      vertex -15 -2.35317 16.8
      vertex -12.9271 -2.35317 19.6532
      vertex -1.93708 -2.35317 12.9328
    endloop
  endfacet
  facet normal 0 1 0
    outer loop
      vertex 12.9271 -2.35317 19.6532
      vertex 1.3405 -2.35317 13.6809
      vertex -0.478419 -2.35317 14.0961
    endloop
  endfacet
  facet normal 0 1 0
    outer loop
      vertex 12.9271 -2.35317 19.6532
      vertex 2.15 -2.35317 12
      vertex 1.3405 -2.35317 13.6809
    endloop
  endfacet
  facet normal 0 1 -0
    outer loop
      vertex 15 -2.35317 7.07295
      vertex 2.15 -2.35317 12
      vertex 15 -2.35317 16.8
    endloop
  endfacet
  facet normal 0 1 0
    outer loop
      vertex 1.3405 -2.35317 10.3191
      vertex 15 -2.35317 7.07295
      vertex -0.478419 -2.35317 9.9039
    endloop
  endfacet
  facet normal 0 1 0
    outer loop
      vertex 2.15 -2.35317 12
      vertex 15 -2.35317 7.07295
      vertex 1.3405 -2.35317 10.3191
    endloop
  endfacet
  facet normal 0 1 0
    outer loop
      vertex -12.9271 -2.35317 19.6532
      vertex -15 -2.35317 16.8
      vertex -14.4271 -2.35317 18.5634
    endloop
  endfacet
  facet normal 0 1 -0
    outer loop
      vertex -1.93708 -2.35317 11.0671
      vertex -15 -2.35317 16.8
      vertex -1.93708 -2.35317 12.9328
    endloop
  endfacet
  facet normal 0 1 0
    outer loop
      vertex -15 -2.35317 7.07295
      vertex -1.93708 -2.35317 11.0671
      vertex -0.478419 -2.35317 9.9039
    endloop
  endfacet
  facet normal 0 1 0
    outer loop
      vertex -1.93708 -2.35317 11.0671
      vertex -15 -2.35317 7.07295
      vertex -15 -2.35317 16.8
    endloop
  endfacet
  facet normal 0 1 0
    outer loop
      vertex -15 -2.35317 7.07295
      vertex -0.478419 -2.35317 9.9039
      vertex 15 -2.35317 7.07295
    endloop
  endfacet
  facet normal -6.40476e-08 0 1
    outer loop
      vertex 7.55496 11.9499 5
      vertex 15 18.9905 5
      vertex 15 19.2532 5
    endloop
  endfacet
  facet normal -6.40476e-08 0 1
    outer loop
      vertex 15 18.9905 5
      vertex 7.55496 11.9499 5
      vertex 15 18.5961 5
    endloop
  endfacet
  facet normal -5.21723e-08 -2.51249e-08 1
    outer loop
      vertex 10 10 5
      vertex 15 18.5961 5
      vertex 9.24698 11.5637 5
    endloop
  endfacet
  facet normal -7.68604e-08 3.7014e-08 1
    outer loop
      vertex 9.24698 8.43634 5
      vertex 15 7.5 5
      vertex 10 10 5
    endloop
  endfacet
  facet normal -9.53674e-08 0 1
    outer loop
      vertex 15 18.5961 5
      vertex 10 10 5
      vertex 15 7.5 5
    endloop
  endfacet
  facet normal -1.30411e-08 -5.71369e-08 1
    outer loop
      vertex 15 18.5961 5
      vertex 7.55496 11.9499 5
      vertex 9.24698 11.5637 5
    endloop
  endfacet
  facet normal 1.81215e-09 -6.71378e-08 1
    outer loop
      vertex -6.75302 11.5637 5
      vertex 7.55496 11.9499 5
      vertex 15 19.2532 5
    endloop
  endfacet
  facet normal 0 0 1
    outer loop
      vertex 6.19806 10.8678 5
      vertex -6 10 5
      vertex 6.19806 9.13223 5
    endloop
  endfacet
  facet normal 0 0 1
    outer loop
      vertex 7.55496 11.9499 5
      vertex -6.75302 11.5637 5
      vertex 6.19806 10.8678 5
    endloop
  endfacet
  facet normal 0 0 1
    outer loop
      vertex 6.19806 10.8678 5
      vertex -6.75302 11.5637 5
      vertex -6 10 5
    endloop
  endfacet
  facet normal -3.17891e-08 2.79176e-08 1
    outer loop
      vertex -15 19.2532 5
      vertex -6.75302 11.5637 5
      vertex 15 19.2532 5
    endloop
  endfacet
  facet normal -7.27445e-08 0 1
    outer loop
      vertex -15 17.5146 5
      vertex -8.44504 11.9499 5
      vertex -15 18.5583 5
    endloop
  endfacet
  facet normal -7.27445e-08 0 1
    outer loop
      vertex -15 18.5583 5
      vertex -8.44504 11.9499 5
      vertex -15 19.2532 5
    endloop
  endfacet
  facet normal 1.87415e-08 8.21116e-08 1
    outer loop
      vertex -6.75302 11.5637 5
      vertex -15 19.2532 5
      vertex -8.44504 11.9499 5
    endloop
  endfacet
  facet normal -8.28847e-08 0 1
    outer loop
      vertex 15 7.5 5
      vertex 9.24698 8.43634 5
      vertex 15 0.5 5
    endloop
  endfacet
  facet normal -1.17667e-08 5.15532e-08 1
    outer loop
      vertex 7.55496 8.05014 5
      vertex 15 0.5 5
      vertex 9.24698 8.43634 5
    endloop
  endfacet
  facet normal -0 0 1
    outer loop
      vertex -6.75302 8.43634 5
      vertex 7.55496 8.05014 5
      vertex 6.19806 9.13223 5
    endloop
  endfacet
  facet normal 0 0 1
    outer loop
      vertex -6.75302 8.43634 5
      vertex 6.19806 9.13223 5
      vertex -6 10 5
    endloop
  endfacet
  facet normal 1.75129e-09 6.48829e-08 1
    outer loop
      vertex 7.55496 8.05014 5
      vertex -6.75302 8.43634 5
      vertex 15 0.5 5
    endloop
  endfacet
  facet normal 1.79773e-08 -7.87638e-08 1
    outer loop
      vertex -15 0.5 5
      vertex -6.75302 8.43634 5
      vertex -8.44504 8.05014 5
    endloop
  endfacet
  facet normal -3.52353e-08 4.41837e-08 1
    outer loop
      vertex -8.44504 11.9499 5
      vertex -15 17.5146 5
      vertex -9.80194 10.8678 5
    endloop
  endfacet
  facet normal -9.17336e-08 0 1
    outer loop
      vertex -15 7.5 5
      vertex -9.80194 10.8678 5
      vertex -15 17.5146 5
    endloop
  endfacet
  facet normal -9.17336e-08 0 1
    outer loop
      vertex -9.80194 10.8678 5
      vertex -15 7.5 5
      vertex -9.80194 9.13223 5
    endloop
  endfacet
  facet normal -6.58177e-08 -8.25328e-08 1
    outer loop
      vertex -15 7.5 5
      vertex -8.44504 8.05014 5
      vertex -9.80194 9.13223 5
    endloop
  endfacet
  facet normal -7.27445e-08 9.91065e-15 1
    outer loop
      vertex -15 0.5 5
      vertex -8.44504 8.05014 5
      vertex -15 7.5 5
    endloop
  endfacet
  facet normal -3.17891e-08 -2.70493e-08 1
    outer loop
      vertex -6.75302 8.43634 5
      vertex -15 0.5 5
      vertex 15 0.5 5
    endloop
  endfacet
endsolid OpenSCAD_Model
