solid OpenSCAD_Model
  facet normal 0.994522 0.10453 0
    outer loop
      vertex 16.075 0 9.26
      vertex 15.9406 1.27866 4.5
      vertex 15.9406 1.27866 9.26
    endloop
  endfacet
  facet normal 0.994522 0.10453 0
    outer loop
      vertex 15.9406 1.27866 4.5
      vertex 16.075 0 9.26
      vertex 16.075 0 4.5
    endloop
  endfacet
  facet normal 0 1 -0
    outer loop
      vertex 10.5678 6.11631 4.5
      vertex 9.28215 6.11631 9.26
      vertex 10.5678 6.11631 9.26
    endloop
  endfacet
  facet normal 0 1 0
    outer loop
      vertex 9.28215 6.11631 9.26
      vertex 10.5678 6.11631 4.5
      vertex 9.28215 6.11631 4.5
    endloop
  endfacet
  facet normal 0 -1 0
    outer loop
      vertex 9.28215 -6.11631 4.5
      vertex 10.5678 -6.11631 9.26
      vertex 9.28215 -6.11631 9.26
    endloop
  endfacet
  facet normal 0 -1 -0
    outer loop
      vertex 10.5678 -6.11631 9.26
      vertex 9.28215 -6.11631 4.5
      vertex 10.5678 -6.11631 4.5
    endloop
  endfacet
  facet normal 0.743145 0.66913 0
    outer loop
      vertex 14.9005 3.61488 9.26
      vertex 14.0402 4.57034 4.5
      vertex 14.0402 4.57034 9.26
    endloop
  endfacet
  facet normal 0.743145 0.66913 0
    outer loop
      vertex 14.0402 4.57034 4.5
      vertex 14.9005 3.61488 9.26
      vertex 14.9005 3.61488 4.5
    endloop
  endfacet
  facet normal 0.951057 0.309017 0
    outer loop
      vertex 15.9406 1.27866 9.26
      vertex 15.5433 2.50143 4.5
      vertex 15.5433 2.50143 9.26
    endloop
  endfacet
  facet normal 0.951057 0.309017 0
    outer loop
      vertex 15.5433 2.50143 4.5
      vertex 15.9406 1.27866 9.26
      vertex 15.9406 1.27866 4.5
    endloop
  endfacet
  facet normal -0.743145 0.66913 0
    outer loop
      vertex 4.94954 3.61488 4.5
      vertex 5.80985 4.57034 9.26
      vertex 5.80985 4.57034 4.5
    endloop
  endfacet
  facet normal -0.743145 0.66913 0
    outer loop
      vertex 5.80985 4.57034 9.26
      vertex 4.94954 3.61488 4.5
      vertex 4.94954 3.61488 9.26
    endloop
  endfacet
  facet normal -0.406737 0.913545 0
    outer loop
      vertex 8.02454 5.849 4.5
      vertex 6.85 5.32606 9.26
      vertex 8.02454 5.849 9.26
    endloop
  endfacet
  facet normal -0.406737 0.913545 0
    outer loop
      vertex 6.85 5.32606 9.26
      vertex 8.02454 5.849 4.5
      vertex 6.85 5.32606 4.5
    endloop
  endfacet
  facet normal 0.866025 -0.5 0
    outer loop
      vertex 14.9005 -3.61488 9.26
      vertex 15.5433 -2.50143 4.5
      vertex 15.5433 -2.50143 9.26
    endloop
  endfacet
  facet normal 0.866025 -0.5 0
    outer loop
      vertex 15.5433 -2.50143 4.5
      vertex 14.9005 -3.61488 9.26
      vertex 14.9005 -3.61488 4.5
    endloop
  endfacet
  facet normal -0.951056 -0.309017 0
    outer loop
      vertex 4.30669 -2.50143 4.5
      vertex 3.90939 -1.27866 9.26
      vertex 3.90939 -1.27866 4.5
    endloop
  endfacet
  facet normal -0.951056 -0.309017 0
    outer loop
      vertex 3.90939 -1.27866 9.26
      vertex 4.30669 -2.50143 4.5
      vertex 4.30669 -2.50143 9.26
    endloop
  endfacet
  facet normal 0.866025 0.5 0
    outer loop
      vertex 15.5433 2.50143 9.26
      vertex 14.9005 3.61488 4.5
      vertex 14.9005 3.61488 9.26
    endloop
  endfacet
  facet normal 0.866025 0.5 0
    outer loop
      vertex 14.9005 3.61488 4.5
      vertex 15.5433 2.50143 9.26
      vertex 15.5433 2.50143 4.5
    endloop
  endfacet
  facet normal 0.406737 0.913545 -0
    outer loop
      vertex 13 5.32606 4.5
      vertex 11.8255 5.849 9.26
      vertex 13 5.32606 9.26
    endloop
  endfacet
  facet normal 0.406737 0.913545 0
    outer loop
      vertex 11.8255 5.849 9.26
      vertex 13 5.32606 4.5
      vertex 11.8255 5.849 4.5
    endloop
  endfacet
  facet normal 0.207912 0.978148 -0
    outer loop
      vertex 11.8255 5.849 4.5
      vertex 10.5678 6.11631 9.26
      vertex 11.8255 5.849 9.26
    endloop
  endfacet
  facet normal 0.207912 0.978148 0
    outer loop
      vertex 10.5678 6.11631 9.26
      vertex 11.8255 5.849 4.5
      vertex 10.5678 6.11631 4.5
    endloop
  endfacet
  facet normal 0.587785 0.809017 -0
    outer loop
      vertex 14.0402 4.57034 4.5
      vertex 13 5.32606 9.26
      vertex 14.0402 4.57034 9.26
    endloop
  endfacet
  facet normal 0.587785 0.809017 0
    outer loop
      vertex 13 5.32606 9.26
      vertex 14.0402 4.57034 4.5
      vertex 13 5.32606 4.5
    endloop
  endfacet
  facet normal -0.951056 0.309017 0
    outer loop
      vertex 3.90939 1.27866 4.5
      vertex 4.30669 2.50143 9.26
      vertex 4.30669 2.50143 4.5
    endloop
  endfacet
  facet normal -0.951056 0.309017 0
    outer loop
      vertex 4.30669 2.50143 9.26
      vertex 3.90939 1.27866 4.5
      vertex 3.90939 1.27866 9.26
    endloop
  endfacet
  facet normal 0 0 -1
    outer loop
      vertex 31.925 -14.9225 -4.5
      vertex 34.925 -11.9225 -4.5
      vertex 34.0463 -14.0438 -4.5
    endloop
  endfacet
  facet normal 0 0 -1
    outer loop
      vertex 23.495 -2.65 -4.5
      vertex 34.925 -11.9225 -4.5
      vertex 31.925 -14.9225 -4.5
    endloop
  endfacet
  facet normal 0 0 -1
    outer loop
      vertex 34.925 -11.9225 -4.5
      vertex 23.495 -2.65 -4.5
      vertex 34.925 -2.65 -4.5
    endloop
  endfacet
  facet normal 0 0 -1
    outer loop
      vertex 14.3413 -4.90476 -4.5
      vertex 23.495 -2.65 -4.5
      vertex 31.925 -14.9225 -4.5
    endloop
  endfacet
  facet normal 0 0 -1
    outer loop
      vertex 16.3808 -1.37222 -4.5
      vertex 20.845 0 -4.5
      vertex 21.6212 -1.87383 -4.5
    endloop
  endfacet
  facet normal 0 -0 -1
    outer loop
      vertex 14.8298 -4.41626 -4.5
      vertex 23.495 -2.65 -4.5
      vertex 14.3413 -4.90476 -4.5
    endloop
  endfacet
  facet normal -0 0 -1
    outer loop
      vertex 20.845 0 -4.5
      vertex 16.4888 -0.689887 -4.5
      vertex 16.525 0 -4.5
    endloop
  endfacet
  facet normal 0 0 -1
    outer loop
      vertex 20.845 0 -4.5
      vertex 16.3808 -1.37222 -4.5
      vertex 16.4888 -0.689887 -4.5
    endloop
  endfacet
  facet normal -0 0 -1
    outer loop
      vertex 21.6212 -1.87383 -4.5
      vertex 16.202 -2.03951 -4.5
      vertex 16.3808 -1.37222 -4.5
    endloop
  endfacet
  facet normal 0 0 -1
    outer loop
      vertex 21.6212 -1.87383 -4.5
      vertex 15.9544 -2.68446 -4.5
      vertex 16.202 -2.03951 -4.5
    endloop
  endfacet
  facet normal 0 0 -1
    outer loop
      vertex 21.6212 -1.87383 -4.5
      vertex 15.6408 -3.3 -4.5
      vertex 15.9544 -2.68446 -4.5
    endloop
  endfacet
  facet normal 0 0 -1
    outer loop
      vertex 21.6212 -1.87383 -4.5
      vertex 15.2645 -3.87938 -4.5
      vertex 15.6408 -3.3 -4.5
    endloop
  endfacet
  facet normal 0 0 -1
    outer loop
      vertex 21.6212 -1.87383 -4.5
      vertex 14.8298 -4.41626 -4.5
      vertex 15.2645 -3.87938 -4.5
    endloop
  endfacet
  facet normal -0 0 -1
    outer loop
      vertex 23.495 -2.65 -4.5
      vertex 14.8298 -4.41626 -4.5
      vertex 21.6212 -1.87383 -4.5
    endloop
  endfacet
  facet normal 0 0 -1
    outer loop
      vertex 31.925 -14.9225 -4.5
      vertex 13.8044 -5.33951 -4.5
      vertex 14.3413 -4.90476 -4.5
    endloop
  endfacet
  facet normal 0 0 -1
    outer loop
      vertex 31.925 -14.9225 -4.5
      vertex 13.225 -5.71577 -4.5
      vertex 13.8044 -5.33951 -4.5
    endloop
  endfacet
  facet normal 0 0 -1
    outer loop
      vertex 31.925 -14.9225 -4.5
      vertex 12.6095 -6.0294 -4.5
      vertex 13.225 -5.71577 -4.5
    endloop
  endfacet
  facet normal 0 0 -1
    outer loop
      vertex 31.925 -14.9225 -4.5
      vertex 11.9645 -6.27697 -4.5
      vertex 12.6095 -6.0294 -4.5
    endloop
  endfacet
  facet normal 0 0 -1
    outer loop
      vertex 31.925 -14.9225 -4.5
      vertex 11.2972 -6.45577 -4.5
      vertex 11.9645 -6.27697 -4.5
    endloop
  endfacet
  facet normal 0 0 -1
    outer loop
      vertex 31.925 -14.9225 -4.5
      vertex 10.6149 -6.56384 -4.5
      vertex 11.2972 -6.45577 -4.5
    endloop
  endfacet
  facet normal 0 0 -1
    outer loop
      vertex 31.925 -14.9225 -4.5
      vertex 9.925 -6.6 -4.5
      vertex 10.6149 -6.56384 -4.5
    endloop
  endfacet
  facet normal 0 0 -1
    outer loop
      vertex 31.925 -14.9225 -4.5
      vertex 9.23511 -6.56384 -4.5
      vertex 9.925 -6.6 -4.5
    endloop
  endfacet
  facet normal 0 0 -1
    outer loop
      vertex -31.925 -14.9225 -4.5
      vertex 9.23511 -6.56384 -4.5
      vertex 31.925 -14.9225 -4.5
    endloop
  endfacet
  facet normal -0 0 -1
    outer loop
      vertex 9.23511 -6.56384 -4.5
      vertex -31.925 -14.9225 -4.5
      vertex 8.55278 -6.45577 -4.5
    endloop
  endfacet
  facet normal 0 0 -1
    outer loop
      vertex 3.36116 -0.689887 -4.5
      vertex -11.955 0 -4.5
      vertex 3.325 0 -4.5
    endloop
  endfacet
  facet normal 0 0 -1
    outer loop
      vertex 3.46923 -1.37222 -4.5
      vertex -11.955 0 -4.5
      vertex 3.36116 -0.689887 -4.5
    endloop
  endfacet
  facet normal 0 0 -1
    outer loop
      vertex 3.64803 -2.03951 -4.5
      vertex -11.955 0 -4.5
      vertex 3.46923 -1.37222 -4.5
    endloop
  endfacet
  facet normal 0 0 -1
    outer loop
      vertex -12.7312 -1.87383 -4.5
      vertex 3.64803 -2.03951 -4.5
      vertex 3.8956 -2.68446 -4.5
    endloop
  endfacet
  facet normal 0 0 -1
    outer loop
      vertex -12.7312 -1.87383 -4.5
      vertex 3.8956 -2.68446 -4.5
      vertex 4.20923 -3.3 -4.5
    endloop
  endfacet
  facet normal 0 0 -1
    outer loop
      vertex -12.7312 -1.87383 -4.5
      vertex 4.20923 -3.3 -4.5
      vertex 4.58549 -3.87938 -4.5
    endloop
  endfacet
  facet normal 0 0 -1
    outer loop
      vertex -12.7312 -1.87383 -4.5
      vertex 4.58549 -3.87938 -4.5
      vertex 5.02024 -4.41626 -4.5
    endloop
  endfacet
  facet normal 0 0 -1
    outer loop
      vertex -12.7312 -1.87383 -4.5
      vertex 5.02024 -4.41626 -4.5
      vertex 5.50874 -4.90476 -4.5
    endloop
  endfacet
  facet normal 0 0 -1
    outer loop
      vertex -12.7312 -1.87383 -4.5
      vertex 5.50874 -4.90476 -4.5
      vertex 6.04562 -5.33951 -4.5
    endloop
  endfacet
  facet normal 0 0 -1
    outer loop
      vertex -14.605 -2.65 -4.5
      vertex 6.04562 -5.33951 -4.5
      vertex 6.625 -5.71577 -4.5
    endloop
  endfacet
  facet normal 0 0 -1
    outer loop
      vertex -31.925 -14.9225 -4.5
      vertex 6.625 -5.71577 -4.5
      vertex 7.24054 -6.0294 -4.5
    endloop
  endfacet
  facet normal 0 0 -1
    outer loop
      vertex -31.925 -14.9225 -4.5
      vertex 7.24054 -6.0294 -4.5
      vertex 7.88549 -6.27697 -4.5
    endloop
  endfacet
  facet normal -0 0 -1
    outer loop
      vertex 8.55278 -6.45577 -4.5
      vertex -31.925 -14.9225 -4.5
      vertex 7.88549 -6.27697 -4.5
    endloop
  endfacet
  facet normal 0 0 -1
    outer loop
      vertex 3.64803 -2.03951 -4.5
      vertex -12.7312 -1.87383 -4.5
      vertex -11.955 0 -4.5
    endloop
  endfacet
  facet normal 0 0 -1
    outer loop
      vertex 6.04562 -5.33951 -4.5
      vertex -14.605 -2.65 -4.5
      vertex -12.7312 -1.87383 -4.5
    endloop
  endfacet
  facet normal -0 0 -1
    outer loop
      vertex 6.625 -5.71577 -4.5
      vertex -31.925 -14.9225 -4.5
      vertex -14.605 -2.65 -4.5
    endloop
  endfacet
  facet normal -0 0 -1
    outer loop
      vertex -27.305 -2.65 -4.5
      vertex -34.925 -11.9225 -4.5
      vertex -29.1788 -1.87383 -4.5
    endloop
  endfacet
  facet normal 0 0 -1
    outer loop
      vertex -34.925 -11.9225 -4.5
      vertex -27.305 -2.65 -4.5
      vertex -31.925 -14.9225 -4.5
    endloop
  endfacet
  facet normal -0 0 -1
    outer loop
      vertex -14.605 -2.65 -4.5
      vertex -31.925 -14.9225 -4.5
      vertex -27.305 -2.65 -4.5
    endloop
  endfacet
  facet normal 0 0 -1
    outer loop
      vertex 23.495 2.65 -4.5
      vertex 34.925 11.9225 -4.5
      vertex 34.925 2.65 -4.5
    endloop
  endfacet
  facet normal 0 0 -1
    outer loop
      vertex 34.925 11.9225 -4.5
      vertex 31.925 14.9225 -4.5
      vertex 34.0463 14.0438 -4.5
    endloop
  endfacet
  facet normal -0 0 -1
    outer loop
      vertex 34.925 11.9225 -4.5
      vertex 23.495 2.65 -4.5
      vertex 31.925 14.9225 -4.5
    endloop
  endfacet
  facet normal 0 0 -1
    outer loop
      vertex 14.8298 4.41626 -4.5
      vertex 23.495 2.65 -4.5
      vertex 21.6212 1.87383 -4.5
    endloop
  endfacet
  facet normal 0 0 -1
    outer loop
      vertex 16.4888 0.689887 -4.5
      vertex 20.845 0 -4.5
      vertex 16.525 0 -4.5
    endloop
  endfacet
  facet normal 0 0 -1
    outer loop
      vertex 16.3808 1.37222 -4.5
      vertex 20.845 0 -4.5
      vertex 16.4888 0.689887 -4.5
    endloop
  endfacet
  facet normal 0 0 -1
    outer loop
      vertex 20.845 0 -4.5
      vertex 16.3808 1.37222 -4.5
      vertex 21.6212 1.87383 -4.5
    endloop
  endfacet
  facet normal 0 0 -1
    outer loop
      vertex 16.202 2.03951 -4.5
      vertex 21.6212 1.87383 -4.5
      vertex 16.3808 1.37222 -4.5
    endloop
  endfacet
  facet normal 0 0 -1
    outer loop
      vertex 15.9544 2.68446 -4.5
      vertex 21.6212 1.87383 -4.5
      vertex 16.202 2.03951 -4.5
    endloop
  endfacet
  facet normal 0 0 -1
    outer loop
      vertex 15.6408 3.3 -4.5
      vertex 21.6212 1.87383 -4.5
      vertex 15.9544 2.68446 -4.5
    endloop
  endfacet
  facet normal 0 0 -1
    outer loop
      vertex 15.2645 3.87938 -4.5
      vertex 21.6212 1.87383 -4.5
      vertex 15.6408 3.3 -4.5
    endloop
  endfacet
  facet normal 0 0 -1
    outer loop
      vertex 14.8298 4.41626 -4.5
      vertex 21.6212 1.87383 -4.5
      vertex 15.2645 3.87938 -4.5
    endloop
  endfacet
  facet normal 0 0 -1
    outer loop
      vertex 23.495 2.65 -4.5
      vertex 14.8298 4.41626 -4.5
      vertex 14.3413 4.90476 -4.5
    endloop
  endfacet
  facet normal 0 0 -1
    outer loop
      vertex 23.495 2.65 -4.5
      vertex 14.3413 4.90476 -4.5
      vertex 31.925 14.9225 -4.5
    endloop
  endfacet
  facet normal 0 0 -1
    outer loop
      vertex 13.8044 5.33951 -4.5
      vertex 31.925 14.9225 -4.5
      vertex 14.3413 4.90476 -4.5
    endloop
  endfacet
  facet normal 0 0 -1
    outer loop
      vertex 13.225 5.71577 -4.5
      vertex 31.925 14.9225 -4.5
      vertex 13.8044 5.33951 -4.5
    endloop
  endfacet
  facet normal 0 0 -1
    outer loop
      vertex 12.6095 6.0294 -4.5
      vertex 31.925 14.9225 -4.5
      vertex 13.225 5.71577 -4.5
    endloop
  endfacet
  facet normal 0 0 -1
    outer loop
      vertex 11.9645 6.27697 -4.5
      vertex 31.925 14.9225 -4.5
      vertex 12.6095 6.0294 -4.5
    endloop
  endfacet
  facet normal 0 0 -1
    outer loop
      vertex 11.2972 6.45577 -4.5
      vertex 31.925 14.9225 -4.5
      vertex 11.9645 6.27697 -4.5
    endloop
  endfacet
  facet normal 0 0 -1
    outer loop
      vertex 10.6149 6.56384 -4.5
      vertex 31.925 14.9225 -4.5
      vertex 11.2972 6.45577 -4.5
    endloop
  endfacet
  facet normal 0 0 -1
    outer loop
      vertex 9.925 6.6 -4.5
      vertex 31.925 14.9225 -4.5
      vertex 10.6149 6.56384 -4.5
    endloop
  endfacet
  facet normal 0 0 -1
    outer loop
      vertex 9.23511 6.56384 -4.5
      vertex 31.925 14.9225 -4.5
      vertex 9.925 6.6 -4.5
    endloop
  endfacet
  facet normal 0 0 -1
    outer loop
      vertex -31.925 14.9225 -4.5
      vertex 9.23511 6.56384 -4.5
      vertex 8.55278 6.45577 -4.5
    endloop
  endfacet
  facet normal 0 0 -1
    outer loop
      vertex -31.925 14.9225 -4.5
      vertex 8.55278 6.45577 -4.5
      vertex 7.88549 6.27697 -4.5
    endloop
  endfacet
  facet normal 0 0 -1
    outer loop
      vertex -11.955 0 -4.5
      vertex 3.36116 0.689887 -4.5
      vertex 3.325 0 -4.5
    endloop
  endfacet
  facet normal 0 0 -1
    outer loop
      vertex -11.955 0 -4.5
      vertex 3.46923 1.37222 -4.5
      vertex 3.36116 0.689887 -4.5
    endloop
  endfacet
  facet normal 0 0 -1
    outer loop
      vertex -11.955 0 -4.5
      vertex 3.64803 2.03951 -4.5
      vertex 3.46923 1.37222 -4.5
    endloop
  endfacet
  facet normal 0 0 -1
    outer loop
      vertex -12.7312 1.87383 -4.5
      vertex 3.64803 2.03951 -4.5
      vertex -11.955 0 -4.5
    endloop
  endfacet
  facet normal -0 0 -1
    outer loop
      vertex 3.64803 2.03951 -4.5
      vertex -12.7312 1.87383 -4.5
      vertex 3.8956 2.68446 -4.5
    endloop
  endfacet
  facet normal -0 0 -1
    outer loop
      vertex 3.8956 2.68446 -4.5
      vertex -12.7312 1.87383 -4.5
      vertex 4.20923 3.3 -4.5
    endloop
  endfacet
  facet normal -0 0 -1
    outer loop
      vertex 4.20923 3.3 -4.5
      vertex -12.7312 1.87383 -4.5
      vertex 4.58549 3.87938 -4.5
    endloop
  endfacet
  facet normal -0 0 -1
    outer loop
      vertex 4.58549 3.87938 -4.5
      vertex -12.7312 1.87383 -4.5
      vertex 5.02024 4.41626 -4.5
    endloop
  endfacet
  facet normal -0 0 -1
    outer loop
      vertex 5.02024 4.41626 -4.5
      vertex -12.7312 1.87383 -4.5
      vertex 5.50874 4.90476 -4.5
    endloop
  endfacet
  facet normal -0 0 -1
    outer loop
      vertex 5.50874 4.90476 -4.5
      vertex -12.7312 1.87383 -4.5
      vertex 6.04562 5.33951 -4.5
    endloop
  endfacet
  facet normal 0 0 -1
    outer loop
      vertex -14.605 2.65 -4.5
      vertex 6.04562 5.33951 -4.5
      vertex -12.7312 1.87383 -4.5
    endloop
  endfacet
  facet normal -0 0 -1
    outer loop
      vertex 6.04562 5.33951 -4.5
      vertex -14.605 2.65 -4.5
      vertex 6.625 5.71577 -4.5
    endloop
  endfacet
  facet normal 0 0 -1
    outer loop
      vertex -31.925 14.9225 -4.5
      vertex 6.625 5.71577 -4.5
      vertex -14.605 2.65 -4.5
    endloop
  endfacet
  facet normal 0 0 -1
    outer loop
      vertex 6.625 5.71577 -4.5
      vertex -31.925 14.9225 -4.5
      vertex 7.24054 6.0294 -4.5
    endloop
  endfacet
  facet normal 0 0 -1
    outer loop
      vertex 7.24054 6.0294 -4.5
      vertex -31.925 14.9225 -4.5
      vertex 7.88549 6.27697 -4.5
    endloop
  endfacet
  facet normal 0 0 -1
    outer loop
      vertex -31.925 14.9225 -4.5
      vertex -14.605 2.65 -4.5
      vertex -27.305 2.65 -4.5
    endloop
  endfacet
  facet normal 0 0 -1
    outer loop
      vertex 9.23511 6.56384 -4.5
      vertex -31.925 14.9225 -4.5
      vertex 31.925 14.9225 -4.5
    endloop
  endfacet
  facet normal 0 0 -1
    outer loop
      vertex -34.925 11.9225 -4.5
      vertex -27.305 2.65 -4.5
      vertex -29.1788 1.87383 -4.5
    endloop
  endfacet
  facet normal 0 0 -1
    outer loop
      vertex -34.925 11.9225 -4.5
      vertex -29.1788 1.87383 -4.5
      vertex -29.955 0 -4.5
    endloop
  endfacet
  facet normal -0 0 -1
    outer loop
      vertex -29.1788 -1.87383 -4.5
      vertex -34.925 -11.9225 -4.5
      vertex -29.955 0 -4.5
    endloop
  endfacet
  facet normal 0 0 -1
    outer loop
      vertex -34.925 -11.9225 -4.5
      vertex -31.925 -14.9225 -4.5
      vertex -34.0463 -14.0438 -4.5
    endloop
  endfacet
  facet normal 0 0 -1
    outer loop
      vertex -34.925 11.9225 -4.5
      vertex -29.955 0 -4.5
      vertex -34.925 -11.9225 -4.5
    endloop
  endfacet
  facet normal 0 0 -1
    outer loop
      vertex -27.305 2.65 -4.5
      vertex -34.925 11.9225 -4.5
      vertex -31.925 14.9225 -4.5
    endloop
  endfacet
  facet normal 0 0 -1
    outer loop
      vertex -31.925 14.9225 -4.5
      vertex -34.925 11.9225 -4.5
      vertex -34.0463 14.0438 -4.5
    endloop
  endfacet
  facet normal -0.866025 0.5 0
    outer loop
      vertex 4.30669 2.50143 4.5
      vertex 4.94954 3.61488 9.26
      vertex 4.94954 3.61488 4.5
    endloop
  endfacet
  facet normal -0.866025 0.5 0
    outer loop
      vertex 4.94954 3.61488 9.26
      vertex 4.30669 2.50143 4.5
      vertex 4.30669 2.50143 9.26
    endloop
  endfacet
  facet normal -0.994522 0.104528 0
    outer loop
      vertex 3.775 0 4.5
      vertex 3.90939 1.27866 9.26
      vertex 3.90939 1.27866 4.5
    endloop
  endfacet
  facet normal -0.994522 0.104528 0
    outer loop
      vertex 3.90939 1.27866 9.26
      vertex 3.775 0 4.5
      vertex 3.775 0 9.26
    endloop
  endfacet
  facet normal 0 0 1
    outer loop
      vertex 12.125 0 9.26
      vertex 16.075 0 9.26
      vertex 15.9406 1.27866 9.26
    endloop
  endfacet
  facet normal 0 0 1
    outer loop
      vertex 12.125 0 9.26
      vertex 15.9406 1.27866 9.26
      vertex 15.5433 2.50143 9.26
    endloop
  endfacet
  facet normal 0 0 1
    outer loop
      vertex 16.075 0 9.26
      vertex 12.125 0 9.26
      vertex 15.9406 -1.27866 9.26
    endloop
  endfacet
  facet normal 0 0 1
    outer loop
      vertex 11.4806 1.55563 9.26
      vertex 15.5433 2.50143 9.26
      vertex 14.9005 3.61488 9.26
    endloop
  endfacet
  facet normal 0 0 1
    outer loop
      vertex 15.9406 -1.27866 9.26
      vertex 12.125 0 9.26
      vertex 15.5433 -2.50143 9.26
    endloop
  endfacet
  facet normal 0 0 1
    outer loop
      vertex 11.4806 1.55563 9.26
      vertex 14.9005 3.61488 9.26
      vertex 14.0402 4.57034 9.26
    endloop
  endfacet
  facet normal -0 0 1
    outer loop
      vertex 11.4806 -1.55563 9.26
      vertex 15.5433 -2.50143 9.26
      vertex 12.125 0 9.26
    endloop
  endfacet
  facet normal 0 0 1
    outer loop
      vertex 11.4806 1.55563 9.26
      vertex 14.0402 4.57034 9.26
      vertex 13 5.32606 9.26
    endloop
  endfacet
  facet normal 0 0 1
    outer loop
      vertex 15.5433 -2.50143 9.26
      vertex 11.4806 -1.55563 9.26
      vertex 14.9005 -3.61488 9.26
    endloop
  endfacet
  facet normal 0 0 1
    outer loop
      vertex 14.9005 -3.61488 9.26
      vertex 11.4806 -1.55563 9.26
      vertex 14.0402 -4.57034 9.26
    endloop
  endfacet
  facet normal 0 0 1
    outer loop
      vertex 11.4806 1.55563 9.26
      vertex 13 5.32606 9.26
      vertex 11.8255 5.849 9.26
    endloop
  endfacet
  facet normal 0 0 1
    outer loop
      vertex 15.5433 2.50143 9.26
      vertex 11.4806 1.55563 9.26
      vertex 12.125 0 9.26
    endloop
  endfacet
  facet normal 0 0 1
    outer loop
      vertex 9.925 2.2 9.26
      vertex 11.8255 5.849 9.26
      vertex 10.5678 6.11631 9.26
    endloop
  endfacet
  facet normal 0 0 1
    outer loop
      vertex 11.8255 5.849 9.26
      vertex 9.925 2.2 9.26
      vertex 11.4806 1.55563 9.26
    endloop
  endfacet
  facet normal -0 0 1
    outer loop
      vertex 9.28215 6.11631 9.26
      vertex 9.925 2.2 9.26
      vertex 10.5678 6.11631 9.26
    endloop
  endfacet
  facet normal -0 0 1
    outer loop
      vertex 8.02454 5.849 9.26
      vertex 9.925 2.2 9.26
      vertex 9.28215 6.11631 9.26
    endloop
  endfacet
  facet normal 0 0 1
    outer loop
      vertex 9.925 2.2 9.26
      vertex 8.02454 5.849 9.26
      vertex 8.36937 1.55563 9.26
    endloop
  endfacet
  facet normal -0 0 1
    outer loop
      vertex 6.85 5.32606 9.26
      vertex 8.36937 1.55563 9.26
      vertex 8.02454 5.849 9.26
    endloop
  endfacet
  facet normal -0 0 1
    outer loop
      vertex 5.80985 4.57034 9.26
      vertex 8.36937 1.55563 9.26
      vertex 6.85 5.32606 9.26
    endloop
  endfacet
  facet normal 0 0 1
    outer loop
      vertex 14.0402 -4.57034 9.26
      vertex 11.4806 -1.55563 9.26
      vertex 13 -5.32606 9.26
    endloop
  endfacet
  facet normal 0 0 1
    outer loop
      vertex 13 -5.32606 9.26
      vertex 11.4806 -1.55563 9.26
      vertex 11.8255 -5.849 9.26
    endloop
  endfacet
  facet normal -0 0 1
    outer loop
      vertex 9.925 -2.2 9.26
      vertex 11.8255 -5.849 9.26
      vertex 11.4806 -1.55563 9.26
    endloop
  endfacet
  facet normal 0 0 1
    outer loop
      vertex 11.8255 -5.849 9.26
      vertex 9.925 -2.2 9.26
      vertex 10.5678 -6.11631 9.26
    endloop
  endfacet
  facet normal 0 0 1
    outer loop
      vertex 9.925 -2.2 9.26
      vertex 9.28215 -6.11631 9.26
      vertex 10.5678 -6.11631 9.26
    endloop
  endfacet
  facet normal 0 0 1
    outer loop
      vertex 8.02454 -5.849 9.26
      vertex 9.925 -2.2 9.26
      vertex 8.36937 -1.55563 9.26
    endloop
  endfacet
  facet normal 0 0 1
    outer loop
      vertex 9.925 -2.2 9.26
      vertex 8.02454 -5.849 9.26
      vertex 9.28215 -6.11631 9.26
    endloop
  endfacet
  facet normal 0 0 1
    outer loop
      vertex 4.30669 -2.50143 9.26
      vertex 8.36937 -1.55563 9.26
      vertex 7.725 0 9.26
    endloop
  endfacet
  facet normal -0 0 1
    outer loop
      vertex 4.94954 3.61488 9.26
      vertex 8.36937 1.55563 9.26
      vertex 5.80985 4.57034 9.26
    endloop
  endfacet
  facet normal 0 0 1
    outer loop
      vertex 8.36937 -1.55563 9.26
      vertex 6.85 -5.32606 9.26
      vertex 8.02454 -5.849 9.26
    endloop
  endfacet
  facet normal -0 0 1
    outer loop
      vertex 4.30669 2.50143 9.26
      vertex 8.36937 1.55563 9.26
      vertex 4.94954 3.61488 9.26
    endloop
  endfacet
  facet normal 0 0 1
    outer loop
      vertex 8.36937 -1.55563 9.26
      vertex 5.80985 -4.57034 9.26
      vertex 6.85 -5.32606 9.26
    endloop
  endfacet
  facet normal 0 0 1
    outer loop
      vertex 8.36937 1.55563 9.26
      vertex 4.30669 2.50143 9.26
      vertex 7.725 0 9.26
    endloop
  endfacet
  facet normal 0 0 1
    outer loop
      vertex 8.36937 -1.55563 9.26
      vertex 4.94954 -3.61488 9.26
      vertex 5.80985 -4.57034 9.26
    endloop
  endfacet
  facet normal -0 0 1
    outer loop
      vertex 3.90939 1.27866 9.26
      vertex 7.725 0 9.26
      vertex 4.30669 2.50143 9.26
    endloop
  endfacet
  facet normal 0 0 1
    outer loop
      vertex 8.36937 -1.55563 9.26
      vertex 4.30669 -2.50143 9.26
      vertex 4.94954 -3.61488 9.26
    endloop
  endfacet
  facet normal 0 0 1
    outer loop
      vertex 3.775 0 9.26
      vertex 7.725 0 9.26
      vertex 3.90939 1.27866 9.26
    endloop
  endfacet
  facet normal 0 0 1
    outer loop
      vertex 7.725 0 9.26
      vertex 3.90939 -1.27866 9.26
      vertex 4.30669 -2.50143 9.26
    endloop
  endfacet
  facet normal 0 0 1
    outer loop
      vertex 7.725 0 9.26
      vertex 3.775 0 9.26
      vertex 3.90939 -1.27866 9.26
    endloop
  endfacet
  facet normal -0.587785 0.809017 0
    outer loop
      vertex 6.85 5.32606 4.5
      vertex 5.80985 4.57034 9.26
      vertex 6.85 5.32606 9.26
    endloop
  endfacet
  facet normal -0.587785 0.809017 0
    outer loop
      vertex 5.80985 4.57034 9.26
      vertex 6.85 5.32606 4.5
      vertex 5.80985 4.57034 4.5
    endloop
  endfacet
  facet normal -0.207912 0.978148 0
    outer loop
      vertex 9.28215 6.11631 4.5
      vertex 8.02454 5.849 9.26
      vertex 9.28215 6.11631 9.26
    endloop
  endfacet
  facet normal -0.207912 0.978148 0
    outer loop
      vertex 8.02454 5.849 9.26
      vertex 9.28215 6.11631 4.5
      vertex 8.02454 5.849 4.5
    endloop
  endfacet
  facet normal 0.207912 -0.978148 0
    outer loop
      vertex 10.5678 -6.11631 4.5
      vertex 11.8255 -5.849 9.26
      vertex 10.5678 -6.11631 9.26
    endloop
  endfacet
  facet normal 0.207912 -0.978148 0
    outer loop
      vertex 11.8255 -5.849 9.26
      vertex 10.5678 -6.11631 4.5
      vertex 11.8255 -5.849 4.5
    endloop
  endfacet
  facet normal 0.587785 -0.809017 0
    outer loop
      vertex 13 -5.32606 4.5
      vertex 14.0402 -4.57034 9.26
      vertex 13 -5.32606 9.26
    endloop
  endfacet
  facet normal 0.587785 -0.809017 0
    outer loop
      vertex 14.0402 -4.57034 9.26
      vertex 13 -5.32606 4.5
      vertex 14.0402 -4.57034 4.5
    endloop
  endfacet
  facet normal -0.587785 -0.809017 0
    outer loop
      vertex 5.80985 -4.57034 4.5
      vertex 6.85 -5.32606 9.26
      vertex 5.80985 -4.57034 9.26
    endloop
  endfacet
  facet normal -0.587785 -0.809017 -0
    outer loop
      vertex 6.85 -5.32606 9.26
      vertex 5.80985 -4.57034 4.5
      vertex 6.85 -5.32606 4.5
    endloop
  endfacet
  facet normal -0.207912 -0.978148 0
    outer loop
      vertex 8.02454 -5.849 4.5
      vertex 9.28215 -6.11631 9.26
      vertex 8.02454 -5.849 9.26
    endloop
  endfacet
  facet normal -0.207912 -0.978148 -0
    outer loop
      vertex 9.28215 -6.11631 9.26
      vertex 8.02454 -5.849 4.5
      vertex 9.28215 -6.11631 4.5
    endloop
  endfacet
  facet normal -0.743145 -0.66913 0
    outer loop
      vertex 5.80985 -4.57034 4.5
      vertex 4.94954 -3.61488 9.26
      vertex 4.94954 -3.61488 4.5
    endloop
  endfacet
  facet normal -0.743145 -0.66913 0
    outer loop
      vertex 4.94954 -3.61488 9.26
      vertex 5.80985 -4.57034 4.5
      vertex 5.80985 -4.57034 9.26
    endloop
  endfacet
  facet normal -0.994522 -0.104528 0
    outer loop
      vertex 3.90939 -1.27866 4.5
      vertex 3.775 0 9.26
      vertex 3.775 0 4.5
    endloop
  endfacet
  facet normal -0.994522 -0.104528 0
    outer loop
      vertex 3.775 0 9.26
      vertex 3.90939 -1.27866 4.5
      vertex 3.90939 -1.27866 9.26
    endloop
  endfacet
  facet normal 0.406737 -0.913545 0
    outer loop
      vertex 11.8255 -5.849 4.5
      vertex 13 -5.32606 9.26
      vertex 11.8255 -5.849 9.26
    endloop
  endfacet
  facet normal 0.406737 -0.913545 0
    outer loop
      vertex 13 -5.32606 9.26
      vertex 11.8255 -5.849 4.5
      vertex 13 -5.32606 4.5
    endloop
  endfacet
  facet normal 0.743145 -0.66913 0
    outer loop
      vertex 14.0402 -4.57034 9.26
      vertex 14.9005 -3.61488 4.5
      vertex 14.9005 -3.61488 9.26
    endloop
  endfacet
  facet normal 0.743145 -0.66913 0
    outer loop
      vertex 14.9005 -3.61488 4.5
      vertex 14.0402 -4.57034 9.26
      vertex 14.0402 -4.57034 4.5
    endloop
  endfacet
  facet normal 0.951057 -0.309017 0
    outer loop
      vertex 15.5433 -2.50143 9.26
      vertex 15.9406 -1.27866 4.5
      vertex 15.9406 -1.27866 9.26
    endloop
  endfacet
  facet normal 0.951057 -0.309017 0
    outer loop
      vertex 15.9406 -1.27866 4.5
      vertex 15.5433 -2.50143 9.26
      vertex 15.5433 -2.50143 4.5
    endloop
  endfacet
  facet normal -0.406737 -0.913545 0
    outer loop
      vertex 6.85 -5.32606 4.5
      vertex 8.02454 -5.849 9.26
      vertex 6.85 -5.32606 9.26
    endloop
  endfacet
  facet normal -0.406737 -0.913545 -0
    outer loop
      vertex 8.02454 -5.849 9.26
      vertex 6.85 -5.32606 4.5
      vertex 8.02454 -5.849 4.5
    endloop
  endfacet
  facet normal -0.866025 -0.5 0
    outer loop
      vertex 4.94954 -3.61488 4.5
      vertex 4.30669 -2.50143 9.26
      vertex 4.30669 -2.50143 4.5
    endloop
  endfacet
  facet normal -0.866025 -0.5 0
    outer loop
      vertex 4.30669 -2.50143 9.26
      vertex 4.94954 -3.61488 4.5
      vertex 4.94954 -3.61488 9.26
    endloop
  endfacet
  facet normal 0.994522 -0.10453 0
    outer loop
      vertex 15.9406 -1.27866 9.26
      vertex 16.075 0 4.5
      vertex 16.075 0 9.26
    endloop
  endfacet
  facet normal 0.994522 -0.10453 0
    outer loop
      vertex 16.075 0 4.5
      vertex 15.9406 -1.27866 9.26
      vertex 15.9406 -1.27866 4.5
    endloop
  endfacet
  facet normal -1 0 0
    outer loop
      vertex -34.925 -11.9225 -4.5
      vertex -34.925 11.9225 4.5
      vertex -34.925 11.9225 -4.5
    endloop
  endfacet
  facet normal -1 -0 0
    outer loop
      vertex -34.925 11.9225 4.5
      vertex -34.925 -11.9225 -4.5
      vertex -34.925 -11.9225 4.5
    endloop
  endfacet
  facet normal 0 0 1
    outer loop
      vertex 31.925 14.9225 4.5
      vertex 34.925 11.9225 4.5
      vertex 34.0463 14.0438 4.5
    endloop
  endfacet
  facet normal 0 0 1
    outer loop
      vertex 23.495 2.65 4.5
      vertex 34.925 11.9225 4.5
      vertex 31.925 14.9225 4.5
    endloop
  endfacet
  facet normal 0 0 1
    outer loop
      vertex 34.925 11.9225 4.5
      vertex 23.495 2.65 4.5
      vertex 34.925 2.65 4.5
    endloop
  endfacet
  facet normal -0 0 1
    outer loop
      vertex 14.0402 4.57034 4.5
      vertex 23.495 2.65 4.5
      vertex 31.925 14.9225 4.5
    endloop
  endfacet
  facet normal -0 0 1
    outer loop
      vertex 15.9406 1.27866 4.5
      vertex 20.845 0 4.5
      vertex 21.6212 1.87383 4.5
    endloop
  endfacet
  facet normal 0 0 1
    outer loop
      vertex 23.495 2.65 4.5
      vertex 14.0402 4.57034 4.5
      vertex 21.6212 1.87383 4.5
    endloop
  endfacet
  facet normal 0 0 1
    outer loop
      vertex 20.845 0 4.5
      vertex 15.9406 1.27866 4.5
      vertex 16.075 0 4.5
    endloop
  endfacet
  facet normal 0 0 1
    outer loop
      vertex 21.6212 1.87383 4.5
      vertex 15.5433 2.50143 4.5
      vertex 15.9406 1.27866 4.5
    endloop
  endfacet
  facet normal 0 0 1
    outer loop
      vertex 21.6212 1.87383 4.5
      vertex 14.9005 3.61488 4.5
      vertex 15.5433 2.50143 4.5
    endloop
  endfacet
  facet normal 0 0 1
    outer loop
      vertex 21.6212 1.87383 4.5
      vertex 14.0402 4.57034 4.5
      vertex 14.9005 3.61488 4.5
    endloop
  endfacet
  facet normal 0 0 1
    outer loop
      vertex 31.925 14.9225 4.5
      vertex 13 5.32606 4.5
      vertex 14.0402 4.57034 4.5
    endloop
  endfacet
  facet normal 0 0 1
    outer loop
      vertex 31.925 14.9225 4.5
      vertex 11.8255 5.849 4.5
      vertex 13 5.32606 4.5
    endloop
  endfacet
  facet normal 0 0 1
    outer loop
      vertex 31.925 14.9225 4.5
      vertex 10.5678 6.11631 4.5
      vertex 11.8255 5.849 4.5
    endloop
  endfacet
  facet normal 0 0 1
    outer loop
      vertex 31.925 14.9225 4.5
      vertex 9.28215 6.11631 4.5
      vertex 10.5678 6.11631 4.5
    endloop
  endfacet
  facet normal -0 0 1
    outer loop
      vertex -31.925 14.9225 4.5
      vertex 9.28215 6.11631 4.5
      vertex 31.925 14.9225 4.5
    endloop
  endfacet
  facet normal 0 0 1
    outer loop
      vertex 3.90939 1.27866 4.5
      vertex -11.955 0 4.5
      vertex 3.775 0 4.5
    endloop
  endfacet
  facet normal -0 0 1
    outer loop
      vertex -12.7312 1.87383 4.5
      vertex 3.90939 1.27866 4.5
      vertex 4.30669 2.50143 4.5
    endloop
  endfacet
  facet normal 0 0 1
    outer loop
      vertex -12.7312 1.87383 4.5
      vertex 4.30669 2.50143 4.5
      vertex 4.94954 3.61488 4.5
    endloop
  endfacet
  facet normal 0 0 1
    outer loop
      vertex -12.7312 1.87383 4.5
      vertex 4.94954 3.61488 4.5
      vertex 5.80985 4.57034 4.5
    endloop
  endfacet
  facet normal 0 0 1
    outer loop
      vertex -14.605 2.65 4.5
      vertex 5.80985 4.57034 4.5
      vertex 6.85 5.32606 4.5
    endloop
  endfacet
  facet normal 0 0 1
    outer loop
      vertex -31.925 14.9225 4.5
      vertex 6.85 5.32606 4.5
      vertex 8.02454 5.849 4.5
    endloop
  endfacet
  facet normal 0 0 1
    outer loop
      vertex 9.28215 6.11631 4.5
      vertex -31.925 14.9225 4.5
      vertex 8.02454 5.849 4.5
    endloop
  endfacet
  facet normal 0 0 1
    outer loop
      vertex 3.90939 1.27866 4.5
      vertex -12.7312 1.87383 4.5
      vertex -11.955 0 4.5
    endloop
  endfacet
  facet normal 0 0 1
    outer loop
      vertex 5.80985 4.57034 4.5
      vertex -14.605 2.65 4.5
      vertex -12.7312 1.87383 4.5
    endloop
  endfacet
  facet normal 0 0 1
    outer loop
      vertex 6.85 5.32606 4.5
      vertex -31.925 14.9225 4.5
      vertex -14.605 2.65 4.5
    endloop
  endfacet
  facet normal 0 0 1
    outer loop
      vertex -27.305 2.65 4.5
      vertex -34.925 11.9225 4.5
      vertex -29.1788 1.87383 4.5
    endloop
  endfacet
  facet normal -0 0 1
    outer loop
      vertex -34.925 11.9225 4.5
      vertex -27.305 2.65 4.5
      vertex -31.925 14.9225 4.5
    endloop
  endfacet
  facet normal 0 0 1
    outer loop
      vertex -14.605 2.65 4.5
      vertex -31.925 14.9225 4.5
      vertex -27.305 2.65 4.5
    endloop
  endfacet
  facet normal -0 0 1
    outer loop
      vertex 23.495 -2.65 4.5
      vertex 34.925 -11.9225 4.5
      vertex 34.925 -2.65 4.5
    endloop
  endfacet
  facet normal 0 0 1
    outer loop
      vertex 34.925 -11.9225 4.5
      vertex 31.925 -14.9225 4.5
      vertex 34.0463 -14.0438 4.5
    endloop
  endfacet
  facet normal 0 0 1
    outer loop
      vertex 34.925 -11.9225 4.5
      vertex 23.495 -2.65 4.5
      vertex 31.925 -14.9225 4.5
    endloop
  endfacet
  facet normal 0 0 1
    outer loop
      vertex 14.0402 -4.57034 4.5
      vertex 23.495 -2.65 4.5
      vertex 21.6212 -1.87383 4.5
    endloop
  endfacet
  facet normal 0 0 1
    outer loop
      vertex 15.9406 -1.27866 4.5
      vertex 20.845 0 4.5
      vertex 16.075 0 4.5
    endloop
  endfacet
  facet normal 0 0 1
    outer loop
      vertex 20.845 0 4.5
      vertex 15.9406 -1.27866 4.5
      vertex 21.6212 -1.87383 4.5
    endloop
  endfacet
  facet normal 0 0 1
    outer loop
      vertex 15.5433 -2.50143 4.5
      vertex 21.6212 -1.87383 4.5
      vertex 15.9406 -1.27866 4.5
    endloop
  endfacet
  facet normal 0 0 1
    outer loop
      vertex 14.9005 -3.61488 4.5
      vertex 21.6212 -1.87383 4.5
      vertex 15.5433 -2.50143 4.5
    endloop
  endfacet
  facet normal 0 0 1
    outer loop
      vertex 14.0402 -4.57034 4.5
      vertex 21.6212 -1.87383 4.5
      vertex 14.9005 -3.61488 4.5
    endloop
  endfacet
  facet normal 0 0 1
    outer loop
      vertex 23.495 -2.65 4.5
      vertex 14.0402 -4.57034 4.5
      vertex 31.925 -14.9225 4.5
    endloop
  endfacet
  facet normal -0 0 1
    outer loop
      vertex 13 -5.32606 4.5
      vertex 31.925 -14.9225 4.5
      vertex 14.0402 -4.57034 4.5
    endloop
  endfacet
  facet normal -0 0 1
    outer loop
      vertex 11.8255 -5.849 4.5
      vertex 31.925 -14.9225 4.5
      vertex 13 -5.32606 4.5
    endloop
  endfacet
  facet normal -0 0 1
    outer loop
      vertex 10.5678 -6.11631 4.5
      vertex 31.925 -14.9225 4.5
      vertex 11.8255 -5.849 4.5
    endloop
  endfacet
  facet normal -0 0 1
    outer loop
      vertex 9.28215 -6.11631 4.5
      vertex 31.925 -14.9225 4.5
      vertex 10.5678 -6.11631 4.5
    endloop
  endfacet
  facet normal 0 0 1
    outer loop
      vertex -31.925 -14.9225 4.5
      vertex 9.28215 -6.11631 4.5
      vertex 8.02454 -5.849 4.5
    endloop
  endfacet
  facet normal -0 0 1
    outer loop
      vertex -11.955 0 4.5
      vertex 3.90939 -1.27866 4.5
      vertex 3.775 0 4.5
    endloop
  endfacet
  facet normal 0 0 1
    outer loop
      vertex -12.7312 -1.87383 4.5
      vertex 3.90939 -1.27866 4.5
      vertex -11.955 0 4.5
    endloop
  endfacet
  facet normal 0 0 1
    outer loop
      vertex 3.90939 -1.27866 4.5
      vertex -12.7312 -1.87383 4.5
      vertex 4.30669 -2.50143 4.5
    endloop
  endfacet
  facet normal 0 0 1
    outer loop
      vertex 4.30669 -2.50143 4.5
      vertex -12.7312 -1.87383 4.5
      vertex 4.94954 -3.61488 4.5
    endloop
  endfacet
  facet normal 0 0 1
    outer loop
      vertex 4.94954 -3.61488 4.5
      vertex -12.7312 -1.87383 4.5
      vertex 5.80985 -4.57034 4.5
    endloop
  endfacet
  facet normal -0 0 1
    outer loop
      vertex -14.605 -2.65 4.5
      vertex 5.80985 -4.57034 4.5
      vertex -12.7312 -1.87383 4.5
    endloop
  endfacet
  facet normal 0 0 1
    outer loop
      vertex 5.80985 -4.57034 4.5
      vertex -14.605 -2.65 4.5
      vertex 6.85 -5.32606 4.5
    endloop
  endfacet
  facet normal 0 0 1
    outer loop
      vertex -31.925 -14.9225 4.5
      vertex 6.85 -5.32606 4.5
      vertex -14.605 -2.65 4.5
    endloop
  endfacet
  facet normal 0 0 1
    outer loop
      vertex 6.85 -5.32606 4.5
      vertex -31.925 -14.9225 4.5
      vertex 8.02454 -5.849 4.5
    endloop
  endfacet
  facet normal 0 0 1
    outer loop
      vertex -31.925 -14.9225 4.5
      vertex -14.605 -2.65 4.5
      vertex -27.305 -2.65 4.5
    endloop
  endfacet
  facet normal 0 0 1
    outer loop
      vertex 9.28215 -6.11631 4.5
      vertex -31.925 -14.9225 4.5
      vertex 31.925 -14.9225 4.5
    endloop
  endfacet
  facet normal 0 0 1
    outer loop
      vertex -34.925 -11.9225 4.5
      vertex -27.305 -2.65 4.5
      vertex -29.1788 -1.87383 4.5
    endloop
  endfacet
  facet normal 0 0 1
    outer loop
      vertex -34.925 -11.9225 4.5
      vertex -29.1788 -1.87383 4.5
      vertex -29.955 0 4.5
    endloop
  endfacet
  facet normal 0 0 1
    outer loop
      vertex -29.1788 1.87383 4.5
      vertex -34.925 11.9225 4.5
      vertex -29.955 0 4.5
    endloop
  endfacet
  facet normal 0 0 1
    outer loop
      vertex -34.925 11.9225 4.5
      vertex -31.925 14.9225 4.5
      vertex -34.0463 14.0438 4.5
    endloop
  endfacet
  facet normal 0 0 1
    outer loop
      vertex -34.925 -11.9225 4.5
      vertex -29.955 0 4.5
      vertex -34.925 11.9225 4.5
    endloop
  endfacet
  facet normal 0 0 1
    outer loop
      vertex -27.305 -2.65 4.5
      vertex -34.925 -11.9225 4.5
      vertex -31.925 -14.9225 4.5
    endloop
  endfacet
  facet normal 0 0 1
    outer loop
      vertex -31.925 -14.9225 4.5
      vertex -34.925 -11.9225 4.5
      vertex -34.0463 -14.0438 4.5
    endloop
  endfacet
  facet normal 0 -1 0
    outer loop
      vertex -31.925 -14.9225 -4.5
      vertex 31.925 -14.9225 4.5
      vertex -31.925 -14.9225 4.5
    endloop
  endfacet
  facet normal 0 -1 -0
    outer loop
      vertex 31.925 -14.9225 4.5
      vertex -31.925 -14.9225 -4.5
      vertex 31.925 -14.9225 -4.5
    endloop
  endfacet
  facet normal -0.923879 -0.382684 0
    outer loop
      vertex -34.0463 -14.0438 -4.5
      vertex -34.925 -11.9225 4.5
      vertex -34.925 -11.9225 -4.5
    endloop
  endfacet
  facet normal -0.923879 -0.382684 0
    outer loop
      vertex -34.925 -11.9225 4.5
      vertex -34.0463 -14.0438 -4.5
      vertex -34.0463 -14.0438 4.5
    endloop
  endfacet
  facet normal -0.923879 0.382684 0
    outer loop
      vertex -34.925 11.9225 -4.5
      vertex -34.0463 14.0438 4.5
      vertex -34.0463 14.0438 -4.5
    endloop
  endfacet
  facet normal -0.923879 0.382684 0
    outer loop
      vertex -34.0463 14.0438 4.5
      vertex -34.925 11.9225 -4.5
      vertex -34.925 11.9225 4.5
    endloop
  endfacet
  facet normal -0.382684 0.923879 0
    outer loop
      vertex -31.925 14.9225 -4.5
      vertex -34.0463 14.0438 4.5
      vertex -31.925 14.9225 4.5
    endloop
  endfacet
  facet normal -0.382684 0.923879 0
    outer loop
      vertex -34.0463 14.0438 4.5
      vertex -31.925 14.9225 -4.5
      vertex -34.0463 14.0438 -4.5
    endloop
  endfacet
  facet normal 0 1 -0
    outer loop
      vertex 31.925 14.9225 -4.5
      vertex -31.925 14.9225 4.5
      vertex 31.925 14.9225 4.5
    endloop
  endfacet
  facet normal 0 1 0
    outer loop
      vertex -31.925 14.9225 4.5
      vertex 31.925 14.9225 -4.5
      vertex -31.925 14.9225 -4.5
    endloop
  endfacet
  facet normal 0.382684 -0.923879 0
    outer loop
      vertex 31.925 -14.9225 -4.5
      vertex 34.0463 -14.0438 4.5
      vertex 31.925 -14.9225 4.5
    endloop
  endfacet
  facet normal 0.382684 -0.923879 0
    outer loop
      vertex 34.0463 -14.0438 4.5
      vertex 31.925 -14.9225 -4.5
      vertex 34.0463 -14.0438 -4.5
    endloop
  endfacet
  facet normal -0.382684 -0.923879 0
    outer loop
      vertex -34.0463 -14.0438 -4.5
      vertex -31.925 -14.9225 4.5
      vertex -34.0463 -14.0438 4.5
    endloop
  endfacet
  facet normal -0.382684 -0.923879 -0
    outer loop
      vertex -31.925 -14.9225 4.5
      vertex -34.0463 -14.0438 -4.5
      vertex -31.925 -14.9225 -4.5
    endloop
  endfacet
  facet normal 0.382684 0.923879 -0
    outer loop
      vertex 34.0463 14.0438 -4.5
      vertex 31.925 14.9225 4.5
      vertex 34.0463 14.0438 4.5
    endloop
  endfacet
  facet normal 0.382684 0.923879 0
    outer loop
      vertex 31.925 14.9225 4.5
      vertex 34.0463 14.0438 -4.5
      vertex 31.925 14.9225 -4.5
    endloop
  endfacet
  facet normal 1 -0 0
    outer loop
      vertex 34.925 2.65 4.5
      vertex 34.925 11.9225 -4.5
      vertex 34.925 11.9225 4.5
    endloop
  endfacet
  facet normal 1 0 0
    outer loop
      vertex 34.925 11.9225 -4.5
      vertex 34.925 2.65 4.5
      vertex 34.925 2.65 -4.5
    endloop
  endfacet
  facet normal 1 -0 0
    outer loop
      vertex 34.925 -11.9225 4.5
      vertex 34.925 -2.65 -4.5
      vertex 34.925 -2.65 4.5
    endloop
  endfacet
  facet normal 1 0 0
    outer loop
      vertex 34.925 -2.65 -4.5
      vertex 34.925 -11.9225 4.5
      vertex 34.925 -11.9225 -4.5
    endloop
  endfacet
  facet normal 0.923879 -0.382684 0
    outer loop
      vertex 34.0463 -14.0438 4.5
      vertex 34.925 -11.9225 -4.5
      vertex 34.925 -11.9225 4.5
    endloop
  endfacet
  facet normal 0.923879 -0.382684 0
    outer loop
      vertex 34.925 -11.9225 -4.5
      vertex 34.0463 -14.0438 4.5
      vertex 34.0463 -14.0438 -4.5
    endloop
  endfacet
  facet normal 0.923879 0.382684 0
    outer loop
      vertex 34.925 11.9225 4.5
      vertex 34.0463 14.0438 -4.5
      vertex 34.0463 14.0438 4.5
    endloop
  endfacet
  facet normal 0.923879 0.382684 0
    outer loop
      vertex 34.0463 14.0438 -4.5
      vertex 34.925 11.9225 4.5
      vertex 34.925 11.9225 -4.5
    endloop
  endfacet
  facet normal -0.923879 -0.382684 0
    outer loop
      vertex 12.125 0 2.5
      vertex 11.4806 1.55563 9.26
      vertex 11.4806 1.55563 2.5
    endloop
  endfacet
  facet normal -0.923879 -0.382684 0
    outer loop
      vertex 11.4806 1.55563 9.26
      vertex 12.125 0 2.5
      vertex 12.125 0 9.26
    endloop
  endfacet
  facet normal 0.923879 -0.382684 0
    outer loop
      vertex 7.725 0 9.26
      vertex 8.36937 1.55563 2.5
      vertex 8.36937 1.55563 9.26
    endloop
  endfacet
  facet normal 0.923879 -0.382684 0
    outer loop
      vertex 8.36937 1.55563 2.5
      vertex 7.725 0 9.26
      vertex 7.725 0 2.5
    endloop
  endfacet
  facet normal -0.382684 -0.923879 0
    outer loop
      vertex 9.925 2.2 2.5
      vertex 11.4806 1.55563 9.26
      vertex 9.925 2.2 9.26
    endloop
  endfacet
  facet normal -0.382684 -0.923879 -0
    outer loop
      vertex 11.4806 1.55563 9.26
      vertex 9.925 2.2 2.5
      vertex 11.4806 1.55563 2.5
    endloop
  endfacet
  facet normal 0.382684 -0.923879 0
    outer loop
      vertex 8.36937 1.55563 2.5
      vertex 9.925 2.2 9.26
      vertex 8.36937 1.55563 9.26
    endloop
  endfacet
  facet normal 0.382684 -0.923879 0
    outer loop
      vertex 9.925 2.2 9.26
      vertex 8.36937 1.55563 2.5
      vertex 9.925 2.2 2.5
    endloop
  endfacet
  facet normal -0.382684 0.923879 0
    outer loop
      vertex 11.4806 -1.55563 2.5
      vertex 9.925 -2.2 9.26
      vertex 11.4806 -1.55563 9.26
    endloop
  endfacet
  facet normal -0.382684 0.923879 0
    outer loop
      vertex 9.925 -2.2 9.26
      vertex 11.4806 -1.55563 2.5
      vertex 9.925 -2.2 2.5
    endloop
  endfacet
  facet normal 0.923879 0.382684 0
    outer loop
      vertex 8.36937 -1.55563 9.26
      vertex 7.725 0 2.5
      vertex 7.725 0 9.26
    endloop
  endfacet
  facet normal 0.923879 0.382684 0
    outer loop
      vertex 7.725 0 2.5
      vertex 8.36937 -1.55563 9.26
      vertex 8.36937 -1.55563 2.5
    endloop
  endfacet
  facet normal -0.923879 0.382684 0
    outer loop
      vertex 11.4806 -1.55563 2.5
      vertex 12.125 0 9.26
      vertex 12.125 0 2.5
    endloop
  endfacet
  facet normal -0.923879 0.382684 0
    outer loop
      vertex 12.125 0 9.26
      vertex 11.4806 -1.55563 2.5
      vertex 11.4806 -1.55563 9.26
    endloop
  endfacet
  facet normal 0.382684 0.923879 -0
    outer loop
      vertex 9.925 -2.2 2.5
      vertex 8.36937 -1.55563 9.26
      vertex 9.925 -2.2 9.26
    endloop
  endfacet
  facet normal 0.382684 0.923879 0
    outer loop
      vertex 8.36937 -1.55563 9.26
      vertex 9.925 -2.2 2.5
      vertex 8.36937 -1.55563 2.5
    endloop
  endfacet
  facet normal -0.965926 -0.258818 0
    outer loop
      vertex 16.3808 1.37222 -4.5
      vertex 16.202 2.03951 2.5
      vertex 16.202 2.03951 -4.5
    endloop
  endfacet
  facet normal -0.965926 -0.258818 0
    outer loop
      vertex 16.202 2.03951 2.5
      vertex 16.3808 1.37222 -4.5
      vertex 16.3808 1.37222 2.5
    endloop
  endfacet
  facet normal -0.99863 -0.0523363 0
    outer loop
      vertex 16.525 0 -4.5
      vertex 16.4888 0.689887 2.5
      vertex 16.4888 0.689887 -4.5
    endloop
  endfacet
  facet normal -0.99863 -0.0523363 0
    outer loop
      vertex 16.4888 0.689887 2.5
      vertex 16.525 0 -4.5
      vertex 16.525 0 2.5
    endloop
  endfacet
  facet normal 0.99863 -0.0523363 0
    outer loop
      vertex 3.325 0 2.5
      vertex 3.36116 0.689887 -4.5
      vertex 3.36116 0.689887 2.5
    endloop
  endfacet
  facet normal 0.99863 -0.0523363 0
    outer loop
      vertex 3.36116 0.689887 -4.5
      vertex 3.325 0 2.5
      vertex 3.325 0 -4.5
    endloop
  endfacet
  facet normal -0.0523363 -0.99863 0
    outer loop
      vertex 9.925 6.6 -4.5
      vertex 10.6149 6.56384 2.5
      vertex 9.925 6.6 2.5
    endloop
  endfacet
  facet normal -0.0523363 -0.99863 -0
    outer loop
      vertex 10.6149 6.56384 2.5
      vertex 9.925 6.6 -4.5
      vertex 10.6149 6.56384 -4.5
    endloop
  endfacet
  facet normal -0.707107 -0.707107 0
    outer loop
      vertex 14.8298 4.41626 -4.5
      vertex 14.3413 4.90476 2.5
      vertex 14.3413 4.90476 -4.5
    endloop
  endfacet
  facet normal -0.707107 -0.707107 0
    outer loop
      vertex 14.3413 4.90476 2.5
      vertex 14.8298 4.41626 -4.5
      vertex 14.8298 4.41626 2.5
    endloop
  endfacet
  facet normal 0.62932 -0.777146 0
    outer loop
      vertex 5.50874 4.90476 -4.5
      vertex 6.04562 5.33951 2.5
      vertex 5.50874 4.90476 2.5
    endloop
  endfacet
  facet normal 0.62932 -0.777146 0
    outer loop
      vertex 6.04562 5.33951 2.5
      vertex 5.50874 4.90476 -4.5
      vertex 6.04562 5.33951 -4.5
    endloop
  endfacet
  facet normal 0.358368 -0.933581 0
    outer loop
      vertex 7.24054 6.0294 -4.5
      vertex 7.88549 6.27697 2.5
      vertex 7.24054 6.0294 2.5
    endloop
  endfacet
  facet normal 0.358368 -0.933581 0
    outer loop
      vertex 7.88549 6.27697 2.5
      vertex 7.24054 6.0294 -4.5
      vertex 7.88549 6.27697 -4.5
    endloop
  endfacet
  facet normal 0.777146 0.62932 0
    outer loop
      vertex 5.02024 -4.41626 2.5
      vertex 4.58549 -3.87938 -4.5
      vertex 4.58549 -3.87938 2.5
    endloop
  endfacet
  facet normal 0.777146 0.62932 0
    outer loop
      vertex 4.58549 -3.87938 -4.5
      vertex 5.02024 -4.41626 2.5
      vertex 5.02024 -4.41626 -4.5
    endloop
  endfacet
  facet normal -0.933581 -0.358368 0
    outer loop
      vertex 16.202 2.03951 -4.5
      vertex 15.9544 2.68446 2.5
      vertex 15.9544 2.68446 -4.5
    endloop
  endfacet
  facet normal -0.933581 -0.358368 0
    outer loop
      vertex 15.9544 2.68446 2.5
      vertex 16.202 2.03951 -4.5
      vertex 16.202 2.03951 2.5
    endloop
  endfacet
  facet normal -0.453992 -0.891006 0
    outer loop
      vertex 12.6095 6.0294 -4.5
      vertex 13.225 5.71577 2.5
      vertex 12.6095 6.0294 2.5
    endloop
  endfacet
  facet normal -0.453992 -0.891006 -0
    outer loop
      vertex 13.225 5.71577 2.5
      vertex 12.6095 6.0294 -4.5
      vertex 13.225 5.71577 -4.5
    endloop
  endfacet
  facet normal -0.62932 -0.777146 0
    outer loop
      vertex 13.8044 5.33951 -4.5
      vertex 14.3413 4.90476 2.5
      vertex 13.8044 5.33951 2.5
    endloop
  endfacet
  facet normal -0.62932 -0.777146 -0
    outer loop
      vertex 14.3413 4.90476 2.5
      vertex 13.8044 5.33951 -4.5
      vertex 14.3413 4.90476 -4.5
    endloop
  endfacet
  facet normal 0.838671 -0.544638 0
    outer loop
      vertex 4.20923 3.3 2.5
      vertex 4.58549 3.87938 -4.5
      vertex 4.58549 3.87938 2.5
    endloop
  endfacet
  facet normal 0.838671 -0.544638 0
    outer loop
      vertex 4.58549 3.87938 -4.5
      vertex 4.20923 3.3 2.5
      vertex 4.20923 3.3 -4.5
    endloop
  endfacet
  facet normal 0.777146 -0.62932 0
    outer loop
      vertex 4.58549 3.87938 2.5
      vertex 5.02024 4.41626 -4.5
      vertex 5.02024 4.41626 2.5
    endloop
  endfacet
  facet normal 0.777146 -0.62932 0
    outer loop
      vertex 5.02024 4.41626 -4.5
      vertex 4.58549 3.87938 2.5
      vertex 4.58549 3.87938 -4.5
    endloop
  endfacet
  facet normal 0.544638 -0.838671 0
    outer loop
      vertex 6.04562 5.33951 -4.5
      vertex 6.625 5.71577 2.5
      vertex 6.04562 5.33951 2.5
    endloop
  endfacet
  facet normal 0.544638 -0.838671 0
    outer loop
      vertex 6.625 5.71577 2.5
      vertex 6.04562 5.33951 -4.5
      vertex 6.625 5.71577 -4.5
    endloop
  endfacet
  facet normal -0.891006 0.453992 0
    outer loop
      vertex 15.6408 -3.3 -4.5
      vertex 15.9544 -2.68446 2.5
      vertex 15.9544 -2.68446 -4.5
    endloop
  endfacet
  facet normal -0.891006 0.453992 0
    outer loop
      vertex 15.9544 -2.68446 2.5
      vertex 15.6408 -3.3 -4.5
      vertex 15.6408 -3.3 2.5
    endloop
  endfacet
  facet normal -0.258818 0.965926 0
    outer loop
      vertex 11.9645 -6.27697 -4.5
      vertex 11.2972 -6.45577 2.5
      vertex 11.9645 -6.27697 2.5
    endloop
  endfacet
  facet normal -0.258818 0.965926 0
    outer loop
      vertex 11.2972 -6.45577 2.5
      vertex 11.9645 -6.27697 -4.5
      vertex 11.2972 -6.45577 -4.5
    endloop
  endfacet
  facet normal -0.707107 0.707107 0
    outer loop
      vertex 14.3413 -4.90476 -4.5
      vertex 14.8298 -4.41626 2.5
      vertex 14.8298 -4.41626 -4.5
    endloop
  endfacet
  facet normal -0.707107 0.707107 0
    outer loop
      vertex 14.8298 -4.41626 2.5
      vertex 14.3413 -4.90476 -4.5
      vertex 14.3413 -4.90476 2.5
    endloop
  endfacet
  facet normal -0.965926 0.258818 0
    outer loop
      vertex 16.202 -2.03951 -4.5
      vertex 16.3808 -1.37222 2.5
      vertex 16.3808 -1.37222 -4.5
    endloop
  endfacet
  facet normal -0.965926 0.258818 0
    outer loop
      vertex 16.3808 -1.37222 2.5
      vertex 16.202 -2.03951 -4.5
      vertex 16.202 -2.03951 2.5
    endloop
  endfacet
  facet normal 0.358368 0.933581 -0
    outer loop
      vertex 7.88549 -6.27697 -4.5
      vertex 7.24054 -6.0294 2.5
      vertex 7.88549 -6.27697 2.5
    endloop
  endfacet
  facet normal 0.358368 0.933581 0
    outer loop
      vertex 7.24054 -6.0294 2.5
      vertex 7.88549 -6.27697 -4.5
      vertex 7.24054 -6.0294 -4.5
    endloop
  endfacet
  facet normal 0.544638 0.838671 -0
    outer loop
      vertex 6.625 -5.71577 -4.5
      vertex 6.04562 -5.33951 2.5
      vertex 6.625 -5.71577 2.5
    endloop
  endfacet
  facet normal 0.544638 0.838671 0
    outer loop
      vertex 6.04562 -5.33951 2.5
      vertex 6.625 -5.71577 -4.5
      vertex 6.04562 -5.33951 -4.5
    endloop
  endfacet
  facet normal -0.891006 -0.453992 0
    outer loop
      vertex 15.9544 2.68446 -4.5
      vertex 15.6408 3.3 2.5
      vertex 15.6408 3.3 -4.5
    endloop
  endfacet
  facet normal -0.891006 -0.453992 0
    outer loop
      vertex 15.6408 3.3 2.5
      vertex 15.9544 2.68446 -4.5
      vertex 15.9544 2.68446 2.5
    endloop
  endfacet
  facet normal -0.777146 -0.62932 0
    outer loop
      vertex 15.2645 3.87938 -4.5
      vertex 14.8298 4.41626 2.5
      vertex 14.8298 4.41626 -4.5
    endloop
  endfacet
  facet normal -0.777146 -0.62932 0
    outer loop
      vertex 14.8298 4.41626 2.5
      vertex 15.2645 3.87938 -4.5
      vertex 15.2645 3.87938 2.5
    endloop
  endfacet
  facet normal -0.838671 -0.544638 0
    outer loop
      vertex 15.6408 3.3 -4.5
      vertex 15.2645 3.87938 2.5
      vertex 15.2645 3.87938 -4.5
    endloop
  endfacet
  facet normal -0.838671 -0.544638 0
    outer loop
      vertex 15.2645 3.87938 2.5
      vertex 15.6408 3.3 -4.5
      vertex 15.6408 3.3 2.5
    endloop
  endfacet
  facet normal -0.258818 -0.965926 0
    outer loop
      vertex 11.2972 6.45577 -4.5
      vertex 11.9645 6.27697 2.5
      vertex 11.2972 6.45577 2.5
    endloop
  endfacet
  facet normal -0.258818 -0.965926 -0
    outer loop
      vertex 11.9645 6.27697 2.5
      vertex 11.2972 6.45577 -4.5
      vertex 11.9645 6.27697 -4.5
    endloop
  endfacet
  facet normal -0.156435 -0.987688 0
    outer loop
      vertex 10.6149 6.56384 -4.5
      vertex 11.2972 6.45577 2.5
      vertex 10.6149 6.56384 2.5
    endloop
  endfacet
  facet normal -0.156435 -0.987688 -0
    outer loop
      vertex 11.2972 6.45577 2.5
      vertex 10.6149 6.56384 -4.5
      vertex 11.2972 6.45577 -4.5
    endloop
  endfacet
  facet normal -0.544638 -0.838671 0
    outer loop
      vertex 13.225 5.71577 -4.5
      vertex 13.8044 5.33951 2.5
      vertex 13.225 5.71577 2.5
    endloop
  endfacet
  facet normal -0.544638 -0.838671 -0
    outer loop
      vertex 13.8044 5.33951 2.5
      vertex 13.225 5.71577 -4.5
      vertex 13.8044 5.33951 -4.5
    endloop
  endfacet
  facet normal 0.707107 -0.707107 0
    outer loop
      vertex 5.02024 4.41626 2.5
      vertex 5.50874 4.90476 -4.5
      vertex 5.50874 4.90476 2.5
    endloop
  endfacet
  facet normal 0.707107 -0.707107 0
    outer loop
      vertex 5.50874 4.90476 -4.5
      vertex 5.02024 4.41626 2.5
      vertex 5.02024 4.41626 -4.5
    endloop
  endfacet
  facet normal 0.891006 -0.453992 0
    outer loop
      vertex 3.8956 2.68446 2.5
      vertex 4.20923 3.3 -4.5
      vertex 4.20923 3.3 2.5
    endloop
  endfacet
  facet normal 0.891006 -0.453992 0
    outer loop
      vertex 4.20923 3.3 -4.5
      vertex 3.8956 2.68446 2.5
      vertex 3.8956 2.68446 -4.5
    endloop
  endfacet
  facet normal 0.965926 -0.258818 0
    outer loop
      vertex 3.46923 1.37222 2.5
      vertex 3.64803 2.03951 -4.5
      vertex 3.64803 2.03951 2.5
    endloop
  endfacet
  facet normal 0.965926 -0.258818 0
    outer loop
      vertex 3.64803 2.03951 -4.5
      vertex 3.46923 1.37222 2.5
      vertex 3.46923 1.37222 -4.5
    endloop
  endfacet
  facet normal 0.987688 -0.156435 0
    outer loop
      vertex 3.36116 0.689887 2.5
      vertex 3.46923 1.37222 -4.5
      vertex 3.46923 1.37222 2.5
    endloop
  endfacet
  facet normal 0.987688 -0.156435 0
    outer loop
      vertex 3.46923 1.37222 -4.5
      vertex 3.36116 0.689887 2.5
      vertex 3.36116 0.689887 -4.5
    endloop
  endfacet
  facet normal 0.453992 -0.891006 0
    outer loop
      vertex 6.625 5.71577 -4.5
      vertex 7.24054 6.0294 2.5
      vertex 6.625 5.71577 2.5
    endloop
  endfacet
  facet normal 0.453992 -0.891006 0
    outer loop
      vertex 7.24054 6.0294 2.5
      vertex 6.625 5.71577 -4.5
      vertex 7.24054 6.0294 -4.5
    endloop
  endfacet
  facet normal 0.0523363 -0.99863 0
    outer loop
      vertex 9.23511 6.56384 -4.5
      vertex 9.925 6.6 2.5
      vertex 9.23511 6.56384 2.5
    endloop
  endfacet
  facet normal 0.0523363 -0.99863 0
    outer loop
      vertex 9.925 6.6 2.5
      vertex 9.23511 6.56384 -4.5
      vertex 9.925 6.6 -4.5
    endloop
  endfacet
  facet normal 0.258818 -0.965926 0
    outer loop
      vertex 7.88549 6.27697 -4.5
      vertex 8.55278 6.45577 2.5
      vertex 7.88549 6.27697 2.5
    endloop
  endfacet
  facet normal 0.258818 -0.965926 0
    outer loop
      vertex 8.55278 6.45577 2.5
      vertex 7.88549 6.27697 -4.5
      vertex 8.55278 6.45577 -4.5
    endloop
  endfacet
  facet normal 0.156435 -0.987688 0
    outer loop
      vertex 8.55278 6.45577 -4.5
      vertex 9.23511 6.56384 2.5
      vertex 8.55278 6.45577 2.5
    endloop
  endfacet
  facet normal 0.156435 -0.987688 0
    outer loop
      vertex 9.23511 6.56384 2.5
      vertex 8.55278 6.45577 -4.5
      vertex 9.23511 6.56384 -4.5
    endloop
  endfacet
  facet normal -0.0523363 0.99863 0
    outer loop
      vertex 10.6149 -6.56384 -4.5
      vertex 9.925 -6.6 2.5
      vertex 10.6149 -6.56384 2.5
    endloop
  endfacet
  facet normal -0.0523363 0.99863 0
    outer loop
      vertex 9.925 -6.6 2.5
      vertex 10.6149 -6.56384 -4.5
      vertex 9.925 -6.6 -4.5
    endloop
  endfacet
  facet normal -0.156435 0.987688 0
    outer loop
      vertex 11.2972 -6.45577 -4.5
      vertex 10.6149 -6.56384 2.5
      vertex 11.2972 -6.45577 2.5
    endloop
  endfacet
  facet normal -0.156435 0.987688 0
    outer loop
      vertex 10.6149 -6.56384 2.5
      vertex 11.2972 -6.45577 -4.5
      vertex 10.6149 -6.56384 -4.5
    endloop
  endfacet
  facet normal -0.453992 0.891006 0
    outer loop
      vertex 13.225 -5.71577 -4.5
      vertex 12.6095 -6.0294 2.5
      vertex 13.225 -5.71577 2.5
    endloop
  endfacet
  facet normal -0.453992 0.891006 0
    outer loop
      vertex 12.6095 -6.0294 2.5
      vertex 13.225 -5.71577 -4.5
      vertex 12.6095 -6.0294 -4.5
    endloop
  endfacet
  facet normal -0.62932 0.777146 0
    outer loop
      vertex 14.3413 -4.90476 -4.5
      vertex 13.8044 -5.33951 2.5
      vertex 14.3413 -4.90476 2.5
    endloop
  endfacet
  facet normal -0.62932 0.777146 0
    outer loop
      vertex 13.8044 -5.33951 2.5
      vertex 14.3413 -4.90476 -4.5
      vertex 13.8044 -5.33951 -4.5
    endloop
  endfacet
  facet normal -0.544638 0.838671 0
    outer loop
      vertex 13.8044 -5.33951 -4.5
      vertex 13.225 -5.71577 2.5
      vertex 13.8044 -5.33951 2.5
    endloop
  endfacet
  facet normal -0.544638 0.838671 0
    outer loop
      vertex 13.225 -5.71577 2.5
      vertex 13.8044 -5.33951 -4.5
      vertex 13.225 -5.71577 -4.5
    endloop
  endfacet
  facet normal -0.777146 0.62932 0
    outer loop
      vertex 14.8298 -4.41626 -4.5
      vertex 15.2645 -3.87938 2.5
      vertex 15.2645 -3.87938 -4.5
    endloop
  endfacet
  facet normal -0.777146 0.62932 0
    outer loop
      vertex 15.2645 -3.87938 2.5
      vertex 14.8298 -4.41626 -4.5
      vertex 14.8298 -4.41626 2.5
    endloop
  endfacet
  facet normal -0.838671 0.544638 0
    outer loop
      vertex 15.2645 -3.87938 -4.5
      vertex 15.6408 -3.3 2.5
      vertex 15.6408 -3.3 -4.5
    endloop
  endfacet
  facet normal -0.838671 0.544638 0
    outer loop
      vertex 15.6408 -3.3 2.5
      vertex 15.2645 -3.87938 -4.5
      vertex 15.2645 -3.87938 2.5
    endloop
  endfacet
  facet normal 0.156435 0.987688 -0
    outer loop
      vertex 9.23511 -6.56384 -4.5
      vertex 8.55278 -6.45577 2.5
      vertex 9.23511 -6.56384 2.5
    endloop
  endfacet
  facet normal 0.156435 0.987688 0
    outer loop
      vertex 8.55278 -6.45577 2.5
      vertex 9.23511 -6.56384 -4.5
      vertex 8.55278 -6.45577 -4.5
    endloop
  endfacet
  facet normal 0.707107 0.707107 0
    outer loop
      vertex 5.50874 -4.90476 2.5
      vertex 5.02024 -4.41626 -4.5
      vertex 5.02024 -4.41626 2.5
    endloop
  endfacet
  facet normal 0.707107 0.707107 0
    outer loop
      vertex 5.02024 -4.41626 -4.5
      vertex 5.50874 -4.90476 2.5
      vertex 5.50874 -4.90476 -4.5
    endloop
  endfacet
  facet normal 0.0523363 0.99863 -0
    outer loop
      vertex 9.925 -6.6 -4.5
      vertex 9.23511 -6.56384 2.5
      vertex 9.925 -6.6 2.5
    endloop
  endfacet
  facet normal 0.0523363 0.99863 0
    outer loop
      vertex 9.23511 -6.56384 2.5
      vertex 9.925 -6.6 -4.5
      vertex 9.23511 -6.56384 -4.5
    endloop
  endfacet
  facet normal 0.62932 0.777146 -0
    outer loop
      vertex 6.04562 -5.33951 -4.5
      vertex 5.50874 -4.90476 2.5
      vertex 6.04562 -5.33951 2.5
    endloop
  endfacet
  facet normal 0.62932 0.777146 0
    outer loop
      vertex 5.50874 -4.90476 2.5
      vertex 6.04562 -5.33951 -4.5
      vertex 5.50874 -4.90476 -4.5
    endloop
  endfacet
  facet normal 0.891006 0.453992 0
    outer loop
      vertex 4.20923 -3.3 2.5
      vertex 3.8956 -2.68446 -4.5
      vertex 3.8956 -2.68446 2.5
    endloop
  endfacet
  facet normal 0.891006 0.453992 0
    outer loop
      vertex 3.8956 -2.68446 -4.5
      vertex 4.20923 -3.3 2.5
      vertex 4.20923 -3.3 -4.5
    endloop
  endfacet
  facet normal 0.965926 0.258818 0
    outer loop
      vertex 3.64803 -2.03951 2.5
      vertex 3.46923 -1.37222 -4.5
      vertex 3.46923 -1.37222 2.5
    endloop
  endfacet
  facet normal 0.965926 0.258818 0
    outer loop
      vertex 3.46923 -1.37222 -4.5
      vertex 3.64803 -2.03951 2.5
      vertex 3.64803 -2.03951 -4.5
    endloop
  endfacet
  facet normal 0.99863 0.0523363 0
    outer loop
      vertex 3.36116 -0.689887 2.5
      vertex 3.325 0 -4.5
      vertex 3.325 0 2.5
    endloop
  endfacet
  facet normal 0.99863 0.0523363 0
    outer loop
      vertex 3.325 0 -4.5
      vertex 3.36116 -0.689887 2.5
      vertex 3.36116 -0.689887 -4.5
    endloop
  endfacet
  facet normal 0.933581 0.358368 0
    outer loop
      vertex 3.8956 -2.68446 2.5
      vertex 3.64803 -2.03951 -4.5
      vertex 3.64803 -2.03951 2.5
    endloop
  endfacet
  facet normal 0.933581 0.358368 0
    outer loop
      vertex 3.64803 -2.03951 -4.5
      vertex 3.8956 -2.68446 2.5
      vertex 3.8956 -2.68446 -4.5
    endloop
  endfacet
  facet normal -0.987688 -0.156435 0
    outer loop
      vertex 16.4888 0.689887 -4.5
      vertex 16.3808 1.37222 2.5
      vertex 16.3808 1.37222 -4.5
    endloop
  endfacet
  facet normal -0.987688 -0.156435 0
    outer loop
      vertex 16.3808 1.37222 2.5
      vertex 16.4888 0.689887 -4.5
      vertex 16.4888 0.689887 2.5
    endloop
  endfacet
  facet normal -0.358368 -0.933581 0
    outer loop
      vertex 11.9645 6.27697 -4.5
      vertex 12.6095 6.0294 2.5
      vertex 11.9645 6.27697 2.5
    endloop
  endfacet
  facet normal -0.358368 -0.933581 -0
    outer loop
      vertex 12.6095 6.0294 2.5
      vertex 11.9645 6.27697 -4.5
      vertex 12.6095 6.0294 -4.5
    endloop
  endfacet
  facet normal 0 0 -1
    outer loop
      vertex 12.125 0 2.5
      vertex 16.525 0 2.5
      vertex 16.4888 -0.689887 2.5
    endloop
  endfacet
  facet normal 0 0 -1
    outer loop
      vertex 12.125 0 2.5
      vertex 16.4888 -0.689887 2.5
      vertex 16.3808 -1.37222 2.5
    endloop
  endfacet
  facet normal 0 0 -1
    outer loop
      vertex 16.525 0 2.5
      vertex 12.125 0 2.5
      vertex 16.4888 0.689887 2.5
    endloop
  endfacet
  facet normal 0 0 -1
    outer loop
      vertex 12.125 0 2.5
      vertex 16.3808 -1.37222 2.5
      vertex 16.202 -2.03951 2.5
    endloop
  endfacet
  facet normal -0 0 -1
    outer loop
      vertex 16.4888 0.689887 2.5
      vertex 12.125 0 2.5
      vertex 16.3808 1.37222 2.5
    endloop
  endfacet
  facet normal 0 0 -1
    outer loop
      vertex 12.125 0 2.5
      vertex 16.202 -2.03951 2.5
      vertex 15.9544 -2.68446 2.5
    endloop
  endfacet
  facet normal -0 0 -1
    outer loop
      vertex 16.3808 1.37222 2.5
      vertex 12.125 0 2.5
      vertex 16.202 2.03951 2.5
    endloop
  endfacet
  facet normal 0 0 -1
    outer loop
      vertex 11.4806 -1.55563 2.5
      vertex 15.9544 -2.68446 2.5
      vertex 15.6408 -3.3 2.5
    endloop
  endfacet
  facet normal -0 0 -1
    outer loop
      vertex 16.202 2.03951 2.5
      vertex 12.125 0 2.5
      vertex 15.9544 2.68446 2.5
    endloop
  endfacet
  facet normal 0 0 -1
    outer loop
      vertex 11.4806 -1.55563 2.5
      vertex 15.6408 -3.3 2.5
      vertex 15.2645 -3.87938 2.5
    endloop
  endfacet
  facet normal 0 0 -1
    outer loop
      vertex 11.4806 1.55563 2.5
      vertex 15.9544 2.68446 2.5
      vertex 12.125 0 2.5
    endloop
  endfacet
  facet normal 0 0 -1
    outer loop
      vertex 11.4806 -1.55563 2.5
      vertex 15.2645 -3.87938 2.5
      vertex 14.8298 -4.41626 2.5
    endloop
  endfacet
  facet normal -0 0 -1
    outer loop
      vertex 15.9544 2.68446 2.5
      vertex 11.4806 1.55563 2.5
      vertex 15.6408 3.3 2.5
    endloop
  endfacet
  facet normal 0 0 -1
    outer loop
      vertex 11.4806 -1.55563 2.5
      vertex 14.8298 -4.41626 2.5
      vertex 14.3413 -4.90476 2.5
    endloop
  endfacet
  facet normal -0 0 -1
    outer loop
      vertex 15.6408 3.3 2.5
      vertex 11.4806 1.55563 2.5
      vertex 15.2645 3.87938 2.5
    endloop
  endfacet
  facet normal 0 0 -1
    outer loop
      vertex 11.4806 -1.55563 2.5
      vertex 14.3413 -4.90476 2.5
      vertex 13.8044 -5.33951 2.5
    endloop
  endfacet
  facet normal -0 0 -1
    outer loop
      vertex 15.2645 3.87938 2.5
      vertex 11.4806 1.55563 2.5
      vertex 14.8298 4.41626 2.5
    endloop
  endfacet
  facet normal 0 0 -1
    outer loop
      vertex 11.4806 -1.55563 2.5
      vertex 13.8044 -5.33951 2.5
      vertex 13.225 -5.71577 2.5
    endloop
  endfacet
  facet normal -0 0 -1
    outer loop
      vertex 14.8298 4.41626 2.5
      vertex 11.4806 1.55563 2.5
      vertex 14.3413 4.90476 2.5
    endloop
  endfacet
  facet normal 0 0 -1
    outer loop
      vertex 11.4806 -1.55563 2.5
      vertex 13.225 -5.71577 2.5
      vertex 12.6095 -6.0294 2.5
    endloop
  endfacet
  facet normal -0 0 -1
    outer loop
      vertex 14.3413 4.90476 2.5
      vertex 11.4806 1.55563 2.5
      vertex 13.8044 5.33951 2.5
    endloop
  endfacet
  facet normal -0 0 -1
    outer loop
      vertex 13.8044 5.33951 2.5
      vertex 11.4806 1.55563 2.5
      vertex 13.225 5.71577 2.5
    endloop
  endfacet
  facet normal 0 0 -1
    outer loop
      vertex 9.925 -2.2 2.5
      vertex 12.6095 -6.0294 2.5
      vertex 11.9645 -6.27697 2.5
    endloop
  endfacet
  facet normal 0 0 -1
    outer loop
      vertex 15.9544 -2.68446 2.5
      vertex 11.4806 -1.55563 2.5
      vertex 12.125 0 2.5
    endloop
  endfacet
  facet normal 0 0 -1
    outer loop
      vertex 9.925 -2.2 2.5
      vertex 11.9645 -6.27697 2.5
      vertex 11.2972 -6.45577 2.5
    endloop
  endfacet
  facet normal 0 0 -1
    outer loop
      vertex 9.925 -2.2 2.5
      vertex 11.2972 -6.45577 2.5
      vertex 10.6149 -6.56384 2.5
    endloop
  endfacet
  facet normal 0 0 -1
    outer loop
      vertex 9.925 -2.2 2.5
      vertex 10.6149 -6.56384 2.5
      vertex 9.925 -6.6 2.5
    endloop
  endfacet
  facet normal 0 0 -1
    outer loop
      vertex 12.6095 -6.0294 2.5
      vertex 9.925 -2.2 2.5
      vertex 11.4806 -1.55563 2.5
    endloop
  endfacet
  facet normal 0 0 -1
    outer loop
      vertex 9.23511 -6.56384 2.5
      vertex 9.925 -2.2 2.5
      vertex 9.925 -6.6 2.5
    endloop
  endfacet
  facet normal 0 0 -1
    outer loop
      vertex 8.55278 -6.45577 2.5
      vertex 9.925 -2.2 2.5
      vertex 9.23511 -6.56384 2.5
    endloop
  endfacet
  facet normal 0 0 -1
    outer loop
      vertex 7.88549 -6.27697 2.5
      vertex 9.925 -2.2 2.5
      vertex 8.55278 -6.45577 2.5
    endloop
  endfacet
  facet normal 0 0 -1
    outer loop
      vertex 7.24054 -6.0294 2.5
      vertex 9.925 -2.2 2.5
      vertex 7.88549 -6.27697 2.5
    endloop
  endfacet
  facet normal -0 0 -1
    outer loop
      vertex 9.925 -2.2 2.5
      vertex 7.24054 -6.0294 2.5
      vertex 8.36937 -1.55563 2.5
    endloop
  endfacet
  facet normal 0 0 -1
    outer loop
      vertex 6.625 -5.71577 2.5
      vertex 8.36937 -1.55563 2.5
      vertex 7.24054 -6.0294 2.5
    endloop
  endfacet
  facet normal -0 0 -1
    outer loop
      vertex 13.225 5.71577 2.5
      vertex 11.4806 1.55563 2.5
      vertex 12.6095 6.0294 2.5
    endloop
  endfacet
  facet normal 0 0 -1
    outer loop
      vertex 9.925 2.2 2.5
      vertex 12.6095 6.0294 2.5
      vertex 11.4806 1.55563 2.5
    endloop
  endfacet
  facet normal -0 0 -1
    outer loop
      vertex 12.6095 6.0294 2.5
      vertex 9.925 2.2 2.5
      vertex 11.9645 6.27697 2.5
    endloop
  endfacet
  facet normal -0 0 -1
    outer loop
      vertex 11.9645 6.27697 2.5
      vertex 9.925 2.2 2.5
      vertex 11.2972 6.45577 2.5
    endloop
  endfacet
  facet normal -0 0 -1
    outer loop
      vertex 11.2972 6.45577 2.5
      vertex 9.925 2.2 2.5
      vertex 10.6149 6.56384 2.5
    endloop
  endfacet
  facet normal 0 0 -1
    outer loop
      vertex 9.925 2.2 2.5
      vertex 9.925 6.6 2.5
      vertex 10.6149 6.56384 2.5
    endloop
  endfacet
  facet normal 0 0 -1
    outer loop
      vertex 9.925 2.2 2.5
      vertex 9.23511 6.56384 2.5
      vertex 9.925 6.6 2.5
    endloop
  endfacet
  facet normal 0 0 -1
    outer loop
      vertex 9.925 2.2 2.5
      vertex 8.55278 6.45577 2.5
      vertex 9.23511 6.56384 2.5
    endloop
  endfacet
  facet normal 0 0 -1
    outer loop
      vertex 7.24054 6.0294 2.5
      vertex 9.925 2.2 2.5
      vertex 8.36937 1.55563 2.5
    endloop
  endfacet
  facet normal 0 0 -1
    outer loop
      vertex 9.925 2.2 2.5
      vertex 7.88549 6.27697 2.5
      vertex 8.55278 6.45577 2.5
    endloop
  endfacet
  facet normal 0 0 -1
    outer loop
      vertex 3.8956 2.68446 2.5
      vertex 8.36937 1.55563 2.5
      vertex 7.725 0 2.5
    endloop
  endfacet
  facet normal 0 0 -1
    outer loop
      vertex 6.04562 -5.33951 2.5
      vertex 8.36937 -1.55563 2.5
      vertex 6.625 -5.71577 2.5
    endloop
  endfacet
  facet normal 0 0 -1
    outer loop
      vertex 9.925 2.2 2.5
      vertex 7.24054 6.0294 2.5
      vertex 7.88549 6.27697 2.5
    endloop
  endfacet
  facet normal 0 0 -1
    outer loop
      vertex 5.50874 -4.90476 2.5
      vertex 8.36937 -1.55563 2.5
      vertex 6.04562 -5.33951 2.5
    endloop
  endfacet
  facet normal 0 0 -1
    outer loop
      vertex 8.36937 1.55563 2.5
      vertex 6.625 5.71577 2.5
      vertex 7.24054 6.0294 2.5
    endloop
  endfacet
  facet normal 0 0 -1
    outer loop
      vertex 5.02024 -4.41626 2.5
      vertex 8.36937 -1.55563 2.5
      vertex 5.50874 -4.90476 2.5
    endloop
  endfacet
  facet normal 0 0 -1
    outer loop
      vertex 8.36937 1.55563 2.5
      vertex 6.04562 5.33951 2.5
      vertex 6.625 5.71577 2.5
    endloop
  endfacet
  facet normal 0 0 -1
    outer loop
      vertex 4.58549 -3.87938 2.5
      vertex 8.36937 -1.55563 2.5
      vertex 5.02024 -4.41626 2.5
    endloop
  endfacet
  facet normal 0 0 -1
    outer loop
      vertex 8.36937 1.55563 2.5
      vertex 5.50874 4.90476 2.5
      vertex 6.04562 5.33951 2.5
    endloop
  endfacet
  facet normal 0 0 -1
    outer loop
      vertex 4.20923 -3.3 2.5
      vertex 8.36937 -1.55563 2.5
      vertex 4.58549 -3.87938 2.5
    endloop
  endfacet
  facet normal 0 0 -1
    outer loop
      vertex 8.36937 1.55563 2.5
      vertex 5.02024 4.41626 2.5
      vertex 5.50874 4.90476 2.5
    endloop
  endfacet
  facet normal 0 0 -1
    outer loop
      vertex 3.8956 -2.68446 2.5
      vertex 8.36937 -1.55563 2.5
      vertex 4.20923 -3.3 2.5
    endloop
  endfacet
  facet normal 0 0 -1
    outer loop
      vertex 8.36937 1.55563 2.5
      vertex 4.58549 3.87938 2.5
      vertex 5.02024 4.41626 2.5
    endloop
  endfacet
  facet normal -0 0 -1
    outer loop
      vertex 8.36937 -1.55563 2.5
      vertex 3.8956 -2.68446 2.5
      vertex 7.725 0 2.5
    endloop
  endfacet
  facet normal 0 0 -1
    outer loop
      vertex 8.36937 1.55563 2.5
      vertex 4.20923 3.3 2.5
      vertex 4.58549 3.87938 2.5
    endloop
  endfacet
  facet normal 0 0 -1
    outer loop
      vertex 3.64803 -2.03951 2.5
      vertex 7.725 0 2.5
      vertex 3.8956 -2.68446 2.5
    endloop
  endfacet
  facet normal 0 0 -1
    outer loop
      vertex 8.36937 1.55563 2.5
      vertex 3.8956 2.68446 2.5
      vertex 4.20923 3.3 2.5
    endloop
  endfacet
  facet normal 0 0 -1
    outer loop
      vertex 3.46923 -1.37222 2.5
      vertex 7.725 0 2.5
      vertex 3.64803 -2.03951 2.5
    endloop
  endfacet
  facet normal 0 0 -1
    outer loop
      vertex 7.725 0 2.5
      vertex 3.64803 2.03951 2.5
      vertex 3.8956 2.68446 2.5
    endloop
  endfacet
  facet normal 0 0 -1
    outer loop
      vertex 3.36116 -0.689887 2.5
      vertex 7.725 0 2.5
      vertex 3.46923 -1.37222 2.5
    endloop
  endfacet
  facet normal 0 0 -1
    outer loop
      vertex 7.725 0 2.5
      vertex 3.46923 1.37222 2.5
      vertex 3.64803 2.03951 2.5
    endloop
  endfacet
  facet normal 0 0 -1
    outer loop
      vertex 3.325 0 2.5
      vertex 7.725 0 2.5
      vertex 3.36116 -0.689887 2.5
    endloop
  endfacet
  facet normal 0 0 -1
    outer loop
      vertex 7.725 0 2.5
      vertex 3.36116 0.689887 2.5
      vertex 3.46923 1.37222 2.5
    endloop
  endfacet
  facet normal 0 0 -1
    outer loop
      vertex 7.725 0 2.5
      vertex 3.325 0 2.5
      vertex 3.36116 0.689887 2.5
    endloop
  endfacet
  facet normal 0.933581 -0.358368 0
    outer loop
      vertex 3.64803 2.03951 2.5
      vertex 3.8956 2.68446 -4.5
      vertex 3.8956 2.68446 2.5
    endloop
  endfacet
  facet normal 0.933581 -0.358368 0
    outer loop
      vertex 3.8956 2.68446 -4.5
      vertex 3.64803 2.03951 2.5
      vertex 3.64803 2.03951 -4.5
    endloop
  endfacet
  facet normal -0.358368 0.933581 0
    outer loop
      vertex 12.6095 -6.0294 -4.5
      vertex 11.9645 -6.27697 2.5
      vertex 12.6095 -6.0294 2.5
    endloop
  endfacet
  facet normal -0.358368 0.933581 0
    outer loop
      vertex 11.9645 -6.27697 2.5
      vertex 12.6095 -6.0294 -4.5
      vertex 11.9645 -6.27697 -4.5
    endloop
  endfacet
  facet normal -0.933581 0.358368 0
    outer loop
      vertex 15.9544 -2.68446 -4.5
      vertex 16.202 -2.03951 2.5
      vertex 16.202 -2.03951 -4.5
    endloop
  endfacet
  facet normal -0.933581 0.358368 0
    outer loop
      vertex 16.202 -2.03951 2.5
      vertex 15.9544 -2.68446 -4.5
      vertex 15.9544 -2.68446 2.5
    endloop
  endfacet
  facet normal -0.987688 0.156435 0
    outer loop
      vertex 16.3808 -1.37222 -4.5
      vertex 16.4888 -0.689887 2.5
      vertex 16.4888 -0.689887 -4.5
    endloop
  endfacet
  facet normal -0.987688 0.156435 0
    outer loop
      vertex 16.4888 -0.689887 2.5
      vertex 16.3808 -1.37222 -4.5
      vertex 16.3808 -1.37222 2.5
    endloop
  endfacet
  facet normal -0.99863 0.0523363 0
    outer loop
      vertex 16.4888 -0.689887 -4.5
      vertex 16.525 0 2.5
      vertex 16.525 0 -4.5
    endloop
  endfacet
  facet normal -0.99863 0.0523363 0
    outer loop
      vertex 16.525 0 2.5
      vertex 16.4888 -0.689887 -4.5
      vertex 16.4888 -0.689887 2.5
    endloop
  endfacet
  facet normal 0.258818 0.965926 -0
    outer loop
      vertex 8.55278 -6.45577 -4.5
      vertex 7.88549 -6.27697 2.5
      vertex 8.55278 -6.45577 2.5
    endloop
  endfacet
  facet normal 0.258818 0.965926 0
    outer loop
      vertex 7.88549 -6.27697 2.5
      vertex 8.55278 -6.45577 -4.5
      vertex 7.88549 -6.27697 -4.5
    endloop
  endfacet
  facet normal 0.453992 0.891006 -0
    outer loop
      vertex 7.24054 -6.0294 -4.5
      vertex 6.625 -5.71577 2.5
      vertex 7.24054 -6.0294 2.5
    endloop
  endfacet
  facet normal 0.453992 0.891006 0
    outer loop
      vertex 6.625 -5.71577 2.5
      vertex 7.24054 -6.0294 -4.5
      vertex 6.625 -5.71577 -4.5
    endloop
  endfacet
  facet normal 0.838671 0.544638 0
    outer loop
      vertex 4.58549 -3.87938 2.5
      vertex 4.20923 -3.3 -4.5
      vertex 4.20923 -3.3 2.5
    endloop
  endfacet
  facet normal 0.838671 0.544638 0
    outer loop
      vertex 4.20923 -3.3 -4.5
      vertex 4.58549 -3.87938 2.5
      vertex 4.58549 -3.87938 -4.5
    endloop
  endfacet
  facet normal 0.987688 0.156435 0
    outer loop
      vertex 3.46923 -1.37222 2.5
      vertex 3.36116 -0.689887 -4.5
      vertex 3.36116 -0.689887 2.5
    endloop
  endfacet
  facet normal 0.987688 0.156435 0
    outer loop
      vertex 3.36116 -0.689887 -4.5
      vertex 3.46923 -1.37222 2.5
      vertex 3.46923 -1.37222 -4.5
    endloop
  endfacet
  facet normal 0.382683 -0.92388 0
    outer loop
      vertex 21.6212 1.87383 -4.5
      vertex 23.495 2.65 4.5
      vertex 21.6212 1.87383 4.5
    endloop
  endfacet
  facet normal 0.382683 -0.92388 0
    outer loop
      vertex 23.495 2.65 4.5
      vertex 21.6212 1.87383 -4.5
      vertex 23.495 2.65 -4.5
    endloop
  endfacet
  facet normal 0 -1 0
    outer loop
      vertex 23.495 2.65 -4.5
      vertex 34.925 2.65 4.5
      vertex 23.495 2.65 4.5
    endloop
  endfacet
  facet normal 0 -1 -0
    outer loop
      vertex 34.925 2.65 4.5
      vertex 23.495 2.65 -4.5
      vertex 34.925 2.65 -4.5
    endloop
  endfacet
  facet normal 0 1 -0
    outer loop
      vertex 34.925 -2.65 -4.5
      vertex 23.495 -2.65 4.5
      vertex 34.925 -2.65 4.5
    endloop
  endfacet
  facet normal 0 1 0
    outer loop
      vertex 23.495 -2.65 4.5
      vertex 34.925 -2.65 -4.5
      vertex 23.495 -2.65 -4.5
    endloop
  endfacet
  facet normal 0.382683 0.92388 -0
    outer loop
      vertex 23.495 -2.65 -4.5
      vertex 21.6212 -1.87383 4.5
      vertex 23.495 -2.65 4.5
    endloop
  endfacet
  facet normal 0.382683 0.92388 0
    outer loop
      vertex 21.6212 -1.87383 4.5
      vertex 23.495 -2.65 -4.5
      vertex 21.6212 -1.87383 -4.5
    endloop
  endfacet
  facet normal 0.92388 0.382683 0
    outer loop
      vertex 21.6212 -1.87383 4.5
      vertex 20.845 0 -4.5
      vertex 20.845 0 4.5
    endloop
  endfacet
  facet normal 0.92388 0.382683 0
    outer loop
      vertex 20.845 0 -4.5
      vertex 21.6212 -1.87383 4.5
      vertex 21.6212 -1.87383 -4.5
    endloop
  endfacet
  facet normal 0.92388 -0.382683 0
    outer loop
      vertex 20.845 0 4.5
      vertex 21.6212 1.87383 -4.5
      vertex 21.6212 1.87383 4.5
    endloop
  endfacet
  facet normal 0.92388 -0.382683 0
    outer loop
      vertex 21.6212 1.87383 -4.5
      vertex 20.845 0 4.5
      vertex 20.845 0 -4.5
    endloop
  endfacet
  facet normal -0.92388 -0.382683 0
    outer loop
      vertex -11.955 0 -4.5
      vertex -12.7312 1.87383 4.5
      vertex -12.7312 1.87383 -4.5
    endloop
  endfacet
  facet normal -0.92388 -0.382683 0
    outer loop
      vertex -12.7312 1.87383 4.5
      vertex -11.955 0 -4.5
      vertex -11.955 0 4.5
    endloop
  endfacet
  facet normal 0.92388 -0.382683 0
    outer loop
      vertex -29.955 0 4.5
      vertex -29.1788 1.87383 -4.5
      vertex -29.1788 1.87383 4.5
    endloop
  endfacet
  facet normal 0.92388 -0.382683 0
    outer loop
      vertex -29.1788 1.87383 -4.5
      vertex -29.955 0 4.5
      vertex -29.955 0 -4.5
    endloop
  endfacet
  facet normal 0 1 -0
    outer loop
      vertex -14.605 -2.65 -4.5
      vertex -27.305 -2.65 4.5
      vertex -14.605 -2.65 4.5
    endloop
  endfacet
  facet normal 0 1 0
    outer loop
      vertex -27.305 -2.65 4.5
      vertex -14.605 -2.65 -4.5
      vertex -27.305 -2.65 -4.5
    endloop
  endfacet
  facet normal 0 -1 0
    outer loop
      vertex -27.305 2.65 -4.5
      vertex -14.605 2.65 4.5
      vertex -27.305 2.65 4.5
    endloop
  endfacet
  facet normal 0 -1 -0
    outer loop
      vertex -14.605 2.65 4.5
      vertex -27.305 2.65 -4.5
      vertex -14.605 2.65 -4.5
    endloop
  endfacet
  facet normal -0.382683 -0.92388 0
    outer loop
      vertex -14.605 2.65 -4.5
      vertex -12.7312 1.87383 4.5
      vertex -14.605 2.65 4.5
    endloop
  endfacet
  facet normal -0.382683 -0.92388 -0
    outer loop
      vertex -12.7312 1.87383 4.5
      vertex -14.605 2.65 -4.5
      vertex -12.7312 1.87383 -4.5
    endloop
  endfacet
  facet normal 0.382683 -0.92388 0
    outer loop
      vertex -29.1788 1.87383 -4.5
      vertex -27.305 2.65 4.5
      vertex -29.1788 1.87383 4.5
    endloop
  endfacet
  facet normal 0.382683 -0.92388 0
    outer loop
      vertex -27.305 2.65 4.5
      vertex -29.1788 1.87383 -4.5
      vertex -27.305 2.65 -4.5
    endloop
  endfacet
  facet normal -0.382683 0.92388 0
    outer loop
      vertex -12.7312 -1.87383 -4.5
      vertex -14.605 -2.65 4.5
      vertex -12.7312 -1.87383 4.5
    endloop
  endfacet
  facet normal -0.382683 0.92388 0
    outer loop
      vertex -14.605 -2.65 4.5
      vertex -12.7312 -1.87383 -4.5
      vertex -14.605 -2.65 -4.5
    endloop
  endfacet
  facet normal -0.92388 0.382683 0
    outer loop
      vertex -12.7312 -1.87383 -4.5
      vertex -11.955 0 4.5
      vertex -11.955 0 -4.5
    endloop
  endfacet
  facet normal -0.92388 0.382683 0
    outer loop
      vertex -11.955 0 4.5
      vertex -12.7312 -1.87383 -4.5
      vertex -12.7312 -1.87383 4.5
    endloop
  endfacet
  facet normal 0.92388 0.382683 0
    outer loop
      vertex -29.1788 -1.87383 4.5
      vertex -29.955 0 -4.5
      vertex -29.955 0 4.5
    endloop
  endfacet
  facet normal 0.92388 0.382683 0
    outer loop
      vertex -29.955 0 -4.5
      vertex -29.1788 -1.87383 4.5
      vertex -29.1788 -1.87383 -4.5
    endloop
  endfacet
  facet normal 0.382683 0.92388 -0
    outer loop
      vertex -27.305 -2.65 -4.5
      vertex -29.1788 -1.87383 4.5
      vertex -27.305 -2.65 4.5
    endloop
  endfacet
  facet normal 0.382683 0.92388 0
    outer loop
      vertex -29.1788 -1.87383 4.5
      vertex -27.305 -2.65 -4.5
      vertex -29.1788 -1.87383 -4.5
    endloop
  endfacet
endsolid OpenSCAD_Model
